<svg width="24" height="22" viewBox="0 0 24 22" fill="none" xmlns="http://www.w3.org/2000/svg">
<path d="M2 2H8C9.06087 2 10.0783 2.42143 10.8284 3.17157C11.5786 3.92172 12 4.93913 12 6V20C12 19.2044 11.6839 18.4413 11.1213 17.8787C10.5587 17.3161 9.79565 17 9 17H2V2Z" fill="#EEBBC3" stroke="#232946" stroke-width="2.5" stroke-linecap="round" stroke-linejoin="round"/>
<path d="M22 2H16C14.9391 2 13.9217 2.42143 13.1716 3.17157C12.4214 3.92172 12 4.93913 12 6V20C12 19.2044 12.3161 18.4413 12.8787 17.8787C13.4413 17.3161 14.2044 17 15 17H22V2Z" fill="#EEBBC3" stroke="#232946" stroke-width="2.5" stroke-linecap="round" stroke-linejoin="round"/>
<path d="M18 10H22" stroke="#232946" stroke-width="2.5" stroke-miterlimit="1.55572" stroke-linecap="round" stroke-linejoin="round"/>
</svg>
