<svg width="202" height="164" viewBox="0 0 202 164" fill="none" xmlns="http://www.w3.org/2000/svg">
<path d="M11 11H65C74.5478 11 83.7045 14.3082 90.4558 20.1968C97.2071 26.0855 101 34.0722 101 42.4V152.3C101 146.054 98.1554 140.064 93.0919 135.648C88.0284 131.231 81.1608 128.75 74 128.75H11V11Z" fill="#EEBBC3" stroke="#232946" stroke-width="22" stroke-linecap="round" stroke-linejoin="round"/>
<path d="M191 11H137C127.452 11 118.295 14.3082 111.544 20.1968C104.793 26.0855 101 34.0722 101 42.4V152.3C101 146.054 103.845 140.064 108.908 135.648C113.972 131.231 120.839 128.75 128 128.75H191V11Z" fill="#EEBBC3" stroke="#232946" stroke-width="22" stroke-linecap="round" stroke-linejoin="round"/>
<path d="M155 73.7999H191" stroke="#232946" stroke-width="22" stroke-miterlimit="1.55572" stroke-linecap="round" stroke-linejoin="round"/>
<path d="M29 128.75H182" stroke="#232946" stroke-width="22" stroke-miterlimit="1.55572" stroke-linecap="round" stroke-linejoin="round"/>
</svg>
