<svg width="809" height="519" viewBox="0 0 809 519" fill="none" xmlns="http://www.w3.org/2000/svg">
<path d="M168.019 303.31C131.427 267.288 115.973 229.708 124.501 197.494C135.445 156.154 184.066 127.57 257.895 119.073L258.168 121.444C185.366 129.823 137.487 157.765 126.808 198.104C118.508 229.455 133.739 266.214 169.694 301.61L168.019 303.31Z" fill="#F0F0F0"/>
<path d="M521.067 431.177C475.399 431.177 425.771 424.39 376.478 411.34C315.519 395.202 259.627 370.843 214.843 340.897L216.169 338.913C260.737 368.715 316.382 392.962 377.088 409.033C431.948 423.557 487.218 430.286 536.905 428.51L536.991 430.895C531.744 431.083 526.436 431.177 521.067 431.177Z" fill="#F0F0F0"/>
<path d="M625.837 416.169L625.073 413.908C665.917 400.099 691.464 377.853 698.951 349.573C708.467 313.624 687.792 271.907 640.732 232.106C593.432 192.104 525.224 158.912 448.67 138.646L449.281 136.338C526.169 156.694 594.709 190.058 642.272 230.284C690.076 270.713 711.024 313.294 701.258 350.184C693.556 379.274 667.476 402.091 625.837 416.169Z" fill="#F0F0F0"/>
<path d="M250.79 432.174C161.053 392.375 91.9049 340.741 56.0829 286.781L58.0709 285.461C93.6452 339.047 162.431 390.375 251.757 429.993L250.79 432.174Z" fill="#F0F0F0"/>
<path d="M566.296 501.123C557.04 501.123 547.626 500.916 538.054 500.503L538.156 498.119C609.589 501.212 672.616 492.663 720.435 473.393L721.328 475.607C679.614 492.415 626.446 501.123 566.296 501.123Z" fill="#F0F0F0"/>
<path d="M514.229 121.213C499.398 116.384 484.142 111.888 468.886 107.849C381.094 84.6073 294.793 76.3553 219.311 83.9897L219.071 81.6149C294.835 73.9554 381.431 82.2272 469.497 105.542C484.796 109.592 500.095 114.101 514.968 118.944L514.229 121.213Z" fill="#F0F0F0"/>
<path d="M111.936 306.89C75.3445 270.868 59.8899 233.288 68.418 201.074C79.3624 159.733 127.983 131.15 201.812 122.653L202.085 125.024C129.283 133.403 81.4045 161.344 70.7253 201.684C62.4255 233.035 77.6558 269.794 113.611 305.19L111.936 306.89Z" fill="#F0F0F0"/>
<path d="M464.984 434.756C419.316 434.756 369.689 427.97 320.395 414.92C259.436 398.782 203.544 374.423 158.76 344.477L160.086 342.493C204.654 372.295 260.299 396.542 321.005 412.612C375.865 427.137 431.135 433.866 480.822 432.09L480.908 434.474C475.661 434.663 470.353 434.757 464.984 434.756Z" fill="#F0F0F0"/>
<path d="M569.754 419.749L568.99 417.488C609.834 403.678 635.381 381.432 642.868 353.153C652.385 317.204 631.709 275.486 584.649 235.686C537.349 195.684 469.141 162.492 392.588 142.225L393.198 139.918C470.086 160.273 538.626 193.637 586.189 233.864C633.993 274.293 654.941 316.874 645.175 353.764C637.474 382.854 611.393 405.671 569.754 419.749Z" fill="#F0F0F0"/>
<path d="M194.707 435.754C104.971 395.955 35.822 344.32 0 290.361L1.98799 289.041C37.5624 342.627 106.348 393.955 195.674 433.573L194.707 435.754Z" fill="#F0F0F0"/>
<path d="M510.213 504.703C500.957 504.703 491.543 504.496 481.971 504.083L482.073 501.699C553.507 504.791 616.533 496.243 664.352 476.972L665.245 479.186C623.531 495.995 570.364 504.703 510.213 504.703Z" fill="#F0F0F0"/>
<path d="M458.147 124.793C443.315 119.964 428.059 115.468 412.803 111.429C325.011 88.1871 238.71 79.9351 163.228 87.5695L162.988 85.1946C238.752 77.5352 325.348 85.807 413.414 109.121C428.713 113.172 444.012 117.681 458.885 122.524L458.147 124.793Z" fill="#F0F0F0"/>
<path d="M40.6767 242.969C57.8265 223.74 85.1832 212.021 109.975 219.037C87.1035 235.222 70.6945 258.975 63.6509 286.094C60.9724 296.563 59.0833 308.485 50.3771 314.886C44.96 318.869 37.7822 319.82 31.1203 318.913C24.4581 318.006 18.1587 315.415 11.9444 312.848L10.2722 312.993C15.0799 287.68 23.5269 262.197 40.6767 242.969Z" fill="#EEBBC3"/>
<path d="M109.899 219.572C89.1716 224.59 70.5525 236.012 56.6864 252.215C53.6393 255.65 51.1529 259.544 49.3184 263.754C47.6639 267.912 47.1532 272.437 47.8392 276.86C48.3959 280.996 49.4445 285.163 48.9861 289.362C48.7195 291.509 48.0023 293.574 46.8815 295.424C45.7606 297.273 44.2614 298.865 42.4822 300.095C38.1288 303.274 32.8926 304.699 27.7237 305.914C21.9846 307.264 16.0021 308.575 11.3238 312.39C10.757 312.852 10.0731 311.945 10.6391 311.484C18.7785 304.848 30.0904 305.7 39.0959 300.88C43.298 298.631 46.8478 295.102 47.7109 290.259C48.4656 286.025 47.388 281.727 46.7881 277.544C46.0556 273.24 46.3883 268.821 47.757 264.675C49.3712 260.386 51.7036 256.403 54.6542 252.896C61.171 244.895 68.9052 237.969 77.5736 232.371C87.4313 225.927 98.3187 221.217 109.765 218.444C110.473 218.273 110.603 219.402 109.899 219.572L109.899 219.572Z" fill="white"/>
<path d="M60.8441 246.735C58.4415 244.04 57.0752 240.578 56.9893 236.968C56.9034 233.358 58.1034 229.835 60.3751 227.029C60.8368 226.462 61.7385 227.153 61.2763 227.72C59.156 230.33 58.0385 233.611 58.1253 236.973C58.2122 240.334 59.4978 243.554 61.75 246.05C62.2388 246.594 61.3301 247.275 60.8441 246.735H60.8441Z" fill="white"/>
<path d="M47.2806 274.8C54.6458 275.289 61.9247 272.984 67.666 268.345C68.2345 267.885 68.9186 268.791 68.3508 269.251C62.3673 274.067 54.7875 276.45 47.1243 275.925C46.3939 275.874 46.5542 274.749 47.2806 274.8Z" fill="white"/>
<path d="M87.6866 227.411C88.3989 228.648 89.4072 229.688 90.621 230.439C91.8347 231.189 93.216 231.627 94.6406 231.712C95.3712 231.753 95.2101 232.877 94.4842 232.836C92.9107 232.735 91.3859 232.25 90.043 231.424C88.7002 230.597 87.5801 229.455 86.7807 228.096C86.6946 227.974 86.6582 227.824 86.6787 227.676C86.6992 227.528 86.7752 227.394 86.8912 227.3C87.0116 227.21 87.1627 227.171 87.3117 227.192C87.4606 227.213 87.5953 227.291 87.6866 227.411V227.411Z" fill="white"/>
<path d="M145.166 298.859C144.709 298.846 144.252 298.833 143.79 298.828C137.645 298.687 131.499 299.045 125.413 299.9C124.941 299.958 124.464 300.025 123.995 300.097C109.353 302.312 95.25 307.226 82.4021 314.589C77.2923 317.524 72.4132 320.843 67.807 324.518C61.446 329.594 54.9528 335.603 47.5057 338.205C46.7318 338.485 45.9413 338.717 45.1387 338.899L10.5787 315.021C10.5274 314.928 10.4703 314.842 10.4186 314.748L8.99512 313.857C9.21944 313.651 9.45653 313.442 9.68085 313.236C9.81048 313.116 9.94784 313.001 10.0774 312.881C10.1663 312.803 10.2556 312.725 10.3313 312.649C10.3607 312.622 10.3906 312.597 10.4147 312.578C10.4904 312.502 10.5687 312.44 10.639 312.372C11.961 311.2 13.2936 310.036 14.6367 308.879C14.6422 308.871 14.6422 308.871 14.6553 308.868C24.9117 300.077 35.9921 292.065 47.9363 285.989C48.2957 285.806 48.6602 285.615 49.0354 285.444C54.4346 282.735 60.046 280.472 65.8138 278.677C68.9752 277.705 72.1839 276.893 75.4274 276.245C83.8113 274.586 92.404 274.257 100.89 275.269C117.807 277.288 133.89 284.696 144.375 297.846C144.643 298.183 144.904 298.514 145.166 298.859Z" fill="#EEBBC3"/>
<path d="M144.786 299.244C125.215 290.771 103.472 288.681 82.6449 293.27C78.1438 294.178 73.8141 295.79 69.815 298.047C65.9905 300.371 62.858 303.676 60.7432 307.621C58.6974 311.258 57.0261 315.216 54.1316 318.294C52.6266 319.847 50.8103 321.064 48.8018 321.866C46.7932 322.668 44.6379 323.036 42.477 322.947C37.087 322.864 32.0483 320.85 27.1892 318.708C21.7942 316.331 16.2281 313.776 10.1965 314.004C9.46563 314.032 9.46537 312.896 10.1951 312.869C20.6891 312.471 29.2082 319.962 39.3004 321.535C44.0097 322.269 48.9687 321.589 52.5733 318.242C55.7254 315.315 57.4524 311.235 59.492 307.534C61.4987 303.656 64.4244 300.329 68.0136 297.842C71.8848 295.39 76.1452 293.613 80.6124 292.59C90.6327 290.125 100.978 289.252 111.27 290.001C123.02 290.791 134.549 293.585 145.358 298.262C146.026 298.552 145.45 299.531 144.786 299.244V299.244Z" fill="white"/>
<path d="M89.264 291.398C88.9685 287.799 89.9618 284.212 92.0666 281.278C94.1714 278.344 97.2506 276.254 100.754 275.381C101.464 275.206 101.768 276.301 101.057 276.475C97.7933 277.282 94.9252 279.23 92.9708 281.966C91.0164 284.702 90.1045 288.047 90.3995 291.396C90.4628 292.124 89.3269 292.121 89.264 291.398Z" fill="white"/>
<path d="M61.5375 305.639C67.1236 310.464 74.3231 313.006 81.7003 312.759C82.4312 312.734 82.4317 313.869 81.7016 313.895C74.0243 314.138 66.5375 311.477 60.7355 306.443C60.1828 305.963 60.9878 305.162 61.5375 305.639V305.639Z" fill="white"/>
<path d="M122.331 292.129C122.155 293.545 122.334 294.983 122.851 296.313C123.368 297.643 124.207 298.824 125.294 299.75C125.852 300.223 125.047 301.024 124.492 300.554C123.296 299.526 122.371 298.22 121.796 296.752C121.222 295.284 121.015 293.697 121.195 292.131C121.2 291.981 121.261 291.84 121.366 291.734C121.472 291.629 121.613 291.567 121.762 291.562C121.913 291.563 122.057 291.623 122.163 291.729C122.27 291.835 122.33 291.979 122.331 292.129H122.331Z" fill="white"/>
<path d="M712.665 400.593C702.975 376.719 681.149 356.487 655.442 354.762C671.543 377.692 679.013 405.579 676.533 433.488C675.537 444.248 673.309 456.111 679.357 465.066C683.121 470.638 689.561 473.946 696.141 475.331C702.72 476.716 709.524 476.393 716.239 476.063L717.766 476.762C721.745 451.306 722.354 424.466 712.665 400.593Z" fill="#EEBBC3"/>
<path d="M655.333 355.291C673.168 366.984 686.865 384 694.479 403.921C696.194 408.18 697.227 412.683 697.54 417.264C697.701 421.737 696.661 426.17 694.528 430.105C692.614 433.813 690.226 437.385 689.246 441.495C688.776 443.606 688.757 445.792 689.191 447.911C689.625 450.03 690.502 452.033 691.764 453.789C694.796 458.246 699.249 461.348 703.708 464.23C708.66 467.43 713.854 470.676 716.978 475.841C717.356 476.466 718.305 475.842 717.927 475.217C712.492 466.232 701.551 463.232 694.69 455.666C691.488 452.136 689.331 447.619 690.146 442.768C690.858 438.526 693.317 434.841 695.288 431.103C697.425 427.295 698.597 423.022 698.701 418.657C698.622 414.075 697.764 409.539 696.164 405.245C692.715 395.519 687.759 386.396 681.476 378.21C674.358 368.828 665.687 360.733 655.839 354.274C655.229 353.875 654.728 354.895 655.333 355.291V355.291Z" fill="white"/>
<path d="M692.405 397.362C695.574 395.631 698.024 392.829 699.318 389.458C700.612 386.087 700.666 382.366 699.47 378.959C699.225 378.271 698.144 378.618 698.389 379.308C699.509 382.478 699.458 385.944 698.247 389.081C697.035 392.218 694.742 394.818 691.782 396.412C691.139 396.76 691.766 397.707 692.405 397.362V397.362Z" fill="white"/>
<path d="M695.747 428.352C688.646 426.338 682.565 421.721 678.717 415.422C678.336 414.797 677.387 415.421 677.767 416.045C681.784 422.592 688.122 427.384 695.516 429.464C696.221 429.662 696.448 428.549 695.747 428.352V428.352Z" fill="white"/>
<path d="M673.619 370.14C672.532 371.065 671.233 371.706 669.837 372.005C668.442 372.304 666.994 372.252 665.624 371.853C664.922 371.647 664.696 372.76 665.393 372.965C666.909 373.399 668.508 373.454 670.051 373.127C671.593 372.8 673.032 372.101 674.242 371.089C674.364 371.004 674.449 370.874 674.479 370.728C674.509 370.582 674.483 370.43 674.405 370.303C674.322 370.178 674.193 370.09 674.045 370.06C673.898 370.029 673.745 370.058 673.619 370.14V370.14Z" fill="white"/>
<path d="M595.469 418.112C595.904 418.254 596.339 418.395 596.776 418.546C602.611 420.478 608.279 422.882 613.724 425.732C614.148 425.946 614.575 426.169 614.993 426.394C628.038 433.401 639.67 442.77 649.295 454.023C653.121 458.504 656.601 463.27 659.704 468.28C663.989 475.198 668.085 483.04 674.224 487.993C674.859 488.517 675.526 489.001 676.22 489.443L716.795 478.57C716.875 478.499 716.958 478.437 717.038 478.366L718.678 478.006C718.536 477.736 718.383 477.46 718.241 477.19C718.159 477.033 718.068 476.879 717.987 476.722C717.929 476.619 717.872 476.515 717.826 476.418C717.807 476.384 717.787 476.349 717.771 476.324C717.725 476.227 717.672 476.142 717.629 476.054C716.778 474.506 715.914 472.962 715.038 471.42C715.035 471.411 715.035 471.411 715.024 471.404C708.319 459.677 700.576 448.407 691.369 438.67C691.092 438.377 690.812 438.075 690.517 437.787C686.342 433.421 681.818 429.404 676.989 425.775C674.338 423.797 671.589 421.954 668.752 420.253C661.413 415.873 653.431 412.675 645.098 410.776C628.487 406.992 610.85 408.563 596.555 417.425C596.189 417.651 595.832 417.876 595.469 418.112Z" fill="#EEBBC3"/>
<path d="M595.698 418.603C616.978 417.201 638.159 422.54 656.232 433.862C660.166 436.23 663.702 439.204 666.71 442.673C669.531 446.147 671.37 450.314 672.036 454.739C672.74 458.853 672.984 463.142 674.676 467.013C675.571 468.982 676.873 470.739 678.495 472.17C680.117 473.6 682.023 474.671 684.089 475.313C689.193 477.047 694.616 476.843 699.912 476.459C705.792 476.033 711.893 475.498 717.497 477.74C718.176 478.012 718.558 476.942 717.88 476.671C708.13 472.769 697.589 476.961 687.555 475.051C682.873 474.16 678.431 471.852 676.161 467.489C674.176 463.673 673.921 459.25 673.244 455.078C672.657 450.751 671.02 446.634 668.475 443.086C665.654 439.475 662.238 436.37 658.375 433.905C649.766 428.216 640.316 423.916 630.371 421.162C619.038 417.957 607.241 416.714 595.489 417.486C594.762 417.535 594.976 418.651 595.698 418.603V418.603Z" fill="white"/>
<path d="M650.627 429.874C652.115 426.584 652.385 422.872 651.389 419.401C650.392 415.931 648.195 412.927 645.189 410.927C644.579 410.524 643.925 411.453 644.535 411.856C647.338 413.713 649.385 416.511 650.306 419.745C651.227 422.979 650.962 426.436 649.558 429.491C649.254 430.155 650.325 430.535 650.627 429.874H650.627Z" fill="white"/>
<path d="M671.954 452.606C665.071 455.273 657.436 455.247 650.571 452.535C649.891 452.266 649.509 453.335 650.188 453.604C657.337 456.413 665.283 456.424 672.439 453.633C673.121 453.366 672.632 452.341 671.954 452.606V452.606Z" fill="white"/>
<path d="M619.238 419.449C618.928 420.842 618.276 422.136 617.342 423.215C616.408 424.294 615.22 425.124 613.886 425.631C613.201 425.889 613.691 426.914 614.371 426.658C615.843 426.091 617.153 425.173 618.188 423.983C619.223 422.793 619.95 421.368 620.307 419.832C620.353 419.69 620.343 419.536 620.279 419.401C620.215 419.267 620.103 419.161 619.964 419.106C619.822 419.056 619.666 419.064 619.531 419.129C619.395 419.193 619.29 419.308 619.238 419.449V419.449Z" fill="white"/>
<path d="M524.682 481.886C529.955 481.886 534.229 477.612 534.229 472.34C534.229 467.068 529.955 462.794 524.682 462.794C519.41 462.794 515.136 467.068 515.136 472.34C515.136 477.612 519.41 481.886 524.682 481.886Z" fill="#FD6584"/>
<path d="M558.496 319.296C563.768 319.296 568.042 315.022 568.042 309.75C568.042 304.478 563.768 300.204 558.496 300.204C553.224 300.204 548.95 304.478 548.95 309.75C548.95 315.022 553.224 319.296 558.496 319.296Z" fill="#E6E6E6"/>
<path d="M380.867 54.5077C386.14 54.5077 390.413 50.2338 390.413 44.9617C390.413 39.6895 386.14 35.4156 380.867 35.4156C375.595 35.4156 371.321 39.6895 371.321 44.9617C371.321 50.2338 375.595 54.5077 380.867 54.5077Z" fill="#E6E6E6"/>
<mask id="path-36-inside-1_3_422" fill="white">
<path d="M180.826 411.146C180.826 413.576 180.906 416.006 181.076 418.416C181.256 421.296 181.566 424.156 181.986 426.996C183.397 436.558 186.095 445.886 190.006 454.726C190.205 455.166 190.405 455.606 190.606 456.046L190.906 456.706C191.006 456.926 191.116 457.146 191.216 457.356C191.356 457.646 191.486 457.926 191.626 458.206C191.796 458.556 191.966 458.906 192.146 459.256C192.166 459.296 192.186 459.346 192.216 459.396C192.366 459.696 192.506 459.986 192.666 460.286C192.695 460.351 192.728 460.414 192.766 460.476C192.936 460.816 193.116 461.166 193.296 461.506C193.496 461.866 193.686 462.236 193.886 462.596C194.366 463.486 194.866 464.366 195.376 465.246C195.526 465.506 195.676 465.766 195.836 466.026C195.976 466.266 196.116 466.506 196.266 466.746C196.366 466.906 196.466 467.076 196.566 467.236C196.726 467.506 196.886 467.766 197.056 468.036C197.426 468.626 197.806 469.216 198.176 469.806H198.186C198.356 470.076 198.536 470.346 198.716 470.606V470.616C199.246 471.416 199.796 472.216 200.346 473.006C200.347 473.006 200.348 473.006 200.349 473.006C200.351 473.007 200.352 473.008 200.353 473.008C200.354 473.009 200.354 473.011 200.355 473.012C200.355 473.013 200.356 473.014 200.356 473.016C200.796 473.656 201.256 474.276 201.706 474.896V474.906C202.006 475.296 202.296 475.696 202.596 476.086C202.836 476.406 203.086 476.736 203.336 477.056C203.386 477.126 203.446 477.186 203.496 477.256V477.266C203.566 477.356 203.636 477.436 203.706 477.526C204.766 478.886 205.859 480.216 206.986 481.516L207.166 481.726C207.226 481.796 207.296 481.866 207.356 481.946C207.456 482.056 207.546 482.166 207.646 482.276C207.736 482.386 207.836 482.496 207.936 482.606C213.809 489.221 220.468 495.095 227.766 500.096C228.736 500.766 229.726 501.416 230.716 502.046C230.966 502.206 231.216 502.366 231.466 502.516C231.536 502.566 231.616 502.616 231.686 502.666C231.826 502.746 231.956 502.826 232.096 502.916C232.226 502.996 232.356 503.076 232.496 503.156C233.026 503.486 233.566 503.806 234.106 504.126C234.236 504.206 234.376 504.286 234.516 504.366C234.646 504.436 234.786 504.516 234.926 504.596C234.926 504.606 234.926 504.606 234.936 504.606H234.946V504.616H234.956C235.626 505.006 236.306 505.386 236.996 505.756C237.366 505.956 237.746 506.166 238.126 506.356C238.986 506.826 239.856 507.276 240.726 507.706C241.036 507.856 241.356 508.006 241.666 508.166C241.926 508.286 242.186 508.416 242.446 508.536C242.526 508.576 242.596 508.606 242.666 508.646C242.886 508.746 243.096 508.846 243.316 508.946C243.556 509.056 243.796 509.166 244.026 509.276C244.296 509.396 244.556 509.516 244.826 509.626C245.826 510.076 246.836 510.506 247.846 510.916C251.465 512.399 255.164 513.681 258.926 514.756C259.096 514.806 259.276 514.856 259.456 514.906C261.066 515.356 262.686 515.766 264.316 516.136C267.166 516.796 270.042 517.336 272.946 517.756H272.966C273.316 517.806 273.656 517.856 274.006 517.906C274.036 517.906 274.066 517.916 274.106 517.916C274.106 517.926 274.106 517.926 274.116 517.916C274.496 517.966 274.886 518.016 275.266 518.066C275.292 518.073 275.319 518.077 275.346 518.076C275.706 518.126 276.076 518.166 276.436 518.206C276.826 518.246 277.216 518.286 277.606 518.326C277.906 518.356 278.206 518.386 278.506 518.416C278.531 518.425 278.559 518.428 278.586 518.426C278.856 518.446 279.126 518.476 279.396 518.496H279.436C279.666 518.516 279.906 518.536 280.136 518.556C282.926 518.776 285.726 518.876 288.566 518.876C291.636 518.876 294.686 518.756 297.696 518.496H297.726C298.376 518.436 299.016 518.376 299.656 518.316C299.826 518.296 299.986 518.286 300.156 518.266C300.186 518.266 300.226 518.256 300.256 518.256C300.306 518.246 300.356 518.246 300.416 518.236C300.443 518.237 300.47 518.233 300.496 518.226C300.716 518.206 300.936 518.176 301.166 518.156L301.916 518.066C302.166 518.036 302.416 517.996 302.666 517.966C302.726 517.956 302.776 517.956 302.836 517.946C303.016 517.926 303.196 517.896 303.376 517.866C303.466 517.856 303.556 517.846 303.636 517.836C303.816 517.806 303.986 517.786 304.166 517.756H304.176C309.663 516.966 315.08 515.745 320.376 514.106C320.656 514.016 320.936 513.936 321.216 513.846C321.226 513.846 321.236 513.836 321.246 513.836C321.326 513.806 321.416 513.786 321.496 513.756C322.246 513.516 322.986 513.266 323.726 513.006C324.746 512.666 325.756 512.296 326.766 511.916C327.036 511.806 327.306 511.706 327.576 511.596C328.126 511.386 328.666 511.166 329.206 510.946C330.126 510.576 331.046 510.186 331.956 509.786C332.806 509.406 333.646 509.026 334.486 508.626C334.506 508.616 334.536 508.616 334.556 508.596C334.746 508.506 334.936 508.416 335.116 508.326H335.126C339.731 506.116 344.172 503.579 348.416 500.736C349.776 499.826 351.116 498.886 352.436 497.916C353.496 497.126 354.536 496.326 355.576 495.506C360.706 491.425 365.456 486.886 369.766 481.946V481.936C370.076 481.596 370.366 481.246 370.666 480.896C370.716 480.846 370.756 480.796 370.796 480.756C370.986 480.526 371.166 480.306 371.356 480.086V480.076C371.606 479.786 371.856 479.486 372.096 479.186C372.156 479.116 372.206 479.056 372.256 478.996V478.986C372.456 478.746 372.646 478.506 372.846 478.256C372.946 478.136 373.036 478.016 373.136 477.896V477.886C373.726 477.146 374.296 476.406 374.866 475.646C375.016 475.446 375.166 475.236 375.326 475.026C376.046 474.056 376.746 473.066 377.426 472.076V472.066C377.686 471.696 377.936 471.316 378.196 470.946C378.446 470.566 378.696 470.186 378.946 469.806C379.196 469.406 379.456 469.016 379.706 468.616L379.736 468.556C379.986 468.176 380.236 467.776 380.476 467.386C380.666 467.066 380.856 466.756 381.046 466.446C381.166 466.236 381.296 466.026 381.416 465.806C381.463 465.738 381.506 465.668 381.546 465.596C381.826 465.106 382.106 464.616 382.386 464.126C382.716 463.556 383.036 462.976 383.356 462.396C383.476 462.156 383.606 461.916 383.736 461.676C383.786 461.596 383.826 461.516 383.866 461.436C384.016 461.156 384.166 460.866 384.306 460.576C384.456 460.296 384.606 460.006 384.756 459.716C384.896 459.436 385.046 459.146 385.186 458.856C385.296 458.636 385.396 458.416 385.506 458.196C385.513 458.178 385.523 458.161 385.536 458.146C385.586 458.036 385.636 457.936 385.676 457.836C385.688 457.821 385.698 457.804 385.706 457.786C385.816 457.566 385.916 457.336 386.026 457.116C386.166 456.826 386.296 456.526 386.436 456.236C386.526 456.036 386.626 455.826 386.716 455.616C386.846 455.326 386.986 455.036 387.106 454.736C387.246 454.436 387.376 454.136 387.506 453.826C387.543 453.751 387.576 453.674 387.606 453.596C387.676 453.456 387.726 453.316 387.786 453.176C387.946 452.806 388.106 452.426 388.256 452.056C388.436 451.636 388.606 451.206 388.766 450.786C388.926 450.396 389.076 449.996 389.226 449.596L389.286 449.456C391.616 443.319 393.383 436.983 394.566 430.526V430.516C395.233 426.829 395.71 423.111 395.996 419.376C396.006 419.166 396.026 418.966 396.036 418.766C396.216 416.236 396.296 413.696 396.296 411.146C396.296 410.016 396.276 408.896 396.246 407.776C395.548 384.352 387.195 361.802 372.466 343.576C372.146 343.176 371.826 342.776 371.496 342.376C371.166 341.976 370.826 341.586 370.496 341.196C359.533 328.358 345.708 318.275 330.134 311.761C314.56 305.247 297.673 302.483 280.835 303.693C263.997 304.902 247.679 310.051 233.196 318.725C218.713 327.398 206.47 339.353 197.456 353.626C196.966 354.406 196.476 355.196 196.006 355.986C195.526 356.786 195.066 357.586 194.606 358.396C185.546 374.499 180.8 392.669 180.826 411.146Z"/>
</mask>
<path d="M180.826 411.146C180.826 413.576 180.906 416.006 181.076 418.416C181.256 421.296 181.566 424.156 181.986 426.996C183.397 436.558 186.095 445.886 190.006 454.726C190.205 455.166 190.405 455.606 190.606 456.046L190.906 456.706C191.006 456.926 191.116 457.146 191.216 457.356C191.356 457.646 191.486 457.926 191.626 458.206C191.796 458.556 191.966 458.906 192.146 459.256C192.166 459.296 192.186 459.346 192.216 459.396C192.366 459.696 192.506 459.986 192.666 460.286C192.695 460.351 192.728 460.414 192.766 460.476C192.936 460.816 193.116 461.166 193.296 461.506C193.496 461.866 193.686 462.236 193.886 462.596C194.366 463.486 194.866 464.366 195.376 465.246C195.526 465.506 195.676 465.766 195.836 466.026C195.976 466.266 196.116 466.506 196.266 466.746C196.366 466.906 196.466 467.076 196.566 467.236C196.726 467.506 196.886 467.766 197.056 468.036C197.426 468.626 197.806 469.216 198.176 469.806H198.186C198.356 470.076 198.536 470.346 198.716 470.606V470.616C199.246 471.416 199.796 472.216 200.346 473.006C200.347 473.006 200.348 473.006 200.349 473.006C200.351 473.007 200.352 473.008 200.353 473.008C200.354 473.009 200.354 473.011 200.355 473.012C200.355 473.013 200.356 473.014 200.356 473.016C200.796 473.656 201.256 474.276 201.706 474.896V474.906C202.006 475.296 202.296 475.696 202.596 476.086C202.836 476.406 203.086 476.736 203.336 477.056C203.386 477.126 203.446 477.186 203.496 477.256V477.266C203.566 477.356 203.636 477.436 203.706 477.526C204.766 478.886 205.859 480.216 206.986 481.516L207.166 481.726C207.226 481.796 207.296 481.866 207.356 481.946C207.456 482.056 207.546 482.166 207.646 482.276C207.736 482.386 207.836 482.496 207.936 482.606C213.809 489.221 220.468 495.095 227.766 500.096C228.736 500.766 229.726 501.416 230.716 502.046C230.966 502.206 231.216 502.366 231.466 502.516C231.536 502.566 231.616 502.616 231.686 502.666C231.826 502.746 231.956 502.826 232.096 502.916C232.226 502.996 232.356 503.076 232.496 503.156C233.026 503.486 233.566 503.806 234.106 504.126C234.236 504.206 234.376 504.286 234.516 504.366C234.646 504.436 234.786 504.516 234.926 504.596C234.926 504.606 234.926 504.606 234.936 504.606H234.946V504.616H234.956C235.626 505.006 236.306 505.386 236.996 505.756C237.366 505.956 237.746 506.166 238.126 506.356C238.986 506.826 239.856 507.276 240.726 507.706C241.036 507.856 241.356 508.006 241.666 508.166C241.926 508.286 242.186 508.416 242.446 508.536C242.526 508.576 242.596 508.606 242.666 508.646C242.886 508.746 243.096 508.846 243.316 508.946C243.556 509.056 243.796 509.166 244.026 509.276C244.296 509.396 244.556 509.516 244.826 509.626C245.826 510.076 246.836 510.506 247.846 510.916C251.465 512.399 255.164 513.681 258.926 514.756C259.096 514.806 259.276 514.856 259.456 514.906C261.066 515.356 262.686 515.766 264.316 516.136C267.166 516.796 270.042 517.336 272.946 517.756H272.966C273.316 517.806 273.656 517.856 274.006 517.906C274.036 517.906 274.066 517.916 274.106 517.916C274.106 517.926 274.106 517.926 274.116 517.916C274.496 517.966 274.886 518.016 275.266 518.066C275.292 518.073 275.319 518.077 275.346 518.076C275.706 518.126 276.076 518.166 276.436 518.206C276.826 518.246 277.216 518.286 277.606 518.326C277.906 518.356 278.206 518.386 278.506 518.416C278.531 518.425 278.559 518.428 278.586 518.426C278.856 518.446 279.126 518.476 279.396 518.496H279.436C279.666 518.516 279.906 518.536 280.136 518.556C282.926 518.776 285.726 518.876 288.566 518.876C291.636 518.876 294.686 518.756 297.696 518.496H297.726C298.376 518.436 299.016 518.376 299.656 518.316C299.826 518.296 299.986 518.286 300.156 518.266C300.186 518.266 300.226 518.256 300.256 518.256C300.306 518.246 300.356 518.246 300.416 518.236C300.443 518.237 300.47 518.233 300.496 518.226C300.716 518.206 300.936 518.176 301.166 518.156L301.916 518.066C302.166 518.036 302.416 517.996 302.666 517.966C302.726 517.956 302.776 517.956 302.836 517.946C303.016 517.926 303.196 517.896 303.376 517.866C303.466 517.856 303.556 517.846 303.636 517.836C303.816 517.806 303.986 517.786 304.166 517.756H304.176C309.663 516.966 315.08 515.745 320.376 514.106C320.656 514.016 320.936 513.936 321.216 513.846C321.226 513.846 321.236 513.836 321.246 513.836C321.326 513.806 321.416 513.786 321.496 513.756C322.246 513.516 322.986 513.266 323.726 513.006C324.746 512.666 325.756 512.296 326.766 511.916C327.036 511.806 327.306 511.706 327.576 511.596C328.126 511.386 328.666 511.166 329.206 510.946C330.126 510.576 331.046 510.186 331.956 509.786C332.806 509.406 333.646 509.026 334.486 508.626C334.506 508.616 334.536 508.616 334.556 508.596C334.746 508.506 334.936 508.416 335.116 508.326H335.126C339.731 506.116 344.172 503.579 348.416 500.736C349.776 499.826 351.116 498.886 352.436 497.916C353.496 497.126 354.536 496.326 355.576 495.506C360.706 491.425 365.456 486.886 369.766 481.946V481.936C370.076 481.596 370.366 481.246 370.666 480.896C370.716 480.846 370.756 480.796 370.796 480.756C370.986 480.526 371.166 480.306 371.356 480.086V480.076C371.606 479.786 371.856 479.486 372.096 479.186C372.156 479.116 372.206 479.056 372.256 478.996V478.986C372.456 478.746 372.646 478.506 372.846 478.256C372.946 478.136 373.036 478.016 373.136 477.896V477.886C373.726 477.146 374.296 476.406 374.866 475.646C375.016 475.446 375.166 475.236 375.326 475.026C376.046 474.056 376.746 473.066 377.426 472.076V472.066C377.686 471.696 377.936 471.316 378.196 470.946C378.446 470.566 378.696 470.186 378.946 469.806C379.196 469.406 379.456 469.016 379.706 468.616L379.736 468.556C379.986 468.176 380.236 467.776 380.476 467.386C380.666 467.066 380.856 466.756 381.046 466.446C381.166 466.236 381.296 466.026 381.416 465.806C381.463 465.738 381.506 465.668 381.546 465.596C381.826 465.106 382.106 464.616 382.386 464.126C382.716 463.556 383.036 462.976 383.356 462.396C383.476 462.156 383.606 461.916 383.736 461.676C383.786 461.596 383.826 461.516 383.866 461.436C384.016 461.156 384.166 460.866 384.306 460.576C384.456 460.296 384.606 460.006 384.756 459.716C384.896 459.436 385.046 459.146 385.186 458.856C385.296 458.636 385.396 458.416 385.506 458.196C385.513 458.178 385.523 458.161 385.536 458.146C385.586 458.036 385.636 457.936 385.676 457.836C385.688 457.821 385.698 457.804 385.706 457.786C385.816 457.566 385.916 457.336 386.026 457.116C386.166 456.826 386.296 456.526 386.436 456.236C386.526 456.036 386.626 455.826 386.716 455.616C386.846 455.326 386.986 455.036 387.106 454.736C387.246 454.436 387.376 454.136 387.506 453.826C387.543 453.751 387.576 453.674 387.606 453.596C387.676 453.456 387.726 453.316 387.786 453.176C387.946 452.806 388.106 452.426 388.256 452.056C388.436 451.636 388.606 451.206 388.766 450.786C388.926 450.396 389.076 449.996 389.226 449.596L389.286 449.456C391.616 443.319 393.383 436.983 394.566 430.526V430.516C395.233 426.829 395.71 423.111 395.996 419.376C396.006 419.166 396.026 418.966 396.036 418.766C396.216 416.236 396.296 413.696 396.296 411.146C396.296 410.016 396.276 408.896 396.246 407.776C395.548 384.352 387.195 361.802 372.466 343.576C372.146 343.176 371.826 342.776 371.496 342.376C371.166 341.976 370.826 341.586 370.496 341.196C359.533 328.358 345.708 318.275 330.134 311.761C314.56 305.247 297.673 302.483 280.835 303.693C263.997 304.902 247.679 310.051 233.196 318.725C218.713 327.398 206.47 339.353 197.456 353.626C196.966 354.406 196.476 355.196 196.006 355.986C195.526 356.786 195.066 357.586 194.606 358.396C185.546 374.499 180.8 392.669 180.826 411.146Z" fill="#F2F2F2" stroke="#232946" stroke-width="14" mask="url(#path-36-inside-1_3_422)"/>
<path d="M246.169 352.034C246.09 352.02 246.011 352.009 245.932 351.995C246.263 351.79 246.575 351.555 246.863 351.294L246.169 352.034Z" fill="white"/>
<path d="M238.125 506.356C238.985 506.826 239.855 507.276 240.725 507.706C241.035 507.856 241.355 508.006 241.665 508.166C241.925 508.286 242.185 508.416 242.445 508.536C242.525 508.576 242.595 508.606 242.665 508.646C242.885 508.746 243.095 508.846 243.315 508.946C243.555 509.056 243.796 509.166 244.026 509.276C244.296 509.396 244.556 509.516 244.826 509.626C245.826 510.076 246.835 510.506 247.845 510.916C251.465 512.399 255.164 513.681 258.926 514.756C259.096 514.806 259.276 514.856 259.456 514.906C261.066 515.356 262.686 515.766 264.316 516.136C267.166 516.796 270.042 517.336 272.946 517.756H272.966C273.316 517.806 273.656 517.856 274.006 517.906C274.036 517.906 274.066 517.916 274.106 517.916C274.106 517.926 274.106 517.926 274.116 517.916C274.496 517.966 274.886 518.016 275.266 518.066C275.291 518.073 275.319 518.077 275.346 518.076C275.706 518.126 276.076 518.166 276.436 518.206C276.826 518.246 277.216 518.286 277.606 518.326C277.906 518.356 278.206 518.386 278.506 518.416C278.531 518.425 278.558 518.428 278.586 518.426C278.856 518.446 279.126 518.476 279.396 518.496H279.436C279.666 518.516 279.906 518.536 280.136 518.556C282.926 518.776 285.726 518.876 288.566 518.876C291.636 518.876 294.686 518.756 297.696 518.496H297.726C298.376 518.436 299.016 518.376 299.656 518.316C299.826 518.296 299.986 518.286 300.156 518.266C300.186 518.266 300.226 518.256 300.256 518.256C300.306 518.246 300.356 518.246 300.416 518.236C300.443 518.237 300.47 518.233 300.496 518.226C300.716 518.206 300.936 518.176 301.166 518.156L301.916 518.066C302.166 518.036 302.416 517.996 302.666 517.966C302.726 517.956 302.776 517.956 302.836 517.946C303.016 517.926 303.196 517.896 303.376 517.866C303.466 517.856 303.556 517.846 303.636 517.836C303.816 517.806 303.986 517.786 304.166 517.756H304.176C309.663 516.966 315.08 515.745 320.376 514.106C320.656 514.016 320.936 513.936 321.216 513.846C319.924 507.824 317.266 502.18 313.446 497.349C309.626 492.518 304.747 488.631 299.186 485.986C300.561 484.675 301.512 482.982 301.916 481.126C302.175 479.929 302.196 478.693 301.976 477.488C301.756 476.283 301.301 475.134 300.636 474.106C299.338 472.113 297.302 470.718 294.976 470.226L280.156 467.126C277.77 466.661 275.297 467.156 273.275 468.504C271.252 469.853 269.844 471.945 269.356 474.326C269.204 475.056 269.137 475.801 269.156 476.546C254.886 486.046 244.615 495.896 238.125 506.356Z" fill="#D4939D"/>
<path d="M281.884 461.272C298.937 461.272 312.76 447.449 312.76 430.397C312.76 413.345 298.937 399.521 281.884 399.521C264.832 399.521 251.009 413.345 251.009 430.397C251.009 447.449 264.832 461.272 281.884 461.272Z" fill="#FFB8B8"/>
<path d="M262.639 457.016C259.347 454.767 255.984 450.445 253.74 447.206C250.765 442.948 248.719 438.113 247.733 433.014C246.746 427.914 246.843 422.665 248.015 417.605C248.389 415.582 249.308 413.699 250.673 412.16C252.127 410.721 254.502 410.039 256.277 411.056C255.793 409.759 255.579 408.377 255.65 406.994C255.721 405.611 256.074 404.257 256.689 403.017C257.936 400.539 259.744 398.386 261.968 396.729C266.222 393.453 271.283 391.39 276.615 390.759C281.947 390.128 287.35 390.952 292.251 393.143C294.18 394.037 291.012 387.135 293.031 387.801C295.036 388.577 297.266 388.538 299.243 387.691C301.141 386.736 307.435 392.414 306.706 390.417C308.147 391.071 309.399 392.079 310.345 393.348C311.291 394.616 311.901 396.103 312.118 397.671C312.335 399.238 312.152 400.835 311.585 402.312C311.018 403.79 310.087 405.1 308.878 406.121C307.284 407.466 305.295 408.24 303.55 409.382C300.493 411.533 298.33 414.728 297.467 418.365C296.605 422.002 297.105 425.829 298.871 429.123C297.036 427.943 295.021 427.068 292.907 426.531C291.846 426.272 290.738 426.27 289.676 426.525C288.615 426.781 287.629 427.286 286.802 427.999C286.111 428.79 285.589 429.714 285.267 430.714C284.946 431.714 284.833 432.769 284.935 433.815C285.004 435.91 285.502 437.974 285.558 440.07C285.723 446.219 289.016 457.91 284.248 461.178C280.486 463.758 267.135 460.087 262.639 457.016Z" fill="#2F2E41"/>
<path d="M303.114 275.856C302.464 275.855 301.82 275.724 301.22 275.473C300.325 275.114 299.559 274.492 299.023 273.69C298.487 272.888 298.206 271.943 298.216 270.978V266.091C298.215 265.066 297.808 264.083 297.083 263.358C296.358 262.633 295.375 262.225 294.35 262.224C293.06 262.223 291.823 261.71 290.91 260.797C289.998 259.885 289.485 258.648 289.483 257.358V190.402C289.485 189.112 289.998 187.875 290.91 186.963C291.822 186.051 293.059 185.537 294.35 185.536H516.176C517.467 185.537 518.704 186.05 519.616 186.963C520.528 187.875 521.042 189.112 521.043 190.402V257.358C521.042 258.648 520.528 259.885 519.616 260.797C518.704 261.71 517.467 262.223 516.176 262.224H320.321C319.813 262.223 319.31 262.322 318.84 262.517C318.371 262.711 317.945 262.996 317.586 263.357L306.524 274.419C306.079 274.872 305.549 275.233 304.963 275.479C304.378 275.726 303.749 275.854 303.114 275.856V275.856Z" fill="white"/>
<path d="M303.114 276.856C302.332 276.855 301.558 276.699 300.837 276.397C299.758 275.963 298.835 275.214 298.189 274.247C297.543 273.28 297.204 272.141 297.216 270.978V266.091C297.216 265.331 296.913 264.603 296.376 264.065C295.839 263.528 295.11 263.225 294.35 263.224C292.795 263.222 291.303 262.604 290.204 261.504C289.104 260.404 288.485 258.913 288.483 257.357V190.402C288.485 188.847 289.104 187.356 290.203 186.256C291.303 185.156 292.794 184.538 294.35 184.536H516.176C517.732 184.538 519.223 185.156 520.323 186.256C521.423 187.356 522.041 188.847 522.043 190.402V257.357C522.041 258.913 521.423 260.404 520.323 261.504C519.223 262.604 517.732 263.222 516.176 263.224H320.321C319.944 263.223 319.571 263.297 319.223 263.441C318.875 263.585 318.559 263.797 318.293 264.064L307.231 275.126C306.694 275.672 306.053 276.106 305.346 276.404C304.639 276.701 303.881 276.854 303.114 276.856V276.856ZM294.35 186.536C293.325 186.537 292.342 186.945 291.617 187.67C290.892 188.395 290.484 189.377 290.483 190.402V257.357C290.484 258.382 290.892 259.365 291.617 260.09C292.342 260.815 293.325 261.223 294.35 261.224C295.64 261.226 296.877 261.739 297.79 262.652C298.702 263.564 299.215 264.801 299.216 266.091V270.978C299.217 271.743 299.443 272.49 299.868 273.126C300.293 273.762 300.897 274.257 301.604 274.55C302.31 274.842 303.087 274.919 303.837 274.77C304.587 274.62 305.276 274.252 305.817 273.712L316.879 262.65C317.33 262.197 317.866 261.837 318.457 261.592C319.048 261.348 319.681 261.222 320.321 261.224H516.176C517.202 261.223 518.185 260.815 518.909 260.09C519.634 259.365 520.042 258.382 520.043 257.357V190.402C520.042 189.377 519.634 188.394 518.909 187.669C518.184 186.945 517.201 186.537 516.176 186.536L294.35 186.536Z" fill="#3F3D56"/>
<path d="M497.114 215.848H317.236C316.549 215.848 315.89 215.575 315.404 215.089C314.918 214.604 314.645 213.945 314.645 213.257C314.645 212.57 314.918 211.911 315.404 211.425C315.89 210.94 316.549 210.667 317.236 210.667H497.114C497.801 210.667 498.46 210.94 498.946 211.425C499.432 211.911 499.705 212.57 499.705 213.257C499.705 213.945 499.432 214.604 498.946 215.089C498.46 215.575 497.801 215.848 497.114 215.848Z" fill="#D4939D"/>
<path d="M496.784 226.855H317.236C316.549 226.855 315.89 226.582 315.404 226.096C314.918 225.61 314.645 224.951 314.645 224.264C314.645 223.577 314.918 222.918 315.404 222.432C315.89 221.946 316.549 221.673 317.236 221.673H496.784C497.471 221.673 498.13 221.946 498.616 222.432C499.102 222.918 499.374 223.577 499.374 224.264C499.374 224.951 499.102 225.61 498.616 226.096C498.13 226.582 497.471 226.855 496.784 226.855V226.855Z" fill="#E6E6E6"/>
<path d="M496.605 237.861H317.236C316.549 237.861 315.89 237.588 315.404 237.103C314.918 236.617 314.645 235.958 314.645 235.271C314.645 234.584 314.918 233.925 315.404 233.439C315.89 232.953 316.549 232.68 317.236 232.68H496.605C497.292 232.68 497.951 232.953 498.437 233.439C498.923 233.925 499.196 234.584 499.196 235.271C499.196 235.958 498.923 236.617 498.437 237.103C497.951 237.588 497.292 237.861 496.605 237.861V237.861Z" fill="#E6E6E6"/>
<mask id="path-46-inside-2_3_422" fill="white">
<path d="M780.385 175.146C780.385 177.576 780.305 180.006 780.135 182.416C779.955 185.296 779.646 188.156 779.226 190.996C777.814 200.558 775.116 209.886 771.206 218.726C771.006 219.166 770.806 219.606 770.606 220.046L770.305 220.706C770.205 220.926 770.095 221.146 769.995 221.356C769.855 221.646 769.726 221.926 769.586 222.206C769.416 222.556 769.245 222.906 769.065 223.256C769.045 223.296 769.025 223.346 768.995 223.396C768.845 223.696 768.706 223.986 768.546 224.286C768.516 224.351 768.483 224.414 768.445 224.476C768.275 224.816 768.096 225.166 767.916 225.506C767.716 225.866 767.526 226.236 767.326 226.596C766.846 227.486 766.346 228.366 765.836 229.246C765.686 229.506 765.535 229.766 765.375 230.026C765.235 230.266 765.095 230.506 764.945 230.746C764.845 230.906 764.745 231.076 764.645 231.236C764.485 231.506 764.325 231.766 764.155 232.036C763.785 232.626 763.405 233.216 763.035 233.806H763.025C762.855 234.076 762.675 234.346 762.495 234.606V234.616C761.965 235.416 761.415 236.216 760.865 237.006C760.864 237.006 760.863 237.006 760.862 237.006C760.86 237.007 760.859 237.008 760.858 237.008C760.857 237.009 760.857 237.01 760.856 237.012C760.856 237.013 760.855 237.014 760.855 237.016C760.415 237.656 759.955 238.276 759.505 238.896V238.906C759.205 239.296 758.915 239.696 758.615 240.086C758.375 240.406 758.125 240.736 757.875 241.056C757.825 241.126 757.765 241.186 757.715 241.256V241.266C757.645 241.356 757.575 241.436 757.505 241.526C756.445 242.886 755.352 244.216 754.225 245.516L754.045 245.726C753.985 245.796 753.915 245.866 753.855 245.946C753.755 246.056 753.665 246.166 753.565 246.276C753.475 246.386 753.375 246.496 753.275 246.606C747.402 253.221 740.743 259.095 733.445 264.096C732.475 264.766 731.485 265.416 730.495 266.046C730.245 266.206 729.995 266.366 729.745 266.516C729.675 266.566 729.595 266.616 729.525 266.666C729.385 266.746 729.255 266.826 729.115 266.916C728.985 266.996 728.855 267.076 728.715 267.156C728.185 267.486 727.645 267.806 727.105 268.126C726.975 268.206 726.835 268.286 726.695 268.366C726.565 268.436 726.425 268.516 726.285 268.596C726.285 268.606 726.285 268.606 726.275 268.606H726.265V268.616H726.255C725.585 269.006 724.905 269.386 724.215 269.756C723.845 269.956 723.465 270.166 723.085 270.356C722.225 270.826 721.355 271.276 720.485 271.706C720.175 271.856 719.855 272.006 719.545 272.166C719.285 272.286 719.025 272.416 718.765 272.536C718.685 272.576 718.615 272.606 718.545 272.646C718.325 272.746 718.115 272.846 717.895 272.946C717.655 273.056 717.415 273.166 717.185 273.276C716.915 273.396 716.655 273.516 716.385 273.626C715.385 274.076 714.375 274.506 713.365 274.916C709.746 276.399 706.047 277.681 702.285 278.756C702.115 278.806 701.935 278.856 701.755 278.906C700.145 279.356 698.525 279.766 696.895 280.136C694.045 280.796 691.169 281.336 688.265 281.756H688.245C687.895 281.806 687.555 281.856 687.205 281.906C687.175 281.906 687.145 281.916 687.105 281.916C687.105 281.926 687.105 281.926 687.095 281.916C686.715 281.966 686.325 282.016 685.945 282.066C685.919 282.073 685.892 282.077 685.865 282.076C685.505 282.126 685.135 282.166 684.775 282.206C684.385 282.246 683.995 282.286 683.605 282.326C683.305 282.356 683.005 282.386 682.705 282.416C682.68 282.424 682.652 282.428 682.625 282.426C682.355 282.446 682.085 282.476 681.815 282.496H681.775C681.545 282.516 681.305 282.536 681.075 282.556C678.285 282.776 675.485 282.876 672.645 282.876C669.575 282.876 666.525 282.756 663.515 282.496H663.485C662.835 282.436 662.195 282.376 661.555 282.316C661.385 282.296 661.225 282.286 661.055 282.266C661.025 282.266 660.985 282.256 660.955 282.256C660.905 282.246 660.855 282.246 660.795 282.236C660.768 282.237 660.741 282.233 660.715 282.226C660.495 282.206 660.275 282.176 660.045 282.156L659.295 282.066C659.045 282.036 658.795 281.996 658.545 281.966C658.485 281.956 658.435 281.956 658.375 281.946C658.195 281.926 658.015 281.896 657.835 281.866C657.745 281.856 657.655 281.846 657.575 281.836C657.395 281.806 657.225 281.786 657.045 281.756H657.035C651.548 280.966 646.131 279.745 640.835 278.106C640.555 278.016 640.275 277.936 639.995 277.846C639.985 277.846 639.975 277.836 639.965 277.836C639.885 277.806 639.795 277.786 639.715 277.756C638.965 277.516 638.225 277.266 637.485 277.006C636.465 276.666 635.455 276.296 634.445 275.916C634.175 275.806 633.905 275.706 633.635 275.596C633.085 275.386 632.545 275.166 632.005 274.946C631.085 274.576 630.165 274.186 629.255 273.786C628.405 273.406 627.565 273.026 626.725 272.626C626.705 272.616 626.675 272.616 626.655 272.596C626.465 272.506 626.275 272.416 626.095 272.326H626.085C621.48 270.116 617.039 267.579 612.795 264.736C611.435 263.826 610.095 262.886 608.775 261.916C607.715 261.126 606.675 260.326 605.635 259.506C600.505 255.425 595.755 250.886 591.445 245.946V245.936C591.135 245.596 590.845 245.246 590.545 244.896C590.495 244.846 590.455 244.796 590.415 244.756C590.225 244.526 590.045 244.306 589.855 244.086V244.076C589.605 243.786 589.355 243.486 589.115 243.186C589.055 243.116 589.005 243.056 588.955 242.996V242.986C588.755 242.746 588.565 242.506 588.365 242.256C588.265 242.136 588.175 242.016 588.075 241.896V241.886C587.485 241.146 586.915 240.406 586.345 239.646C586.195 239.446 586.045 239.236 585.885 239.026C585.165 238.056 584.465 237.066 583.785 236.076V236.066C583.525 235.696 583.275 235.316 583.015 234.946C582.765 234.566 582.515 234.186 582.265 233.806C582.015 233.406 581.755 233.016 581.505 232.616L581.475 232.556C581.225 232.176 580.975 231.776 580.735 231.386C580.545 231.066 580.355 230.756 580.165 230.446C580.045 230.236 579.915 230.026 579.795 229.806C579.748 229.738 579.705 229.668 579.665 229.596C579.385 229.106 579.105 228.616 578.825 228.126C578.495 227.556 578.175 226.976 577.855 226.396C577.735 226.156 577.605 225.916 577.475 225.676C577.425 225.596 577.385 225.516 577.345 225.436C577.195 225.156 577.045 224.866 576.905 224.576C576.755 224.296 576.605 224.006 576.455 223.716C576.315 223.436 576.165 223.146 576.025 222.856C575.915 222.636 575.815 222.416 575.705 222.196C575.698 222.178 575.688 222.161 575.675 222.146C575.625 222.036 575.575 221.936 575.535 221.836C575.523 221.82 575.513 221.804 575.505 221.786C575.395 221.566 575.295 221.336 575.185 221.116C575.045 220.826 574.915 220.526 574.775 220.236C574.685 220.036 574.585 219.826 574.495 219.616C574.365 219.326 574.225 219.036 574.105 218.736C573.965 218.436 573.835 218.136 573.705 217.826C573.668 217.751 573.635 217.674 573.605 217.596C573.535 217.456 573.485 217.316 573.425 217.176C573.265 216.806 573.105 216.426 572.955 216.056C572.775 215.636 572.605 215.206 572.445 214.786C572.285 214.396 572.135 213.996 571.985 213.596L571.925 213.456C569.595 207.319 567.828 200.983 566.645 194.526V194.516C565.978 190.829 565.501 187.111 565.215 183.376C565.205 183.166 565.185 182.966 565.175 182.766C564.995 180.236 564.915 177.696 564.915 175.146C564.915 174.016 564.935 172.896 564.965 171.776C565.663 148.352 574.016 125.802 588.745 107.576C589.065 107.176 589.385 106.776 589.715 106.376C590.045 105.976 590.385 105.586 590.715 105.196C601.678 92.3578 615.503 82.2754 631.077 75.7611C646.651 69.2469 663.538 66.4831 680.376 67.6927C697.214 68.9022 713.532 74.0512 728.015 82.7245C742.498 91.3978 754.741 103.353 763.755 117.626C764.245 118.406 764.735 119.196 765.205 119.986C765.685 120.786 766.145 121.586 766.605 122.396C775.665 138.499 780.411 156.669 780.385 175.146V175.146Z"/>
</mask>
<path d="M780.385 175.146C780.385 177.576 780.305 180.006 780.135 182.416C779.955 185.296 779.646 188.156 779.226 190.996C777.814 200.558 775.116 209.886 771.206 218.726C771.006 219.166 770.806 219.606 770.606 220.046L770.305 220.706C770.205 220.926 770.095 221.146 769.995 221.356C769.855 221.646 769.726 221.926 769.586 222.206C769.416 222.556 769.245 222.906 769.065 223.256C769.045 223.296 769.025 223.346 768.995 223.396C768.845 223.696 768.706 223.986 768.546 224.286C768.516 224.351 768.483 224.414 768.445 224.476C768.275 224.816 768.096 225.166 767.916 225.506C767.716 225.866 767.526 226.236 767.326 226.596C766.846 227.486 766.346 228.366 765.836 229.246C765.686 229.506 765.535 229.766 765.375 230.026C765.235 230.266 765.095 230.506 764.945 230.746C764.845 230.906 764.745 231.076 764.645 231.236C764.485 231.506 764.325 231.766 764.155 232.036C763.785 232.626 763.405 233.216 763.035 233.806H763.025C762.855 234.076 762.675 234.346 762.495 234.606V234.616C761.965 235.416 761.415 236.216 760.865 237.006C760.864 237.006 760.863 237.006 760.862 237.006C760.86 237.007 760.859 237.008 760.858 237.008C760.857 237.009 760.857 237.01 760.856 237.012C760.856 237.013 760.855 237.014 760.855 237.016C760.415 237.656 759.955 238.276 759.505 238.896V238.906C759.205 239.296 758.915 239.696 758.615 240.086C758.375 240.406 758.125 240.736 757.875 241.056C757.825 241.126 757.765 241.186 757.715 241.256V241.266C757.645 241.356 757.575 241.436 757.505 241.526C756.445 242.886 755.352 244.216 754.225 245.516L754.045 245.726C753.985 245.796 753.915 245.866 753.855 245.946C753.755 246.056 753.665 246.166 753.565 246.276C753.475 246.386 753.375 246.496 753.275 246.606C747.402 253.221 740.743 259.095 733.445 264.096C732.475 264.766 731.485 265.416 730.495 266.046C730.245 266.206 729.995 266.366 729.745 266.516C729.675 266.566 729.595 266.616 729.525 266.666C729.385 266.746 729.255 266.826 729.115 266.916C728.985 266.996 728.855 267.076 728.715 267.156C728.185 267.486 727.645 267.806 727.105 268.126C726.975 268.206 726.835 268.286 726.695 268.366C726.565 268.436 726.425 268.516 726.285 268.596C726.285 268.606 726.285 268.606 726.275 268.606H726.265V268.616H726.255C725.585 269.006 724.905 269.386 724.215 269.756C723.845 269.956 723.465 270.166 723.085 270.356C722.225 270.826 721.355 271.276 720.485 271.706C720.175 271.856 719.855 272.006 719.545 272.166C719.285 272.286 719.025 272.416 718.765 272.536C718.685 272.576 718.615 272.606 718.545 272.646C718.325 272.746 718.115 272.846 717.895 272.946C717.655 273.056 717.415 273.166 717.185 273.276C716.915 273.396 716.655 273.516 716.385 273.626C715.385 274.076 714.375 274.506 713.365 274.916C709.746 276.399 706.047 277.681 702.285 278.756C702.115 278.806 701.935 278.856 701.755 278.906C700.145 279.356 698.525 279.766 696.895 280.136C694.045 280.796 691.169 281.336 688.265 281.756H688.245C687.895 281.806 687.555 281.856 687.205 281.906C687.175 281.906 687.145 281.916 687.105 281.916C687.105 281.926 687.105 281.926 687.095 281.916C686.715 281.966 686.325 282.016 685.945 282.066C685.919 282.073 685.892 282.077 685.865 282.076C685.505 282.126 685.135 282.166 684.775 282.206C684.385 282.246 683.995 282.286 683.605 282.326C683.305 282.356 683.005 282.386 682.705 282.416C682.68 282.424 682.652 282.428 682.625 282.426C682.355 282.446 682.085 282.476 681.815 282.496H681.775C681.545 282.516 681.305 282.536 681.075 282.556C678.285 282.776 675.485 282.876 672.645 282.876C669.575 282.876 666.525 282.756 663.515 282.496H663.485C662.835 282.436 662.195 282.376 661.555 282.316C661.385 282.296 661.225 282.286 661.055 282.266C661.025 282.266 660.985 282.256 660.955 282.256C660.905 282.246 660.855 282.246 660.795 282.236C660.768 282.237 660.741 282.233 660.715 282.226C660.495 282.206 660.275 282.176 660.045 282.156L659.295 282.066C659.045 282.036 658.795 281.996 658.545 281.966C658.485 281.956 658.435 281.956 658.375 281.946C658.195 281.926 658.015 281.896 657.835 281.866C657.745 281.856 657.655 281.846 657.575 281.836C657.395 281.806 657.225 281.786 657.045 281.756H657.035C651.548 280.966 646.131 279.745 640.835 278.106C640.555 278.016 640.275 277.936 639.995 277.846C639.985 277.846 639.975 277.836 639.965 277.836C639.885 277.806 639.795 277.786 639.715 277.756C638.965 277.516 638.225 277.266 637.485 277.006C636.465 276.666 635.455 276.296 634.445 275.916C634.175 275.806 633.905 275.706 633.635 275.596C633.085 275.386 632.545 275.166 632.005 274.946C631.085 274.576 630.165 274.186 629.255 273.786C628.405 273.406 627.565 273.026 626.725 272.626C626.705 272.616 626.675 272.616 626.655 272.596C626.465 272.506 626.275 272.416 626.095 272.326H626.085C621.48 270.116 617.039 267.579 612.795 264.736C611.435 263.826 610.095 262.886 608.775 261.916C607.715 261.126 606.675 260.326 605.635 259.506C600.505 255.425 595.755 250.886 591.445 245.946V245.936C591.135 245.596 590.845 245.246 590.545 244.896C590.495 244.846 590.455 244.796 590.415 244.756C590.225 244.526 590.045 244.306 589.855 244.086V244.076C589.605 243.786 589.355 243.486 589.115 243.186C589.055 243.116 589.005 243.056 588.955 242.996V242.986C588.755 242.746 588.565 242.506 588.365 242.256C588.265 242.136 588.175 242.016 588.075 241.896V241.886C587.485 241.146 586.915 240.406 586.345 239.646C586.195 239.446 586.045 239.236 585.885 239.026C585.165 238.056 584.465 237.066 583.785 236.076V236.066C583.525 235.696 583.275 235.316 583.015 234.946C582.765 234.566 582.515 234.186 582.265 233.806C582.015 233.406 581.755 233.016 581.505 232.616L581.475 232.556C581.225 232.176 580.975 231.776 580.735 231.386C580.545 231.066 580.355 230.756 580.165 230.446C580.045 230.236 579.915 230.026 579.795 229.806C579.748 229.738 579.705 229.668 579.665 229.596C579.385 229.106 579.105 228.616 578.825 228.126C578.495 227.556 578.175 226.976 577.855 226.396C577.735 226.156 577.605 225.916 577.475 225.676C577.425 225.596 577.385 225.516 577.345 225.436C577.195 225.156 577.045 224.866 576.905 224.576C576.755 224.296 576.605 224.006 576.455 223.716C576.315 223.436 576.165 223.146 576.025 222.856C575.915 222.636 575.815 222.416 575.705 222.196C575.698 222.178 575.688 222.161 575.675 222.146C575.625 222.036 575.575 221.936 575.535 221.836C575.523 221.82 575.513 221.804 575.505 221.786C575.395 221.566 575.295 221.336 575.185 221.116C575.045 220.826 574.915 220.526 574.775 220.236C574.685 220.036 574.585 219.826 574.495 219.616C574.365 219.326 574.225 219.036 574.105 218.736C573.965 218.436 573.835 218.136 573.705 217.826C573.668 217.751 573.635 217.674 573.605 217.596C573.535 217.456 573.485 217.316 573.425 217.176C573.265 216.806 573.105 216.426 572.955 216.056C572.775 215.636 572.605 215.206 572.445 214.786C572.285 214.396 572.135 213.996 571.985 213.596L571.925 213.456C569.595 207.319 567.828 200.983 566.645 194.526V194.516C565.978 190.829 565.501 187.111 565.215 183.376C565.205 183.166 565.185 182.966 565.175 182.766C564.995 180.236 564.915 177.696 564.915 175.146C564.915 174.016 564.935 172.896 564.965 171.776C565.663 148.352 574.016 125.802 588.745 107.576C589.065 107.176 589.385 106.776 589.715 106.376C590.045 105.976 590.385 105.586 590.715 105.196C601.678 92.3578 615.503 82.2754 631.077 75.7611C646.651 69.2469 663.538 66.4831 680.376 67.6927C697.214 68.9022 713.532 74.0512 728.015 82.7245C742.498 91.3978 754.741 103.353 763.755 117.626C764.245 118.406 764.735 119.196 765.205 119.986C765.685 120.786 766.145 121.586 766.605 122.396C775.665 138.499 780.411 156.669 780.385 175.146V175.146Z" fill="#F2F2F2" stroke="#232946" stroke-width="14" mask="url(#path-46-inside-2_3_422)"/>
<path d="M715.042 116.034C715.121 116.02 715.2 116.009 715.279 115.995C714.948 115.79 714.636 115.555 714.348 115.294L715.042 116.034Z" fill="white"/>
<path d="M660.5 222.287C678.371 222.287 692.859 207.477 692.859 189.207C692.859 170.938 678.371 156.128 660.5 156.128C642.629 156.128 628.142 170.938 628.142 189.207C628.142 207.477 642.629 222.287 660.5 222.287Z" fill="#FFB6B6"/>
<path d="M723.085 270.356C722.225 270.826 721.355 271.276 720.485 271.706C720.175 271.856 719.855 272.006 719.545 272.166C719.285 272.286 719.025 272.416 718.765 272.536C718.685 272.576 718.615 272.606 718.545 272.646C718.325 272.746 718.115 272.846 717.895 272.946C717.655 273.056 717.415 273.166 717.185 273.276C716.915 273.396 716.655 273.516 716.385 273.626C715.385 274.076 714.375 274.506 713.365 274.916C709.746 276.399 706.047 277.681 702.285 278.756C702.115 278.806 701.935 278.856 701.755 278.906C700.145 279.356 698.525 279.766 696.895 280.136C694.045 280.796 691.169 281.336 688.265 281.756H688.245C687.895 281.806 687.555 281.856 687.205 281.906C687.175 281.906 687.145 281.916 687.105 281.916C687.105 281.926 687.105 281.926 687.095 281.916C686.715 281.966 686.325 282.016 685.945 282.066C685.919 282.073 685.892 282.077 685.865 282.076C685.505 282.126 685.135 282.166 684.775 282.206C684.385 282.246 683.995 282.286 683.605 282.326C683.305 282.356 683.005 282.386 682.705 282.416C682.68 282.425 682.652 282.428 682.625 282.426C682.355 282.446 682.085 282.476 681.815 282.496H681.775C681.545 282.516 681.305 282.536 681.075 282.556C678.285 282.776 675.485 282.876 672.645 282.876C669.575 282.876 666.525 282.756 663.515 282.496H663.485C662.835 282.436 662.195 282.376 661.555 282.316C661.385 282.296 661.225 282.286 661.055 282.266C661.025 282.266 660.985 282.256 660.955 282.256C660.905 282.246 660.855 282.246 660.795 282.236C660.768 282.237 660.741 282.233 660.715 282.226C660.495 282.206 660.275 282.176 660.045 282.156L659.295 282.066C659.045 282.036 658.795 281.996 658.545 281.966C658.485 281.956 658.435 281.956 658.375 281.946C658.195 281.926 658.015 281.896 657.835 281.866C657.745 281.856 657.655 281.846 657.575 281.836C657.395 281.806 657.225 281.786 657.045 281.756H657.035C651.548 280.966 646.131 279.745 640.835 278.106C640.555 278.016 640.275 277.936 639.995 277.846C641.287 271.824 643.945 266.18 647.765 261.349C651.584 256.518 656.464 252.63 662.025 249.986C660.65 248.675 659.699 246.982 659.295 245.126C659.036 243.929 659.015 242.693 659.235 241.488C659.454 240.283 659.91 239.134 660.575 238.106C661.873 236.113 663.909 234.717 666.235 234.226L681.055 231.126C683.441 230.661 685.914 231.156 687.936 232.504C689.959 233.853 691.367 235.945 691.855 238.326C692.007 239.056 692.074 239.801 692.055 240.546C706.325 250.046 716.595 259.896 723.085 270.356Z" fill="#D4939D"/>
<path d="M747.088 174.861C741.588 168.447 738.973 159.937 734.576 152.653C730.179 145.369 722.527 138.85 714.443 140.545C708.871 141.714 704.565 146.631 702.384 152.113C700.205 157.595 699.796 163.641 699.414 169.563C699.549 157.392 691.53 145.593 680.484 141.709C669.439 137.826 656.22 142.158 649.279 151.936C646.25 149.128 642.297 147.53 638.168 147.443C634.039 147.357 630.022 148.788 626.878 151.466C620.669 157.014 619.295 167.575 623.861 174.653C628.427 181.73 638.315 184.367 645.571 180.442L648.136 182.801C646.692 187.852 649.492 193.817 654.199 195.718C658.016 197.26 663.404 197.003 664.833 201.009C665.831 203.807 663.965 206.795 661.981 208.945C659.997 211.096 657.641 213.317 657.402 216.293C657.042 220.784 661.683 223.929 665.901 224.876C676.072 227.161 687.358 222.451 693.221 213.474C693.334 213.301 693.457 213.128 693.589 212.954C696.878 208.748 699.275 203.916 700.634 198.752C701.992 193.588 702.283 188.201 701.49 182.921C701.16 180.846 701.492 179.303 702.923 178.812C709.105 176.688 726.427 181.145 731.669 185.174C736.912 189.202 741.11 194.533 746.159 198.822C751.209 203.11 757.644 206.418 764.055 205.25C769.19 204.315 773.559 200.587 776.497 196.09C779.435 191.593 781.126 186.352 782.641 181.143C771.286 187.702 755.746 184.956 747.088 174.861Z" fill="#2F2E41"/>
<mask id="path-51-inside-3_3_422" fill="white">
<path d="M82.8255 108.146C82.8255 110.576 82.9055 113.006 83.0755 115.416C83.2555 118.296 83.5655 121.156 83.9855 123.996C85.397 133.558 88.0948 142.886 92.0055 151.726C92.2055 152.166 92.4055 152.606 92.6055 153.046L92.9055 153.706C93.0055 153.926 93.1155 154.146 93.2155 154.356C93.3555 154.646 93.4855 154.926 93.6255 155.206C93.7955 155.556 93.9655 155.906 94.1455 156.256C94.1655 156.296 94.1855 156.346 94.2155 156.396C94.3655 156.696 94.5055 156.986 94.6655 157.286C94.6949 157.351 94.7283 157.414 94.7655 157.476C94.9355 157.816 95.1155 158.166 95.2955 158.506C95.4955 158.866 95.6855 159.236 95.8855 159.596C96.3655 160.486 96.8655 161.366 97.3755 162.246C97.5255 162.506 97.6755 162.766 97.8355 163.026C97.9755 163.266 98.1155 163.506 98.2655 163.746C98.3655 163.906 98.4655 164.076 98.5655 164.236C98.7255 164.506 98.8855 164.766 99.0555 165.036C99.4255 165.626 99.8055 166.216 100.176 166.806H100.186C100.356 167.076 100.536 167.346 100.716 167.606V167.616C101.246 168.416 101.796 169.216 102.346 170.006C102.347 170.006 102.348 170.006 102.349 170.006C102.351 170.007 102.352 170.008 102.353 170.008C102.354 170.009 102.354 170.01 102.355 170.012C102.355 170.013 102.356 170.014 102.356 170.016C102.796 170.656 103.256 171.276 103.706 171.896V171.906C104.006 172.296 104.296 172.696 104.596 173.086C104.836 173.406 105.086 173.736 105.336 174.056C105.386 174.125 105.446 174.186 105.496 174.256V174.266C105.566 174.356 105.636 174.436 105.706 174.526C106.766 175.886 107.859 177.216 108.986 178.516L109.166 178.726C109.226 178.796 109.296 178.866 109.356 178.946C109.456 179.056 109.546 179.166 109.646 179.276C109.736 179.386 109.836 179.496 109.936 179.606C115.809 186.221 122.468 192.095 129.766 197.096C130.736 197.766 131.726 198.416 132.716 199.046C132.966 199.206 133.216 199.366 133.466 199.516C133.536 199.566 133.616 199.616 133.686 199.666C133.826 199.746 133.956 199.826 134.096 199.916C134.226 199.996 134.356 200.076 134.496 200.156C135.026 200.486 135.566 200.806 136.106 201.126C136.236 201.206 136.376 201.286 136.516 201.366C136.646 201.436 136.786 201.516 136.926 201.596C136.926 201.606 136.926 201.606 136.936 201.606H136.946V201.616H136.956C137.626 202.006 138.306 202.386 138.996 202.756C139.366 202.956 139.746 203.166 140.126 203.356C140.986 203.826 141.856 204.276 142.726 204.706C143.036 204.856 143.356 205.006 143.666 205.166C143.926 205.286 144.186 205.416 144.446 205.536C144.526 205.576 144.596 205.606 144.666 205.646C144.886 205.746 145.096 205.846 145.316 205.946C145.556 206.056 145.796 206.166 146.026 206.276C146.296 206.396 146.556 206.516 146.826 206.626C147.826 207.076 148.836 207.506 149.846 207.916C153.465 209.399 157.164 210.681 160.926 211.756C161.096 211.806 161.276 211.856 161.456 211.906C163.066 212.356 164.686 212.766 166.316 213.136C169.166 213.796 172.042 214.336 174.946 214.756H174.966C175.316 214.806 175.656 214.856 176.006 214.906C176.036 214.906 176.066 214.916 176.106 214.916C176.106 214.926 176.106 214.926 176.116 214.916C176.496 214.966 176.886 215.016 177.266 215.066C177.292 215.073 177.319 215.077 177.346 215.076C177.706 215.126 178.076 215.166 178.436 215.206C178.826 215.246 179.216 215.286 179.606 215.326C179.906 215.356 180.206 215.386 180.506 215.416C180.531 215.424 180.559 215.428 180.586 215.426C180.856 215.446 181.126 215.476 181.396 215.496H181.436C181.666 215.516 181.906 215.536 182.136 215.556C184.926 215.776 187.726 215.876 190.566 215.876C193.636 215.876 196.686 215.756 199.696 215.496H199.726C200.376 215.436 201.016 215.376 201.656 215.316C201.826 215.296 201.986 215.286 202.156 215.266C202.186 215.266 202.226 215.256 202.256 215.256C202.306 215.246 202.356 215.246 202.416 215.236C202.443 215.237 202.47 215.233 202.496 215.226C202.716 215.206 202.936 215.176 203.166 215.156L203.916 215.066C204.166 215.036 204.416 214.996 204.666 214.966C204.726 214.956 204.776 214.956 204.836 214.946C205.016 214.926 205.196 214.896 205.376 214.866C205.466 214.856 205.556 214.846 205.636 214.836C205.816 214.806 205.986 214.786 206.166 214.756H206.176C211.663 213.966 217.08 212.745 222.376 211.106C222.656 211.016 222.936 210.936 223.216 210.846C223.226 210.846 223.236 210.836 223.246 210.836C223.326 210.806 223.416 210.786 223.496 210.756C224.246 210.516 224.986 210.266 225.726 210.006C226.746 209.666 227.756 209.296 228.766 208.916C229.036 208.806 229.306 208.706 229.576 208.596C230.126 208.386 230.666 208.166 231.206 207.946C232.126 207.576 233.046 207.186 233.956 206.786C234.806 206.406 235.646 206.026 236.486 205.626C236.506 205.616 236.536 205.616 236.556 205.596C236.746 205.506 236.936 205.416 237.116 205.326H237.126C241.731 203.116 246.172 200.579 250.416 197.736C251.776 196.826 253.116 195.886 254.436 194.916C255.496 194.126 256.536 193.326 257.576 192.506C262.706 188.425 267.456 183.886 271.766 178.946V178.936C272.076 178.596 272.366 178.246 272.666 177.896C272.716 177.846 272.756 177.796 272.796 177.756C272.986 177.526 273.166 177.306 273.356 177.086V177.076C273.606 176.786 273.856 176.486 274.096 176.186C274.156 176.116 274.206 176.056 274.256 175.996V175.986C274.456 175.746 274.646 175.506 274.846 175.256C274.946 175.136 275.036 175.016 275.136 174.896V174.886C275.726 174.146 276.296 173.406 276.866 172.646C277.016 172.446 277.166 172.236 277.326 172.026C278.046 171.056 278.746 170.066 279.426 169.076V169.066C279.686 168.696 279.936 168.316 280.196 167.946C280.446 167.566 280.696 167.186 280.946 166.806C281.196 166.406 281.456 166.016 281.706 165.616L281.736 165.556C281.986 165.176 282.236 164.776 282.476 164.386C282.666 164.066 282.856 163.756 283.046 163.446C283.166 163.236 283.296 163.026 283.416 162.806C283.462 162.738 283.506 162.668 283.546 162.596C283.826 162.106 284.106 161.616 284.386 161.126C284.716 160.556 285.036 159.976 285.356 159.396C285.476 159.156 285.606 158.916 285.736 158.676C285.786 158.596 285.826 158.516 285.866 158.436C286.016 158.156 286.166 157.866 286.306 157.576C286.456 157.296 286.606 157.006 286.756 156.716C286.896 156.436 287.046 156.146 287.186 155.856C287.296 155.636 287.396 155.416 287.506 155.196C287.513 155.178 287.523 155.161 287.536 155.146C287.586 155.036 287.636 154.936 287.676 154.836C287.688 154.82 287.698 154.804 287.706 154.786C287.816 154.566 287.916 154.336 288.026 154.116C288.166 153.826 288.296 153.526 288.436 153.236C288.526 153.036 288.626 152.826 288.716 152.616C288.846 152.326 288.986 152.036 289.106 151.736C289.246 151.436 289.376 151.136 289.506 150.826C289.543 150.751 289.576 150.674 289.606 150.596C289.676 150.456 289.726 150.316 289.786 150.176C289.946 149.806 290.106 149.426 290.256 149.056C290.436 148.636 290.606 148.206 290.766 147.786C290.926 147.396 291.076 146.996 291.226 146.596L291.286 146.456C293.616 140.319 295.383 133.983 296.566 127.526V127.516C297.233 123.829 297.71 120.111 297.996 116.376C298.006 116.166 298.026 115.966 298.036 115.766C298.216 113.236 298.296 110.696 298.296 108.146C298.296 107.016 298.276 105.896 298.246 104.776C297.548 81.352 289.195 58.802 274.466 40.5757C274.146 40.1757 273.826 39.7756 273.496 39.3756C273.166 38.9756 272.826 38.5857 272.496 38.1957C261.533 25.3578 247.708 15.2754 232.134 8.76112C216.56 2.24687 199.673 -0.516879 182.835 0.692651C165.997 1.90218 149.679 7.05114 135.196 15.7245C120.713 24.3978 108.47 36.3528 99.4556 50.6256C98.9656 51.4056 98.4756 52.1957 98.0056 52.9857C97.5256 53.7857 97.0656 54.5857 96.6056 55.3957C87.5462 71.4989 82.7996 89.669 82.8255 108.146V108.146Z"/>
</mask>
<path d="M82.8255 108.146C82.8255 110.576 82.9055 113.006 83.0755 115.416C83.2555 118.296 83.5655 121.156 83.9855 123.996C85.397 133.558 88.0948 142.886 92.0055 151.726C92.2055 152.166 92.4055 152.606 92.6055 153.046L92.9055 153.706C93.0055 153.926 93.1155 154.146 93.2155 154.356C93.3555 154.646 93.4855 154.926 93.6255 155.206C93.7955 155.556 93.9655 155.906 94.1455 156.256C94.1655 156.296 94.1855 156.346 94.2155 156.396C94.3655 156.696 94.5055 156.986 94.6655 157.286C94.6949 157.351 94.7283 157.414 94.7655 157.476C94.9355 157.816 95.1155 158.166 95.2955 158.506C95.4955 158.866 95.6855 159.236 95.8855 159.596C96.3655 160.486 96.8655 161.366 97.3755 162.246C97.5255 162.506 97.6755 162.766 97.8355 163.026C97.9755 163.266 98.1155 163.506 98.2655 163.746C98.3655 163.906 98.4655 164.076 98.5655 164.236C98.7255 164.506 98.8855 164.766 99.0555 165.036C99.4255 165.626 99.8055 166.216 100.176 166.806H100.186C100.356 167.076 100.536 167.346 100.716 167.606V167.616C101.246 168.416 101.796 169.216 102.346 170.006C102.347 170.006 102.348 170.006 102.349 170.006C102.351 170.007 102.352 170.008 102.353 170.008C102.354 170.009 102.354 170.01 102.355 170.012C102.355 170.013 102.356 170.014 102.356 170.016C102.796 170.656 103.256 171.276 103.706 171.896V171.906C104.006 172.296 104.296 172.696 104.596 173.086C104.836 173.406 105.086 173.736 105.336 174.056C105.386 174.125 105.446 174.186 105.496 174.256V174.266C105.566 174.356 105.636 174.436 105.706 174.526C106.766 175.886 107.859 177.216 108.986 178.516L109.166 178.726C109.226 178.796 109.296 178.866 109.356 178.946C109.456 179.056 109.546 179.166 109.646 179.276C109.736 179.386 109.836 179.496 109.936 179.606C115.809 186.221 122.468 192.095 129.766 197.096C130.736 197.766 131.726 198.416 132.716 199.046C132.966 199.206 133.216 199.366 133.466 199.516C133.536 199.566 133.616 199.616 133.686 199.666C133.826 199.746 133.956 199.826 134.096 199.916C134.226 199.996 134.356 200.076 134.496 200.156C135.026 200.486 135.566 200.806 136.106 201.126C136.236 201.206 136.376 201.286 136.516 201.366C136.646 201.436 136.786 201.516 136.926 201.596C136.926 201.606 136.926 201.606 136.936 201.606H136.946V201.616H136.956C137.626 202.006 138.306 202.386 138.996 202.756C139.366 202.956 139.746 203.166 140.126 203.356C140.986 203.826 141.856 204.276 142.726 204.706C143.036 204.856 143.356 205.006 143.666 205.166C143.926 205.286 144.186 205.416 144.446 205.536C144.526 205.576 144.596 205.606 144.666 205.646C144.886 205.746 145.096 205.846 145.316 205.946C145.556 206.056 145.796 206.166 146.026 206.276C146.296 206.396 146.556 206.516 146.826 206.626C147.826 207.076 148.836 207.506 149.846 207.916C153.465 209.399 157.164 210.681 160.926 211.756C161.096 211.806 161.276 211.856 161.456 211.906C163.066 212.356 164.686 212.766 166.316 213.136C169.166 213.796 172.042 214.336 174.946 214.756H174.966C175.316 214.806 175.656 214.856 176.006 214.906C176.036 214.906 176.066 214.916 176.106 214.916C176.106 214.926 176.106 214.926 176.116 214.916C176.496 214.966 176.886 215.016 177.266 215.066C177.292 215.073 177.319 215.077 177.346 215.076C177.706 215.126 178.076 215.166 178.436 215.206C178.826 215.246 179.216 215.286 179.606 215.326C179.906 215.356 180.206 215.386 180.506 215.416C180.531 215.424 180.559 215.428 180.586 215.426C180.856 215.446 181.126 215.476 181.396 215.496H181.436C181.666 215.516 181.906 215.536 182.136 215.556C184.926 215.776 187.726 215.876 190.566 215.876C193.636 215.876 196.686 215.756 199.696 215.496H199.726C200.376 215.436 201.016 215.376 201.656 215.316C201.826 215.296 201.986 215.286 202.156 215.266C202.186 215.266 202.226 215.256 202.256 215.256C202.306 215.246 202.356 215.246 202.416 215.236C202.443 215.237 202.47 215.233 202.496 215.226C202.716 215.206 202.936 215.176 203.166 215.156L203.916 215.066C204.166 215.036 204.416 214.996 204.666 214.966C204.726 214.956 204.776 214.956 204.836 214.946C205.016 214.926 205.196 214.896 205.376 214.866C205.466 214.856 205.556 214.846 205.636 214.836C205.816 214.806 205.986 214.786 206.166 214.756H206.176C211.663 213.966 217.08 212.745 222.376 211.106C222.656 211.016 222.936 210.936 223.216 210.846C223.226 210.846 223.236 210.836 223.246 210.836C223.326 210.806 223.416 210.786 223.496 210.756C224.246 210.516 224.986 210.266 225.726 210.006C226.746 209.666 227.756 209.296 228.766 208.916C229.036 208.806 229.306 208.706 229.576 208.596C230.126 208.386 230.666 208.166 231.206 207.946C232.126 207.576 233.046 207.186 233.956 206.786C234.806 206.406 235.646 206.026 236.486 205.626C236.506 205.616 236.536 205.616 236.556 205.596C236.746 205.506 236.936 205.416 237.116 205.326H237.126C241.731 203.116 246.172 200.579 250.416 197.736C251.776 196.826 253.116 195.886 254.436 194.916C255.496 194.126 256.536 193.326 257.576 192.506C262.706 188.425 267.456 183.886 271.766 178.946V178.936C272.076 178.596 272.366 178.246 272.666 177.896C272.716 177.846 272.756 177.796 272.796 177.756C272.986 177.526 273.166 177.306 273.356 177.086V177.076C273.606 176.786 273.856 176.486 274.096 176.186C274.156 176.116 274.206 176.056 274.256 175.996V175.986C274.456 175.746 274.646 175.506 274.846 175.256C274.946 175.136 275.036 175.016 275.136 174.896V174.886C275.726 174.146 276.296 173.406 276.866 172.646C277.016 172.446 277.166 172.236 277.326 172.026C278.046 171.056 278.746 170.066 279.426 169.076V169.066C279.686 168.696 279.936 168.316 280.196 167.946C280.446 167.566 280.696 167.186 280.946 166.806C281.196 166.406 281.456 166.016 281.706 165.616L281.736 165.556C281.986 165.176 282.236 164.776 282.476 164.386C282.666 164.066 282.856 163.756 283.046 163.446C283.166 163.236 283.296 163.026 283.416 162.806C283.462 162.738 283.506 162.668 283.546 162.596C283.826 162.106 284.106 161.616 284.386 161.126C284.716 160.556 285.036 159.976 285.356 159.396C285.476 159.156 285.606 158.916 285.736 158.676C285.786 158.596 285.826 158.516 285.866 158.436C286.016 158.156 286.166 157.866 286.306 157.576C286.456 157.296 286.606 157.006 286.756 156.716C286.896 156.436 287.046 156.146 287.186 155.856C287.296 155.636 287.396 155.416 287.506 155.196C287.513 155.178 287.523 155.161 287.536 155.146C287.586 155.036 287.636 154.936 287.676 154.836C287.688 154.82 287.698 154.804 287.706 154.786C287.816 154.566 287.916 154.336 288.026 154.116C288.166 153.826 288.296 153.526 288.436 153.236C288.526 153.036 288.626 152.826 288.716 152.616C288.846 152.326 288.986 152.036 289.106 151.736C289.246 151.436 289.376 151.136 289.506 150.826C289.543 150.751 289.576 150.674 289.606 150.596C289.676 150.456 289.726 150.316 289.786 150.176C289.946 149.806 290.106 149.426 290.256 149.056C290.436 148.636 290.606 148.206 290.766 147.786C290.926 147.396 291.076 146.996 291.226 146.596L291.286 146.456C293.616 140.319 295.383 133.983 296.566 127.526V127.516C297.233 123.829 297.71 120.111 297.996 116.376C298.006 116.166 298.026 115.966 298.036 115.766C298.216 113.236 298.296 110.696 298.296 108.146C298.296 107.016 298.276 105.896 298.246 104.776C297.548 81.352 289.195 58.802 274.466 40.5757C274.146 40.1757 273.826 39.7756 273.496 39.3756C273.166 38.9756 272.826 38.5857 272.496 38.1957C261.533 25.3578 247.708 15.2754 232.134 8.76112C216.56 2.24687 199.673 -0.516879 182.835 0.692651C165.997 1.90218 149.679 7.05114 135.196 15.7245C120.713 24.3978 108.47 36.3528 99.4556 50.6256C98.9656 51.4056 98.4756 52.1957 98.0056 52.9857C97.5256 53.7857 97.0656 54.5857 96.6056 55.3957C87.5462 71.4989 82.7996 89.669 82.8255 108.146V108.146Z" fill="#F2F2F2" stroke="#232946" stroke-width="14" mask="url(#path-51-inside-3_3_422)"/>
<path d="M148.169 49.0342C148.09 49.0198 148.011 49.0086 147.932 48.995C148.263 48.7899 148.575 48.5552 148.863 48.2937L148.169 49.0342Z" fill="white"/>
<path d="M140.125 203.356C140.985 203.826 141.855 204.276 142.725 204.706C143.035 204.856 143.355 205.006 143.665 205.166C143.925 205.286 144.185 205.416 144.445 205.536C144.525 205.576 144.595 205.606 144.665 205.646C144.885 205.746 145.095 205.846 145.315 205.946C145.555 206.056 145.796 206.166 146.026 206.276C146.296 206.396 146.556 206.516 146.826 206.626C147.826 207.076 148.835 207.506 149.845 207.916C153.465 209.399 157.164 210.681 160.926 211.756C161.096 211.806 161.276 211.856 161.456 211.906C163.066 212.356 164.686 212.766 166.316 213.136C169.166 213.796 172.042 214.336 174.946 214.756H174.966C175.316 214.806 175.656 214.856 176.006 214.906C176.036 214.906 176.066 214.916 176.106 214.916C176.106 214.926 176.106 214.926 176.116 214.916C176.496 214.966 176.886 215.016 177.266 215.066C177.291 215.073 177.319 215.077 177.346 215.076C177.706 215.126 178.076 215.166 178.436 215.206C178.826 215.246 179.216 215.286 179.606 215.326C179.906 215.356 180.206 215.386 180.506 215.416C180.531 215.425 180.558 215.428 180.586 215.426C180.856 215.446 181.126 215.476 181.396 215.496H181.436C181.666 215.516 181.906 215.536 182.136 215.556C184.926 215.776 187.726 215.876 190.566 215.876C193.636 215.876 196.686 215.756 199.696 215.496H199.726C200.376 215.436 201.016 215.376 201.656 215.316C201.826 215.296 201.986 215.286 202.156 215.266C202.186 215.266 202.226 215.256 202.256 215.256C202.306 215.246 202.356 215.246 202.416 215.236C202.443 215.237 202.47 215.233 202.496 215.226C202.716 215.206 202.936 215.176 203.166 215.156L203.916 215.066C204.166 215.036 204.416 214.996 204.666 214.966C204.726 214.956 204.776 214.956 204.836 214.946C205.016 214.926 205.196 214.896 205.376 214.866C205.466 214.856 205.556 214.846 205.636 214.836C205.816 214.806 205.986 214.786 206.166 214.756H206.176C211.663 213.966 217.08 212.745 222.376 211.106C222.656 211.016 222.936 210.936 223.216 210.846C221.924 204.824 219.266 199.18 215.446 194.349C211.626 189.518 206.747 185.63 201.186 182.986C202.561 181.675 203.512 179.982 203.916 178.126C204.175 176.929 204.196 175.693 203.976 174.488C203.756 173.283 203.301 172.134 202.636 171.106C201.338 169.113 199.302 167.718 196.976 167.226L182.156 164.126C179.77 163.661 177.297 164.156 175.275 165.504C173.252 166.853 171.844 168.945 171.356 171.326C171.204 172.056 171.137 172.801 171.156 173.546C156.886 183.046 146.615 192.896 140.125 203.356Z" fill="#D4939D"/>
<path d="M198.754 154.122C218.677 154.122 234.827 137.971 234.827 118.049C234.827 98.1261 218.677 81.9756 198.754 81.9756C178.831 81.9756 162.681 98.1261 162.681 118.049C162.681 137.971 178.831 154.122 198.754 154.122Z" fill="#9E616A"/>
<path d="M193.628 152.194C184.597 154.633 174.641 151.39 167.593 145.239C160.545 139.088 156.137 130.372 153.596 121.369C151.736 114.776 150.854 107.456 153.79 101.266C156.726 95.0762 164.627 90.8999 170.723 94.0267C166.962 89.6454 168.841 82.399 173.233 78.6509C177.625 74.9029 183.656 73.8283 189.4 73.2409C197.736 72.3885 206.346 72.293 214.278 74.9936C222.211 77.6942 229.418 83.5985 231.9 91.6017C234.436 92.7823 237.291 93.0885 240.02 92.4726C242.748 91.8566 245.195 90.3532 246.977 88.1977C247.437 90.6732 247.068 93.2312 245.927 95.4758C244.786 97.7205 242.938 99.5266 240.667 100.615L252.821 96.6745C254.911 101.099 251.249 106.575 246.565 107.991C241.882 109.408 236.826 107.86 232.381 105.813C227.937 103.766 223.63 101.178 218.802 100.38C213.975 99.5814 208.304 101.133 206.071 105.486C204.901 107.767 204.84 110.438 204.161 112.909C203.482 115.38 201.762 117.942 199.207 118.145C197.593 118.272 196.012 117.413 194.403 117.588C193.415 117.783 192.505 118.261 191.785 118.965C191.065 119.669 190.566 120.567 190.348 121.55C189.948 123.523 189.943 125.555 190.334 127.53L193.421 151.128L193.628 152.194Z" fill="#2F2E41"/>
</svg>
