<svg width="588" height="467" viewBox="0 0 588 467" fill="none" xmlns="http://www.w3.org/2000/svg">
<g clip-path="url(#clip0_3_275)">
<path d="M394.6 111.928C387.029 71.4075 398.949 25.309 432.079 0.782227C430.201 45.5698 444.226 89.5779 471.672 125.02C482.306 138.651 495.553 152.704 495.142 169.987C494.886 180.741 489.07 190.759 481.406 198.307C473.741 205.854 464.3 211.296 454.971 216.653L453.519 218.912C426.173 188.067 402.171 152.448 394.6 111.928Z" fill="#EEBBC3"/>
<path d="M432.682 1.40164C418.763 32.5529 415.014 67.298 421.966 100.702C423.499 107.849 425.676 114.966 429.368 121.316C433.015 127.478 438.245 132.551 444.515 136.007C450.297 139.348 456.597 142.096 461.466 146.784C466.598 151.725 468.884 158.469 468.693 165.515C468.46 174.137 465.143 182.16 461.626 189.893C457.722 198.48 453.531 207.337 453.784 216.99C453.815 218.16 451.998 218.139 451.967 216.971C451.527 200.176 463.67 186.687 466.375 170.571C467.638 163.051 466.642 155.105 461.355 149.276C456.731 144.178 450.236 141.339 444.353 138.007C438.176 134.509 432.917 130.186 429.008 124.194C425.009 118.064 422.549 111.017 420.84 103.941C417.084 87.8643 415.88 71.2975 417.271 54.8471C418.753 36.0635 423.439 17.672 431.123 0.468306C431.599 -0.596294 433.155 0.34399 432.682 1.40164H432.682Z" fill="white"/>
<path d="M419.094 90.0776C413.332 90.4832 407.612 88.8272 402.958 85.4052C398.303 81.9832 395.017 77.0182 393.685 71.3967C393.42 70.2584 395.176 69.7923 395.442 70.9321C396.672 76.1691 399.734 80.7938 404.075 83.9714C408.416 87.1491 413.749 88.6705 419.113 88.2609C420.279 88.1733 420.253 89.9905 419.094 90.0776V90.0776Z" fill="white"/>
<path d="M441.361 134.7C449.184 125.853 453.385 114.383 453.127 102.577C453.1 101.407 454.917 101.427 454.943 102.595C455.189 114.882 450.793 126.81 442.632 135.998C441.853 136.873 440.586 135.57 441.361 134.7V134.7Z" fill="white"/>
<path d="M420.882 37.1917C423.144 37.4993 425.448 37.2403 427.585 36.4377C429.723 35.6352 431.628 34.3143 433.129 32.5937C433.896 31.709 435.162 33.0128 434.4 33.8917C432.733 35.785 430.627 37.2412 428.267 38.1331C425.908 39.025 423.366 39.3255 420.863 39.0083C420.625 38.9981 420.399 38.8976 420.232 38.7271C420.065 38.5566 419.969 38.329 419.964 38.0904C419.968 37.8499 420.066 37.6206 420.238 37.4523C420.41 37.284 420.641 37.1903 420.882 37.1916V37.1917Z" fill="white"/>
<path d="M567.562 34.2984C567.098 34.8644 566.635 35.4304 566.176 36.0113C559.988 43.6531 554.431 51.7851 549.559 60.3269C549.172 60.9813 548.79 61.6504 548.422 62.3146C536.906 83.0188 529.333 105.681 526.09 129.15C524.808 138.49 524.238 147.914 524.386 157.34C524.59 170.358 525.848 184.457 521.858 196.43C521.455 197.684 520.976 198.912 520.421 200.106L456.387 220.508C456.219 220.481 456.054 220.469 455.884 220.443L453.365 221.374C453.323 220.889 453.291 220.384 453.249 219.899C453.224 219.617 453.213 219.331 453.187 219.049C453.175 218.86 453.163 218.671 453.142 218.501C453.137 218.438 453.133 218.374 453.134 218.326C453.112 218.156 453.11 217.996 453.092 217.84C452.902 215.02 452.726 212.196 452.579 209.362C452.575 209.347 452.575 209.347 452.584 209.328C451.485 187.744 452.178 165.879 456.168 144.813C456.289 144.18 456.403 143.531 456.553 142.888C458.404 133.403 461.027 124.085 464.397 115.027C466.258 110.073 468.368 105.217 470.72 100.476C476.82 88.2395 484.808 77.0383 494.389 67.2835C513.492 47.8401 538.601 34.7228 565.506 34.3097C566.194 34.2997 566.869 34.2938 567.562 34.2984Z" fill="#EEBBC3"/>
<path d="M567.677 35.157C537.808 51.6494 513.895 77.1338 499.335 107.99C496.255 114.62 493.709 121.613 492.834 128.906C492.036 136.022 493.157 143.221 496.082 149.756C498.687 155.905 502.064 161.892 503.129 168.566C504.251 175.601 502.016 182.362 497.621 187.873C492.244 194.617 484.765 199.026 477.302 203.083C469.015 207.589 460.336 212.137 454.726 219.997C454.046 220.949 452.608 219.839 453.287 218.888C463.047 205.213 480.863 201.753 492.727 190.515C498.262 185.27 502.251 178.326 501.539 170.489C500.917 163.635 497.44 157.458 494.749 151.256C491.923 144.743 490.326 138.125 490.813 130.987C491.311 123.686 493.59 116.578 496.486 109.899C503.166 94.8015 512.179 80.8486 523.193 68.5511C535.686 54.4463 550.5 42.5825 566.994 33.4731C568.015 32.9097 568.691 34.5973 567.677 35.157V35.157Z" fill="white"/>
<path d="M503.438 97.7788C498.593 94.633 495.023 89.8674 493.367 84.3328C491.711 78.7982 492.076 72.8552 494.398 67.5651C494.871 66.4963 496.554 67.1816 496.08 68.2519C493.909 73.1741 493.57 78.71 495.122 83.8607C496.675 89.0113 500.018 93.4372 504.547 96.3397C505.531 96.9716 504.416 98.407 503.438 97.7788H503.438Z" fill="white"/>
<path d="M494.351 146.813C505.923 144.459 516.184 137.831 523.086 128.248C523.769 127.298 525.207 128.408 524.525 129.357C517.324 139.315 506.632 146.192 494.584 148.615C493.436 148.845 493.209 147.042 494.351 146.813H494.351Z" fill="white"/>
<path d="M536.706 56.6286C538.328 58.2364 540.323 59.4164 542.513 60.0626C544.703 60.7087 547.019 60.8009 549.253 60.3307C550.398 60.0862 550.624 61.8895 549.486 62.1325C547.015 62.6404 544.458 62.5355 542.037 61.8269C539.615 61.1184 537.405 59.8277 535.597 58.0676C535.413 57.916 535.294 57.6999 535.263 57.4633C535.232 57.2266 535.293 56.9872 535.432 56.7936C535.58 56.6039 535.797 56.4801 536.035 56.4492C536.274 56.4183 536.515 56.4828 536.706 56.6286V56.6286Z" fill="white"/>
<path d="M156.076 63.5218C152.538 61.0242 148.666 58.4198 144.337 58.5238C133.858 58.7758 128.208 74.138 117.739 73.5977C111.063 73.2532 106.631 66.4713 100.415 64.0122C92.3223 60.8108 82.0236 67.0719 81.1407 75.7298L82.1801 74.7786C113.638 82.4476 146.283 83.9558 178.315 79.2198C170.902 73.9872 163.489 68.7545 156.076 63.5218Z" fill="#F0F0F0"/>
<path d="M175.684 82C195.766 82 212.046 65.7199 212.046 45.6374C212.046 25.5549 195.766 9.27484 175.684 9.27484C155.601 9.27484 139.321 25.5549 139.321 45.6374C139.321 65.7199 155.601 82 175.684 82Z" fill="#FF6582"/>
<path d="M260.799 38.6911C256.29 35.5081 251.357 32.189 245.839 32.3217C232.484 32.6428 225.283 52.2205 211.942 51.532C203.434 51.093 197.786 42.45 189.864 39.316C179.551 35.2362 166.426 43.2154 165.301 54.2492L166.625 53.037C206.716 62.8105 248.32 64.7325 289.141 58.6969C279.694 52.0283 270.247 45.3597 260.799 38.6911Z" fill="#F0F0F0"/>
<path d="M587.883 403.719L549.294 197.1C548.633 193.694 546.836 190.613 544.195 188.363C541.554 186.113 538.227 184.827 534.759 184.715C534.447 184.708 534.135 184.708 533.823 184.715L507.536 185.658L504.706 185.762L491.587 186.234L488.758 186.331L480.319 186.636L310.153 192.745C309.896 192.759 309.633 192.759 309.376 192.752L271.245 191.955L257.134 191.663L256.683 191.656L246.268 191.435L155.513 189.548L131.451 189.042L119.587 188.8L116.744 188.737L103.215 188.46L100.379 188.397L86.5381 188.113L83.702 188.051L68.4953 187.732L66.1099 187.683L52.5466 187.399L50.4039 187.357H50.0919C46.4911 187.372 43.0115 188.659 40.268 190.991C37.5246 193.324 35.6941 196.551 35.1001 200.102L0.200132 414.509C-0.154281 416.68 -0.0322827 418.903 0.557676 421.024C1.14764 423.144 2.19143 425.11 3.61679 426.787C5.04215 428.463 6.81499 429.81 8.81247 430.734C10.8099 431.657 12.9843 432.136 15.185 432.135H215.612C218.562 432.144 221.432 433.091 223.808 434.84L227.608 437.655C230.227 439.583 233.391 440.627 236.643 440.637H354.761C356.757 440.642 358.734 440.251 360.577 439.487C362.421 438.723 364.095 437.6 365.502 436.185C367.908 433.78 371.119 432.349 374.516 432.17L573.751 421.672C575.911 421.559 578.022 420.985 579.943 419.99C581.864 418.995 583.55 417.6 584.888 415.901C586.227 414.201 587.186 412.234 587.702 410.133C588.219 408.032 588.28 405.845 587.883 403.719V403.719Z" fill="#232946"/>
<path d="M556.304 398.102L534.794 184.993C534.787 184.903 534.773 184.805 534.759 184.715C534.357 181.31 532.676 178.185 530.058 175.971L483.786 137.424C481.774 135.735 479.273 134.736 476.651 134.574C455.48 133.215 347.854 128.181 308.128 162.664C306.923 163.713 305.502 164.486 303.966 164.926C302.431 165.367 300.817 165.466 299.238 165.216C297.657 164.96 296.149 164.365 294.818 163.472C293.487 162.579 292.365 161.41 291.528 160.043C288.15 154.778 283.724 150.265 278.526 146.785C276.192 145.165 273.76 143.689 271.245 142.368C269.019 141.196 266.599 140.059 263.964 138.963C261.697 138.02 259.277 137.112 256.683 136.245C243.238 131.752 225.264 128.396 201.244 127.272C191.28 126.801 180.448 126.738 169.055 127.078C158.654 127.383 147.601 128.014 136.208 128.957L136.042 128.964L58.9538 176.027C57.2256 177.104 55.7651 178.561 54.6827 180.286C53.6003 182.011 52.9244 183.959 52.7061 185.984L52.5465 187.399L28.0688 406.111C27.8573 407.97 28.0282 409.851 28.5707 411.641C29.1133 413.431 30.0162 415.091 31.2238 416.519C32.3994 417.912 33.8633 419.032 35.5143 419.803C37.1652 420.574 38.964 420.977 40.7861 420.985H230.728C233.254 420.998 235.7 421.866 237.67 423.447L245.963 430.09C248.124 431.825 250.799 432.796 253.57 432.85L337.086 434.216H337.287C339.395 434.212 341.469 433.673 343.312 432.648L359.421 423.703C360.89 422.885 362.526 422.411 364.205 422.316L544.218 412.81C545.972 412.716 547.687 412.254 549.251 411.453C550.815 410.653 552.193 409.532 553.295 408.164C554.44 406.771 555.296 405.164 555.812 403.436C556.329 401.708 556.496 399.895 556.304 398.102V398.102Z" fill="#E6E6E6"/>
<path d="M493.471 359.67L490.951 326.5L480.321 186.64L478.741 165.95C478.341 160.516 475.932 155.425 471.983 151.67C468.034 147.915 462.828 145.765 457.381 145.64C418.431 144.64 347.901 146.4 313.291 169.59C309.441 172.207 304.772 173.335 300.152 172.765C295.533 172.194 291.278 169.964 288.181 166.49C283.392 161.232 277.642 156.939 271.241 153.84C266.556 151.491 261.687 149.531 256.681 147.98C242.031 143.3 223.544 140.457 201.221 139.45L148.241 139.14H148.151C144.481 139.143 140.95 140.544 138.275 143.057C135.6 145.57 133.983 149.007 133.751 152.67L131.451 189.04L121.401 348.54C121.213 351.511 121.631 354.49 122.629 357.295C123.627 360.1 125.185 362.673 127.208 364.857C129.23 367.042 131.676 368.793 134.396 370.003C137.116 371.214 140.054 371.859 143.031 371.9C231.961 373.22 270.811 391.99 287.751 407.49C291.353 410.795 295.954 412.803 300.827 413.198C305.699 413.593 310.564 412.351 314.651 409.67C345.401 389.53 396.521 383.93 437.211 383.06C449.671 382.8 461.151 382.97 470.771 383.31C473.863 383.421 476.943 382.879 479.811 381.717C482.678 380.556 485.268 378.802 487.411 376.57C489.554 374.338 491.201 371.679 492.246 368.767C493.29 365.855 493.707 362.755 493.471 359.67V359.67Z" fill="white"/>
<path d="M51.9848 405.933C51.9516 405.933 51.917 405.931 51.8838 405.929C51.6983 405.916 51.5172 405.866 51.3508 405.783C51.1845 405.7 51.0361 405.585 50.9142 405.445C50.7923 405.304 50.6993 405.141 50.6404 404.965C50.5815 404.788 50.558 404.602 50.5711 404.417L65.8722 188.364C65.8831 188.178 65.9312 187.996 66.0135 187.828C66.0958 187.661 66.2108 187.512 66.3517 187.389C66.4926 187.267 66.6565 187.174 66.8338 187.116C67.011 187.058 67.1982 187.036 67.3841 187.052C67.5696 187.065 67.7506 187.114 67.917 187.197C68.0833 187.28 68.2317 187.395 68.3536 187.536C68.4755 187.676 68.5685 187.839 68.6274 188.015C68.6863 188.192 68.7098 188.378 68.6967 188.563L53.3956 404.616C53.3707 404.973 53.2113 405.308 52.9494 405.552C52.6876 405.797 52.3429 405.933 51.9848 405.933Z" fill="white"/>
<path d="M70.3981 397.434C70.365 397.434 70.3304 397.433 70.2971 397.43C70.1117 397.417 69.9306 397.368 69.7642 397.285C69.5979 397.202 69.4495 397.087 69.3276 396.946C69.2057 396.806 69.1127 396.643 69.0538 396.466C68.9949 396.29 68.9714 396.104 68.9845 395.918L84.2856 179.866C84.2965 179.679 84.3445 179.497 84.4269 179.33C84.5092 179.163 84.6242 179.013 84.765 178.891C84.9059 178.769 85.0698 178.676 85.2471 178.618C85.4244 178.56 85.6115 178.538 85.7974 178.553C85.9829 178.566 86.164 178.616 86.3304 178.699C86.4967 178.782 86.6451 178.897 86.767 179.037C86.8889 179.177 86.9819 179.341 87.0408 179.517C87.0997 179.693 87.1232 179.879 87.1101 180.065L71.809 396.117C71.7841 396.475 71.6247 396.809 71.3628 397.054C71.101 397.298 70.7563 397.434 70.3981 397.434V397.434Z" fill="white"/>
<path d="M87.395 393.185C87.3618 393.185 87.3272 393.184 87.294 393.181C87.1085 393.168 86.9275 393.118 86.7611 393.035C86.5948 392.952 86.4464 392.837 86.3245 392.697C86.2026 392.556 86.1096 392.393 86.0507 392.217C85.9918 392.041 85.9683 391.855 85.9814 391.669L101.282 175.616C101.293 175.43 101.341 175.248 101.424 175.081C101.506 174.913 101.621 174.764 101.762 174.642C101.903 174.519 102.067 174.427 102.244 174.369C102.421 174.31 102.608 174.288 102.794 174.304C102.98 174.317 103.161 174.366 103.327 174.449C103.494 174.532 103.642 174.647 103.764 174.788C103.886 174.928 103.979 175.091 104.038 175.268C104.097 175.444 104.12 175.63 104.107 175.816L88.8059 391.868C88.781 392.225 88.6215 392.56 88.3597 392.804C88.0979 393.049 87.7532 393.185 87.395 393.185V393.185Z" fill="white"/>
<path d="M104.392 384.687C104.359 384.687 104.324 384.685 104.291 384.682C104.106 384.669 103.924 384.62 103.758 384.537C103.592 384.454 103.443 384.339 103.321 384.198C103.2 384.058 103.107 383.895 103.048 383.719C102.989 383.542 102.965 383.356 102.978 383.171L118.279 167.118C118.29 166.932 118.338 166.75 118.421 166.582C118.503 166.415 118.618 166.266 118.759 166.143C118.9 166.021 119.064 165.928 119.241 165.87C119.418 165.812 119.605 165.79 119.791 165.805C119.977 165.818 120.158 165.868 120.324 165.951C120.491 166.034 120.639 166.149 120.761 166.289C120.883 166.43 120.976 166.593 121.035 166.769C121.094 166.946 121.117 167.132 121.104 167.317L105.803 383.37C105.778 383.727 105.619 384.062 105.357 384.306C105.095 384.55 104.75 384.686 104.392 384.687V384.687Z" fill="white"/>
<path d="M539.227 407.349C539.261 407.349 539.295 407.348 539.328 407.345C539.514 407.332 539.695 407.283 539.861 407.199C540.028 407.116 540.176 407.001 540.298 406.861C540.42 406.721 540.513 406.558 540.572 406.381C540.631 406.205 540.654 406.019 540.641 405.833L525.34 189.781C525.329 189.594 525.281 189.412 525.199 189.245C525.116 189.077 525.001 188.928 524.861 188.806C524.72 188.684 524.556 188.591 524.378 188.533C524.201 188.475 524.014 188.453 523.828 188.468C523.643 188.481 523.462 188.53 523.295 188.614C523.129 188.697 522.981 188.812 522.859 188.952C522.737 189.092 522.644 189.255 522.585 189.432C522.526 189.608 522.502 189.794 522.515 189.98L537.817 406.032C537.841 406.39 538.001 406.724 538.263 406.969C538.525 407.213 538.869 407.349 539.227 407.349V407.349Z" fill="white"/>
<path d="M520.814 394.601C520.847 394.601 520.882 394.6 520.915 394.597C521.101 394.584 521.282 394.535 521.448 394.452C521.614 394.369 521.763 394.254 521.885 394.113C522.007 393.973 522.1 393.81 522.159 393.634C522.217 393.457 522.241 393.271 522.228 393.086L506.927 177.033C506.916 176.847 506.868 176.665 506.786 176.497C506.703 176.33 506.588 176.18 506.447 176.058C506.306 175.936 506.143 175.843 505.965 175.785C505.788 175.727 505.601 175.705 505.415 175.72C505.229 175.733 505.048 175.783 504.882 175.866C504.716 175.949 504.567 176.064 504.445 176.204C504.324 176.345 504.23 176.508 504.172 176.684C504.113 176.86 504.089 177.047 504.102 177.232L519.403 393.285C519.428 393.642 519.588 393.976 519.85 394.221C520.111 394.465 520.456 394.601 520.814 394.601V394.601Z" fill="white"/>
<path d="M503.817 380.437C503.85 380.437 503.885 380.436 503.918 380.433C504.104 380.42 504.285 380.371 504.451 380.288C504.618 380.205 504.766 380.09 504.888 379.949C505.01 379.809 505.103 379.646 505.162 379.469C505.221 379.293 505.244 379.107 505.231 378.921L489.93 162.869C489.919 162.683 489.871 162.5 489.789 162.333C489.706 162.166 489.591 162.016 489.45 161.894C489.309 161.772 489.146 161.679 488.968 161.621C488.791 161.563 488.604 161.541 488.418 161.556C488.233 161.569 488.051 161.619 487.885 161.702C487.719 161.785 487.57 161.9 487.448 162.04C487.327 162.181 487.234 162.344 487.175 162.52C487.116 162.696 487.092 162.883 487.105 163.068L502.406 379.121C502.431 379.478 502.591 379.812 502.853 380.057C503.114 380.301 503.459 380.437 503.817 380.437V380.437Z" fill="white"/>
<path d="M156.216 187.946C188.143 177.76 223.762 180.457 254.009 194.807C262.639 198.88 270.789 203.9 278.31 209.775C280.438 211.445 283.465 208.458 281.315 206.77C253.534 185.222 218.628 174.986 183.61 178.118C173.922 178.985 164.357 180.907 155.086 183.849C152.491 184.677 153.6 188.781 156.216 187.946H156.216Z" fill="#3F3D56"/>
<path d="M331.9 211.423C361.584 195.821 397.13 192.419 429.404 201.275C438.605 203.794 447.497 207.33 455.916 211.816C458.328 213.103 460.477 209.436 458.061 208.147C427.301 191.734 390.377 187.956 356.786 197.105C347.416 199.662 338.352 203.233 329.755 207.754C327.334 209.027 329.479 212.696 331.9 211.423V211.423Z" fill="#3F3D56"/>
<path d="M331.9 239.751C361.584 224.149 397.13 220.747 429.404 229.603C438.605 232.122 447.497 235.658 455.916 240.145C458.328 241.431 460.477 237.765 458.061 236.475C427.301 220.062 390.377 216.284 356.786 225.433C347.416 227.99 338.352 231.561 329.755 236.082C327.334 237.355 329.479 241.024 331.9 239.751V239.751Z" fill="#3F3D56"/>
<path d="M459.1 266.56C459.122 266.195 459.035 265.832 458.848 265.518C458.661 265.204 458.384 264.953 458.053 264.799C433.411 251.896 405.472 246.662 377.831 249.772C377.658 249.786 377.498 249.814 377.311 249.828H377.304C377.134 249.843 376.965 249.868 376.798 249.904C360.358 251.796 344.409 256.712 329.756 264.403C329.437 264.594 329.172 264.864 328.989 265.187C328.805 265.511 328.709 265.876 328.709 266.248V319.094C328.714 319.419 328.793 319.739 328.941 320.029C329.088 320.319 329.299 320.572 329.558 320.768C329.817 320.964 330.118 321.099 330.437 321.162C330.756 321.226 331.085 321.215 331.4 321.132C332.051 320.945 332.703 320.765 333.369 320.591C348.182 316.582 363.389 314.203 378.719 313.498C379.045 313.484 379.371 313.47 379.71 313.456C392.196 312.92 404.705 313.37 417.12 314.801C417.38 314.816 417.64 314.844 417.897 314.885C418.535 314.954 419.187 315.03 419.825 315.113C420.081 315.141 420.324 315.169 420.56 315.21C423.042 315.522 425.504 315.876 427.972 316.258C431.537 316.826 435.101 317.46 438.665 318.158C438.887 318.199 439.116 318.255 439.345 318.296C445.065 319.433 450.758 320.751 456.424 322.207C456.739 322.289 457.069 322.297 457.388 322.233C457.708 322.168 458.008 322.032 458.267 321.834C458.526 321.637 458.737 321.383 458.884 321.092C459.03 320.801 459.109 320.48 459.114 320.155V266.643C459.116 266.615 459.111 266.586 459.1 266.56Z" fill="#3F3D56"/>
<path d="M381.162 252.654C379.606 251.891 377.821 251.735 376.156 252.214C375.42 252.49 374.746 252.909 374.174 253.448C373.601 253.986 373.141 254.633 372.821 255.35C372.243 256.726 371.874 258.18 371.723 259.664C371.635 260.248 371.63 260.985 372.216 261.258C372.429 261.335 372.66 261.353 372.882 261.308C373.104 261.264 373.31 261.161 373.478 261.008C373.781 260.709 374.031 260.361 374.216 259.978C375.235 258.392 376.638 257.089 378.293 256.189C379.949 255.289 381.805 254.82 383.69 254.827L385.259 255.452C384.025 254.34 382.647 253.399 381.162 252.654V252.654Z" fill="#FF6582"/>
<path d="M398.141 264.834C396.923 263.042 395.481 261.128 393.222 260.543C390.605 259.865 387.918 261.212 385.638 262.54C378.859 266.488 372.294 270.793 365.972 275.438L365.979 275.507L380.654 274.607C384.188 274.39 387.844 274.143 390.967 272.655C392.089 271.951 393.343 271.485 394.651 271.283C395.463 271.327 396.258 271.531 396.99 271.884C397.722 272.237 398.378 272.731 398.918 273.339C405.681 279.749 407.638 289.553 415.226 295.185C410.398 284.604 404.682 274.451 398.141 264.834V264.834Z" fill="white"/>
<path d="M379.713 313.455C379.373 313.469 379.047 313.484 378.721 313.498C376.356 312.648 373.934 311.897 371.483 311.246C369.897 310.821 368.282 310.438 366.667 310.113C364.84 309.716 362.999 309.404 361.158 309.135C357.652 308.625 354.119 308.327 350.577 308.243C350.55 308.246 350.523 308.243 350.498 308.235C350.472 308.226 350.448 308.213 350.428 308.195C350.408 308.177 350.392 308.155 350.381 308.13C350.37 308.105 350.364 308.079 350.364 308.052C350.364 308.025 350.37 307.998 350.381 307.973C350.392 307.949 350.408 307.927 350.428 307.909C350.448 307.891 350.472 307.877 350.498 307.869C350.523 307.86 350.55 307.858 350.577 307.86C351.03 307.86 351.484 307.875 351.923 307.903C355.472 308.034 359.01 308.379 362.518 308.937C364.345 309.234 366.172 309.588 367.985 309.985C369.628 310.353 371.271 310.764 372.886 311.217C375.194 311.869 377.47 312.615 379.713 313.455Z" fill="white"/>
<path d="M420.562 315.212C420.321 315.169 420.08 315.141 419.825 315.112C418.848 314.305 417.857 313.54 416.823 312.79C415.534 311.855 414.202 310.977 412.843 310.155C409.831 308.327 406.687 306.727 403.437 305.368C398.299 303.228 392.981 301.55 387.545 300.353C381.345 298.995 375.068 298.011 368.75 297.407C362.432 296.756 356.087 296.359 349.741 295.963C349.472 295.948 349.458 295.552 349.741 295.566C350.535 295.623 351.328 295.665 352.135 295.722C358.551 296.118 364.968 296.572 371.342 297.294C377.662 297.971 383.931 299.06 390.109 300.552C395.384 301.852 400.531 303.62 405.491 305.835C408.344 307.117 411.108 308.588 413.763 310.24C415.449 311.302 417.078 312.435 418.635 313.639C419.287 314.149 419.939 314.659 420.562 315.212Z" fill="white"/>
<path d="M417.899 314.886C417.641 314.844 417.381 314.816 417.12 314.801C416.823 314.56 416.511 314.333 416.2 314.107C414.019 312.546 411.744 311.122 409.387 309.843C407.246 308.68 405.048 307.626 402.8 306.685C397.664 304.539 392.345 302.861 386.908 301.671C380.708 300.312 374.431 299.328 368.112 298.725C361.795 298.073 355.45 297.677 349.104 297.28C348.835 297.252 348.835 296.869 349.104 296.883C349.912 296.94 350.704 296.982 351.498 297.039C357.914 297.436 364.331 297.889 370.704 298.611C377.024 299.289 383.293 300.377 389.472 301.869C394.747 303.166 399.895 304.935 404.854 307.152C406.724 308.002 408.551 308.923 410.335 309.928C412.982 311.381 415.511 313.039 417.899 314.886V314.886Z" fill="white"/>
<path d="M439.344 318.299C439.117 318.257 438.89 318.2 438.664 318.158C438.409 317.889 438.168 317.605 437.927 317.322C436.709 315.92 435.505 314.503 434.315 313.073C429.627 307.492 425.18 301.741 420.987 295.878C417.389 290.863 413.976 285.75 410.746 280.538C409.202 278.073 407.715 275.58 406.256 273.059C405.123 271.105 404.018 269.145 402.942 267.181C402.63 266.615 402.333 266.048 402.036 265.481C401.341 264.15 400.647 262.804 399.911 261.487C399.11 259.873 397.935 258.475 396.483 257.408C395.757 256.922 394.918 256.634 394.047 256.572C392.819 256.577 391.611 256.888 390.534 257.479C382.61 261.169 375.134 265.755 368.254 271.147C361.534 276.374 355.458 282.379 350.152 289.036C349.982 289.235 349.614 289.05 349.77 288.838C350.407 288.045 351.059 287.252 351.71 286.472C356.809 280.441 362.551 274.984 368.835 270.198C368.849 270.184 368.877 270.17 368.891 270.156C369.444 269.716 369.996 269.292 370.563 268.881C374.071 266.298 377.721 263.914 381.498 261.742C383.424 260.623 385.392 259.561 387.404 258.555C387.899 258.3 388.41 258.045 388.919 257.804C389.429 257.55 389.939 257.309 390.449 257.068C391.458 256.553 392.562 256.25 393.693 256.176C397.63 256.119 399.656 260.085 401.058 262.762C401.497 263.598 401.95 264.433 402.39 265.269C404.089 268.427 405.86 271.572 407.701 274.674C408.82 276.6 409.981 278.512 411.157 280.41C412.843 283.116 414.571 285.793 416.37 288.456C416.369 288.458 416.37 288.459 416.37 288.461C416.371 288.463 416.372 288.465 416.374 288.466C416.375 288.467 416.376 288.468 416.378 288.469C416.38 288.47 416.382 288.47 416.384 288.47C418.466 291.614 420.633 294.702 422.871 297.776C426.709 303.03 430.732 308.167 434.939 313.186C436.384 314.914 437.852 316.619 439.344 318.299Z" fill="white"/>
<path d="M459.117 312.053V312.704C457.714 311.062 456.284 309.433 454.867 307.804C454.273 307.124 453.678 306.444 453.083 305.764C450.562 302.903 448.026 300.051 445.477 297.209C442.913 294.376 440.349 291.543 437.757 288.725C437.134 288.045 436.511 287.365 435.874 286.685C435.363 286.114 434.809 285.583 434.216 285.099C433.618 284.601 432.93 284.221 432.191 283.98C431.339 283.744 430.441 283.734 429.585 283.951C428.607 284.178 427.672 284.532 426.723 284.83C425.746 285.155 424.783 285.467 423.806 285.779C421.851 286.416 419.91 287.054 417.956 287.691C417.932 287.701 417.906 287.705 417.88 287.705C417.854 287.705 417.828 287.699 417.804 287.688C417.78 287.678 417.759 287.662 417.741 287.643C417.723 287.624 417.71 287.602 417.701 287.577C417.69 287.551 417.685 287.522 417.686 287.493C417.687 287.464 417.695 287.435 417.708 287.41C417.722 287.384 417.741 287.361 417.764 287.344C417.787 287.327 417.814 287.314 417.843 287.308C418.324 287.153 418.82 286.997 419.316 286.841C421.284 286.189 423.239 285.552 425.208 284.915C426.185 284.589 427.162 284.277 428.14 283.966C429.046 283.621 430.004 283.43 430.973 283.399C432.555 283.513 434.039 284.209 435.137 285.354C435.746 285.92 436.298 286.515 436.851 287.124C437.502 287.832 438.154 288.541 438.806 289.249C441.426 292.11 444.027 294.981 446.61 297.861C449.202 300.75 451.77 303.644 454.315 306.543C454.499 306.756 454.683 306.968 454.867 307.181C456.298 308.795 457.7 310.424 459.117 312.053Z" fill="white"/>
<path d="M388.81 255.744L388.419 255.915C387.521 254.4 386.263 253.129 384.756 252.217C383.25 251.305 381.541 250.779 379.782 250.687C373.983 250.275 368.889 254.139 368.426 259.301C368.238 261.426 368.854 263.545 370.151 265.239L369.787 265.454C368.436 263.689 367.795 261.483 367.991 259.27C368.473 253.895 373.778 249.87 379.817 250.299C381.649 250.396 383.428 250.943 384.997 251.893C386.566 252.843 387.876 254.166 388.81 255.744V255.744Z" fill="#FF6582"/>
<path d="M360.156 266.187C358.635 265.525 356.977 265.234 355.321 265.34C353.664 265.445 352.057 265.943 350.631 266.793C355.836 267.591 360.995 268.663 366.088 270.004C363.979 268.904 362.33 267.181 360.156 266.187Z" fill="white"/>
<path d="M350.602 266.788L350.029 267.203C350.223 267.058 350.424 266.922 350.631 266.793L350.602 266.788Z" fill="white"/>
<path d="M433.996 287.708C433.461 287.019 432.748 286.489 431.934 286.176L431.128 286.204C437.45 296.041 445.732 304.469 455.457 310.961C448.304 303.21 441.15 295.459 433.996 287.708Z" fill="white"/>
<path d="M367.861 269.193C367.633 268.966 367.406 268.74 367.176 268.513C365.413 266.594 363.29 265.041 360.927 263.941C359.725 263.434 358.434 263.168 357.129 263.157C355.781 263.188 354.448 263.447 353.186 263.923C352.592 264.134 352.012 264.373 351.44 264.628C350.786 264.921 350.145 265.233 349.506 265.548C348.307 266.139 347.123 266.755 345.955 267.398C343.631 268.676 341.38 270.052 339.202 271.526C338.072 272.29 336.966 273.079 335.884 273.894C334.877 274.65 333.89 275.427 332.924 276.224C332.717 276.393 332.409 276.119 332.615 275.949C332.87 275.738 333.128 275.528 333.385 275.321C334.113 274.735 334.852 274.161 335.603 273.598C336.972 272.57 338.377 271.581 339.817 270.632C342.057 269.155 344.373 267.779 346.767 266.503C347.963 265.865 349.176 265.255 350.405 264.671C350.776 264.495 351.152 264.323 351.531 264.16C352.399 263.771 353.294 263.446 354.209 263.189C355.522 262.813 356.895 262.693 358.253 262.836C359.553 263.002 360.815 263.39 361.984 263.985C364.3 265.283 366.389 266.948 368.17 268.917C368.356 269.104 368.049 269.38 367.861 269.193Z" fill="white"/>
<path d="M156.216 216.275C188.143 206.088 223.762 208.785 254.009 223.135C262.639 227.209 270.789 232.229 278.31 238.103C280.438 239.773 283.465 236.786 281.315 235.098C253.534 213.551 218.628 203.315 183.61 206.447C173.922 207.314 164.357 209.235 155.086 212.177C152.491 213.005 153.6 217.109 156.216 216.275H156.216Z" fill="#3F3D56"/>
<path d="M156.216 244.603C188.143 234.417 223.762 237.113 254.009 251.464C262.639 255.537 270.789 260.557 278.31 266.431C280.438 268.101 283.465 265.114 281.315 263.427C253.534 241.879 218.628 231.643 183.61 234.775C173.922 235.642 164.357 237.563 155.086 240.505C152.491 241.333 153.6 245.437 156.216 244.603H156.216Z" fill="#3F3D56"/>
<path d="M156.216 272.931C188.143 262.745 223.762 265.441 254.009 279.792C262.639 283.865 270.789 288.885 278.31 294.759C280.438 296.429 283.465 293.442 281.315 291.755C253.534 270.207 218.628 259.971 183.61 263.103C173.922 263.97 164.357 265.892 155.086 268.834C152.491 269.662 153.6 273.766 156.216 272.931H156.216Z" fill="#3F3D56"/>
<path d="M156.216 301.259C188.143 291.073 223.762 293.77 254.009 308.12C262.639 312.193 270.789 317.213 278.31 323.088C280.438 324.757 283.465 321.771 281.315 320.083C253.534 298.535 218.628 288.299 183.61 291.431C173.922 292.298 164.357 294.22 155.086 297.162C152.491 297.99 153.6 302.094 156.216 301.259H156.216Z" fill="#3F3D56"/>
<path d="M156.216 329.587C188.143 319.401 223.762 322.098 254.009 336.448C262.639 340.522 270.789 345.542 278.31 351.416C280.438 353.086 283.465 350.099 281.315 348.411C253.534 326.864 218.628 316.628 183.61 319.76C173.922 320.626 164.357 322.548 155.086 325.49C152.491 326.318 153.6 330.422 156.216 329.587L156.216 329.587Z" fill="#3F3D56"/>
<path d="M271.245 142.368V221.765C271.245 223.117 268.887 224.247 265.705 224.552C265.15 224.608 264.567 224.636 263.964 224.636C262.213 224.669 260.469 224.385 258.819 223.797C258.513 223.678 258.216 223.536 257.931 223.374C257.141 222.909 256.683 222.361 256.683 221.765V136.245C259.277 137.112 261.697 138.02 263.964 138.963C266.599 140.059 269.019 141.196 271.245 142.368Z" fill="#D4939D"/>
<path d="M301.764 169.592H299.683V426.422H301.764V169.592Z" fill="#E6E6E6"/>
<path d="M487.421 376.56C485.276 378.792 482.685 380.547 479.816 381.71C476.947 382.873 473.865 383.419 470.771 383.31C461.151 382.97 449.671 382.8 437.211 383.06L437.141 383L491.141 313L493.471 359.67C493.704 362.752 493.286 365.849 492.244 368.759C491.201 371.669 489.558 374.327 487.421 376.56V376.56Z" fill="#F2F2F2"/>
</g>
<defs>
<clipPath id="clip0_3_275">
<rect width="588" height="467" fill="white"/>
</clipPath>
</defs>
</svg>
