<svg width="608" height="400" viewBox="0 0 608 400" fill="none" xmlns="http://www.w3.org/2000/svg">
<path d="M503.992 206.364C503.997 231.226 499.104 255.845 489.592 278.815C480.08 301.786 466.136 322.657 448.556 340.237C430.976 357.816 410.105 371.761 387.135 381.272C364.165 390.784 339.546 395.678 314.684 395.673C210.133 395.673 125.376 310.915 125.376 206.364C125.358 186.028 128.618 165.821 135.031 146.522C147.621 108.831 171.741 76.0515 203.98 52.8187C236.219 29.5859 274.946 17.0755 314.684 17.0565C348.956 17.0446 382.587 26.3396 411.989 43.9494C441.39 61.5591 465.458 86.8224 481.622 117.043C485.63 124.499 489.126 132.219 492.087 140.149C492.497 141.253 492.897 142.357 493.286 143.472V143.483C495.021 148.384 496.55 153.376 497.871 158.459C501.948 174.101 504.005 190.2 503.992 206.364V206.364Z" fill="#F2F2F2" stroke="#232946" stroke-width="7"/>
<path d="M293.972 78.6407C285.465 74.0401 276.019 71.4431 266.355 71.0477C256.692 70.6524 247.066 72.4691 238.211 76.3593C230.414 79.7523 222.205 85.839 219.604 96.8305C230.123 90.6225 243.74 100.431 246.446 116.166L245.815 116.34C244.385 127.239 247.576 139.105 253.755 145.863C254.567 138.843 259.182 134.065 263.722 131.081C268.262 128.097 273.284 125.929 276.749 120.799C280.857 114.718 281.9 105.83 283.532 97.7223C285.164 89.6144 288.26 80.8999 293.972 78.6407Z" fill="#232946"/>
<path d="M235.09 171.385C232.177 175.76 228.286 178.505 224.794 181.923C221.313 185.351 218 189.979 217.306 195.921C216.864 199.728 217.548 203.598 217.453 207.448C217.359 211.297 216.076 215.63 213.457 216.587C209.324 218.08 206.168 210.403 201.92 209.867C198.543 209.446 195.504 214.757 196.482 219.364C197.46 223.97 202.056 226.01 204.696 223.002C207.084 227.009 205.401 234.277 201.814 235.507C201.436 238.031 201.057 240.545 200.689 243.069C191.623 236.727 182.463 230.28 174.754 220.994C166.18 210.753 160.862 198.184 159.483 184.899C158.484 174.224 159.967 162.014 155.066 153.8C151.143 147.227 144.412 145.775 138.354 146.186C137.25 146.259 136.135 146.385 135.031 146.522C138.603 135.792 143.141 125.408 148.587 115.497C149.82 114.968 150.965 114.255 151.984 113.383C157.621 108.597 160.125 98.9112 164.699 92.2117C164.994 91.7805 165.299 91.3598 165.614 90.9497C170.295 84.8392 176.563 81.6946 182.621 78.7708C196.03 72.2608 209.828 65.6665 223.984 66.571L219.956 66.9601C215.255 80.1276 210.551 93.295 205.842 106.462C205.127 108.482 204.405 110.504 203.676 112.531C201.005 120.019 198.249 127.991 198.659 136.373C198.901 141.337 200.626 146.638 203.907 148.342C206.968 149.919 210.312 147.984 213.267 146.07C214.519 145.27 215.76 144.471 217.012 143.661C221.502 140.769 226.477 137.803 231.22 139.738C235.564 141.505 238.771 147.405 239.382 153.768C239.941 159.954 238.432 166.149 235.09 171.385V171.385Z" fill="#232946"/>
<path d="M261.799 261.282C248.683 253.206 235.568 245.131 222.452 237.055L222.674 236.482C214.519 239.588 211.134 254.083 212.482 265.938C213.829 277.792 218.399 288.389 220.708 299.94C223.82 315.746 222.645 332.098 217.305 347.297C234.551 327.946 249.815 306.914 262.865 284.517C264.688 281.694 266.077 278.614 266.986 275.379C267.82 271.937 267.691 267.799 266.023 265.039C264.949 263.455 263.498 262.164 261.799 261.282V261.282Z" fill="#232946"/>
<path d="M210.036 114.363C208.643 117.494 208.107 121.67 209.371 124.91C210.662 128.219 213.391 129.714 215.903 130.959L223.15 134.551C225.561 135.746 228.16 136.953 230.618 135.97C233.582 134.784 235.637 130.137 235.106 125.822C234.54 121.231 231.646 118.073 228.969 115.384C225.224 111.62 221.478 107.857 217.733 104.093L215.622 106.678C213.338 108.905 211.45 111.504 210.036 114.363V114.363Z" fill="#232946"/>
<path d="M465.142 163.444C468.402 164.212 471.663 164.979 474.923 165.747C474.355 176.759 468.896 186.95 461.577 190.641C458.527 192.177 455.13 192.745 452.605 195.616C450.323 198.224 449.166 202.284 448.104 206.164C446.243 212.938 444.381 219.711 442.52 226.483C440.521 233.782 437.955 241.891 432.76 244.52C428.3 246.782 423.2 244.016 419.771 239.377C416.342 234.739 414.25 228.503 412.22 222.424C412.346 229.05 409.265 235.549 404.9 237.853C400.525 240.156 395.203 238.073 392.279 232.931C390.176 229.239 389.303 224.37 387.242 220.626C385.18 216.882 380.858 214.736 378.607 218.249C377.124 220.584 377.313 224.159 376.577 227.125C375.431 231.732 371.96 234.624 368.521 234.876C365.093 235.129 361.748 233.151 358.877 230.47C352.956 224.916 348.591 216.103 346.898 206.312C346.151 201.947 345.941 197.193 347.235 193.102C348.528 189.011 351.652 185.856 354.754 186.634C356.795 182.322 352.767 176.601 349.138 177.106C345.499 177.61 342.649 181.512 339.662 184.51C336.686 187.507 332.521 189.684 329.524 186.708C329.545 189.474 327.294 191.304 325.348 191.072C323.413 190.852 321.689 189.295 319.911 188.191C313.044 183.91 304.325 186.75 299.445 194.848C302.495 181.87 306.965 166.978 316.335 163.928C320.164 162.676 324.339 163.707 327.957 161.54C334.362 157.702 335.655 143.198 330.123 137.214C330.828 142.872 330.691 149.477 327.704 153.347C324.717 157.218 318.449 154.694 318.828 148.972C317.965 152.916 313.675 153.516 311.697 150.487C309.71 147.458 309.878 142.504 311.287 138.886C312.696 135.268 315.094 132.671 317.418 130.178C322.414 124.825 327.483 119.409 333.268 116.043C339.063 112.678 345.752 111.542 351.557 114.886C354.618 116.653 357.31 119.598 360.434 121.155C363.557 122.722 367.522 122.522 369.594 118.862C371.918 114.781 370.824 108.723 371.687 103.623C373.233 94.6094 382.246 90.392 387.242 96.3446C383.508 95.3876 379.648 99.8048 379.185 105.158C378.712 110.511 381.415 115.917 385.033 117.537C391.112 120.229 397.065 113.456 401.661 107.188C406.456 100.625 411.259 94.066 416.069 87.5104C416.837 86.3942 417.699 85.3457 418.646 84.3763C420.152 82.908 422.16 82.0671 424.264 82.0242C426.367 81.9812 428.408 82.7393 429.973 84.145C434.832 88.1098 437.114 96.2396 441.1 101.835C446.884 109.964 455.54 111.942 463.596 113.519C469.601 114.687 475.61 115.861 481.622 117.042C485.63 124.498 489.126 132.218 492.087 140.149C481.906 144.471 472.514 152.559 465.142 163.444Z" fill="#232946"/>
<path d="M484.556 289.986C480.05 299.135 474.81 307.904 468.886 316.205C465.1 314.585 461.029 317.478 457.485 320.191C453.783 323.031 449.334 325.797 445.538 323.21C441.657 320.559 440.405 313.145 441.636 307.266C442.866 301.397 445.937 296.727 448.914 292.289C452.069 287.578 455.445 282.687 459.831 280.857C464.227 279.027 469.874 281.614 471.157 287.862L474.271 287.756C472.525 285.358 473.44 280.394 475.785 279.521C478.488 278.501 480.833 282.214 482.432 285.495C483.147 286.978 483.873 288.472 484.556 289.986Z" fill="#232946"/>
<path d="M365.328 245.563C358.637 245.983 353.337 237.746 349.815 229.642C346.292 221.538 343.079 212.271 337.041 208.146C333.591 205.79 329.658 205.466 325.916 204.324C322.174 203.182 318.258 200.819 316.469 196.006L312.224 194.291C306.619 197.443 300.939 200.653 296.109 205.782C290.691 211.537 287.317 218.914 286.506 226.776C285.695 235.272 288.689 244.745 294.284 247.937C298.705 250.459 303.851 248.869 308.329 251.178C313.924 254.062 317.245 262.442 318.502 270.715C319.76 278.988 319.441 287.586 320.341 295.953C321.24 304.32 323.719 313.027 328.85 317.314C335.27 322.68 344.691 318.221 347.572 308.454C348.985 303.663 348.936 298.257 349.993 293.283C351.854 284.525 356.876 278.027 360.859 270.842C364.842 263.658 367.977 253.9 365.328 245.563Z" fill="#232946"/>
<path d="M299.208 159.499C299.832 160.074 300.415 160.692 300.951 161.349C301.506 162.306 301.789 163.396 301.77 164.502C301.751 165.608 301.431 166.688 300.844 167.625C301.65 167.579 302.437 167.367 303.157 167.001C303.877 166.635 304.513 166.124 305.025 165.5C306.246 164.109 307.321 162.596 308.231 160.984C308.913 159.871 309.639 158.367 309.176 157.045C308.86 156.143 308.112 155.758 307.588 155.079C306.758 154.004 306.552 152.296 306.122 150.82C305.194 147.632 302.969 145.288 300.555 144.953L300.89 145.017C299.882 145.363 299.177 146.964 299.4 148.405C299.603 149.718 300.447 150.807 300.363 152.146C300.242 154.071 298.319 154.974 298.2 156.899C298.181 157.865 298.543 158.799 299.208 159.499V159.499Z" fill="#232946"/>
<path d="M287.744 126.791C287.754 126.788 287.764 126.788 287.774 126.785C287.979 126.598 288.17 126.394 288.344 126.177L287.744 126.791Z" fill="#E6E6E6"/>
<path d="M289.75 135.826C291.23 134.874 292.056 132.243 291.567 130.041C291.081 127.853 289.36 126.381 287.774 126.785C287.313 127.252 286.742 127.594 286.113 127.779C285.484 127.964 284.818 127.986 284.179 127.844C283.197 127.591 282.12 126.941 281.269 127.68C280.783 128.232 280.442 128.897 280.279 129.615C279.964 130.581 279.649 131.548 279.334 132.515C279.184 132.861 279.145 133.245 279.222 133.614C279.282 133.762 279.38 133.892 279.505 133.991C279.63 134.091 279.778 134.156 279.936 134.182C281.826 134.739 283.715 135.296 285.605 135.853C286.982 136.259 288.469 136.65 289.75 135.826Z" fill="#232946"/>
<path d="M432.406 260.557C431.533 259.127 430.659 257.697 429.786 256.267C428.928 254.611 427.755 253.138 426.333 251.931C426.02 251.669 425.658 251.473 425.268 251.353C424.878 251.233 424.469 251.192 424.063 251.232C423.657 251.273 423.263 251.394 422.905 251.589C422.547 251.784 422.231 252.049 421.977 252.368L422.083 253.185C424.074 255.683 426.18 258.457 426.685 262.165C426.885 263.626 426.815 265.139 426.99 266.607C427.165 268.075 427.661 269.597 428.608 270.23C429.984 271.149 431.599 269.794 432.578 268.141C433.453 266.783 433.845 265.17 433.692 263.562C433.474 262.483 433.036 261.46 432.406 260.557V260.557Z" fill="#232946"/>
<path d="M471.282 205.94C471.534 204.283 471.787 202.627 472.04 200.97C472.45 199.151 472.501 197.268 472.19 195.429C472.119 195.028 471.969 194.644 471.748 194.301C471.527 193.958 471.24 193.663 470.903 193.433C470.567 193.203 470.187 193.042 469.788 192.96C469.388 192.879 468.976 192.878 468.576 192.958L468.132 193.652C468.046 196.845 467.871 200.324 465.87 203.486C465.081 204.732 464.054 205.845 463.242 207.08C462.431 208.316 461.83 209.8 462.147 210.894C462.608 212.483 464.716 212.486 466.529 211.852C468.073 211.377 469.412 210.396 470.331 209.067C470.859 208.101 471.182 207.036 471.282 205.94V205.94Z" fill="#232946"/>
<path d="M446.109 262.419C446.536 261.191 445.919 259.783 445.789 258.426C445.727 256.673 446.191 254.942 447.123 253.457C448.048 252.055 448.75 250.518 449.201 248.9C449.392 248.163 449.357 247.386 449.102 246.669C448.812 246.019 448.112 245.723 447.71 246.237L448.57 246.791C447.409 246.584 446.217 246.642 445.081 246.96C444.434 247.208 443.855 247.608 443.395 248.127C442.935 248.646 442.606 249.268 442.437 249.941C442.295 250.989 442.063 252.024 441.744 253.033C441.231 254.087 440.239 254.438 439.615 255.363C439.189 256.183 438.975 257.096 438.99 258.02C439.005 258.944 439.25 259.849 439.703 260.655C440.486 261.972 441.731 262.952 443.196 263.402C444.246 263.779 445.629 263.799 446.109 262.419Z" fill="#232946"/>
<path d="M470.511 269.781C470.891 270.769 471.399 271.702 472.023 272.556C473.191 273.733 474.779 273.01 476.196 272.724C477.482 272.521 478.799 272.669 480.008 273.154C481.216 273.639 482.271 274.441 483.06 275.477C482.511 272.736 481.311 270.167 479.563 267.985C477.814 265.804 475.568 264.074 473.012 262.94C469.671 261.578 466.152 261.447 462.678 261.324L462.078 261.478C463.607 265.93 468.409 265.83 470.511 269.781Z" fill="#232946"/>
<path d="M367.159 278.886L367.168 278.905C367.226 278.793 367.284 278.681 367.342 278.569L367.159 278.886Z" fill="#E6E6E6"/>
<path d="M363.457 286.052C362.649 287.517 361.955 289.042 361.38 290.614C360.618 293.159 360.114 295.774 359.875 298.42C359.687 299.925 359.629 301.846 360.571 302.579C360.842 302.759 361.169 302.834 361.491 302.79C361.812 302.746 362.107 302.587 362.32 302.342C362.844 301.788 363.272 301.151 363.588 300.457C365.441 297.266 366.879 293.853 367.869 290.298C368.771 286.554 368.762 282.147 367.168 278.906C365.931 281.288 364.694 283.67 363.457 286.052Z" fill="#232946"/>
<path d="M327.744 95.1493C328.332 95.7241 329.076 96.1143 329.883 96.2718C330.69 96.4293 331.525 96.3473 332.287 96.0358C333.862 95.3468 335.308 94.3919 336.56 93.2128C337.597 92.4456 338.477 91.4861 339.151 90.3866C339.522 89.7295 339.76 89.0056 339.851 88.2562C339.942 87.5069 339.884 86.747 339.681 86.0202C339.096 84.3084 337.611 83.7346 336.3 83.3461C334.203 82.7241 332.105 82.1022 330.008 81.4802L331.525 80.1127C329.964 79.2749 328.237 80.8297 327.261 82.7547C326.636 84.0117 326.2 85.3544 325.967 86.7391C325.445 89.7605 325.956 93.3586 327.744 95.1493Z" fill="#E6E6E6"/>
<path d="M364.775 82.7178C365.366 83.3695 366.183 83.7719 367.06 83.8432C367.937 83.9146 368.809 83.6496 369.497 83.102C370.09 82.6567 370.583 82.0916 370.943 81.4434C371.302 80.7952 371.522 80.0785 371.586 79.3399C371.735 77.6901 370.919 75.8563 369.754 75.7139L370.02 74.1692C367.776 73.7639 365.014 73.6827 363.811 76.4082C363.406 77.4523 363.281 78.5845 363.45 79.6917C363.619 80.799 364.076 81.8424 364.775 82.7178Z" fill="#E6E6E6"/>
<path d="M359.828 0.574079C346.67 -0.910117 333.462 2.89335 323.109 11.1478C312.755 19.4021 306.105 31.4313 304.621 44.589C301.53 71.9884 315.965 131.487 342.283 156.117C354.674 108.928 398.097 80.9382 403.843 55.7813C409.982 28.9003 387.227 3.66476 359.828 0.574079Z" fill="#D4939D"/>
<path d="M350.728 61.4859C359.721 61.4859 367.011 54.196 367.011 45.2034C367.011 36.2109 359.721 28.921 350.728 28.921C341.736 28.921 334.446 36.2109 334.446 45.2034C334.446 54.196 341.736 61.4859 350.728 61.4859Z" fill="white"/>
<path d="M333.608 179.594C339.498 179.594 344.273 174.819 344.273 168.929C344.273 163.039 339.498 158.265 333.608 158.265C327.718 158.265 322.943 163.039 322.943 168.929C322.943 174.819 327.718 179.594 333.608 179.594Z" fill="#D4939D"/>
<path opacity="0.2" d="M364.2 33.5379C366.033 34.6392 367.631 36.0907 368.903 37.8095C370.175 39.5284 371.095 41.4809 371.613 43.5556C372.13 45.6303 372.233 47.7865 371.917 49.9012C371.601 52.0159 370.872 54.0477 369.77 55.8804C368.669 57.7132 367.218 59.3111 365.499 60.5829C363.78 61.8547 361.827 62.7755 359.753 63.2928C355.563 64.3373 351.129 63.6746 347.428 61.4505C351.202 62.29 355.151 61.7591 358.57 59.9526C361.988 58.1462 364.652 55.1822 366.084 51.5912C367.517 48.0002 367.624 44.0166 366.388 40.3534C365.152 36.6902 362.653 33.5865 359.337 31.5978C361.052 31.9779 362.694 32.6331 364.2 33.5379V33.5379Z" fill="#231F20"/>
<path opacity="0.2" d="M403.907 55.8339C398.161 80.9907 354.738 108.981 342.347 156.17C339.872 153.831 337.573 151.313 335.469 148.635C349.394 104.279 390.114 77.3261 395.666 53.02C400.634 31.2656 386.677 10.591 366.651 1.85742C390.893 7.95139 409.533 31.2 403.907 55.8339Z" fill="#231F20"/>
<path d="M207.245 64.1055C197.364 62.991 187.445 65.8472 179.67 72.046C171.895 78.2448 166.901 87.2783 165.787 97.1592C163.466 117.735 174.306 162.417 194.069 180.913C203.375 145.476 235.984 124.456 240.299 105.564C244.909 85.3776 227.821 66.4265 207.245 64.1055Z" fill="#D4939D"/>
<path d="M200.412 109.848C207.165 109.848 212.639 104.374 212.639 97.6207C212.639 90.8677 207.165 85.3932 200.412 85.3932C193.659 85.3932 188.184 90.8677 188.184 97.6207C188.184 104.374 193.659 109.848 200.412 109.848Z" fill="white"/>
<path d="M187.555 198.543C191.978 198.543 195.563 194.958 195.563 190.535C195.563 186.112 191.978 182.526 187.555 182.526C183.132 182.526 179.546 186.112 179.546 190.535C179.546 194.958 183.132 198.543 187.555 198.543Z" fill="#D4939D"/>
<path opacity="0.2" d="M210.529 88.8603C211.905 89.6873 213.105 90.7774 214.06 92.0681C215.015 93.3589 215.707 94.8252 216.095 96.3832C216.483 97.9413 216.561 99.5605 216.324 101.149C216.086 102.737 215.539 104.262 214.712 105.639C213.885 107.015 212.795 108.215 211.504 109.17C210.213 110.125 208.747 110.817 207.189 111.205C205.631 111.594 204.011 111.671 202.423 111.434C200.835 111.197 199.309 110.649 197.933 109.822C200.767 110.452 203.733 110.053 206.3 108.697C208.867 107.34 210.867 105.114 211.943 102.418C213.019 99.721 213.1 96.7295 212.172 93.9785C211.243 91.2276 209.366 88.8968 206.876 87.4033C208.165 87.6888 209.398 88.1808 210.529 88.8603Z" fill="#231F20"/>
<path opacity="0.2" d="M240.347 105.604C236.032 124.496 203.423 145.515 194.117 180.952C192.259 179.196 190.532 177.305 188.953 175.294C199.41 141.984 229.989 121.744 234.158 103.491C237.889 87.1539 227.408 71.628 212.369 65.0693C230.574 69.6457 244.572 87.1046 240.347 105.604Z" fill="#231F20"/>
<path d="M511.722 56.7598C508.197 55.3605 504.431 54.6692 500.639 54.7255C496.847 54.7817 493.103 55.5843 489.621 57.0875C486.139 58.5906 482.987 60.7649 480.345 63.4862C477.703 66.2074 475.623 69.4224 474.224 72.9475C468.339 87.7725 467.364 123.176 478.315 140.919C492.396 116.46 520.884 107.428 527.91 94.2582C535.418 80.1854 526.547 62.6446 511.722 56.7598Z" fill="#D4939D"/>
<path d="M499.867 89.709C505.069 89.709 509.286 85.492 509.286 80.2901C509.286 75.0882 505.069 70.8712 499.867 70.8712C494.665 70.8712 490.448 75.0882 490.448 80.2901C490.448 85.492 494.665 89.709 499.867 89.709Z" fill="white"/>
<path d="M471.528 152.923C474.935 152.923 477.697 150.161 477.697 146.754C477.697 143.347 474.935 140.585 471.528 140.585C468.12 140.585 465.358 143.347 465.358 146.754C465.358 150.161 468.12 152.923 471.528 152.923Z" fill="#D4939D"/>
<path opacity="0.2" d="M509.158 75.8237C510.884 77.6277 511.823 80.0429 511.768 82.5387C511.714 85.0345 510.671 87.4066 508.869 89.1339C507.067 90.8613 504.653 91.8025 502.157 91.7507C499.661 91.699 497.288 90.6586 495.559 88.858C497.538 89.8995 499.823 90.2027 502.005 89.7133C504.187 89.2239 506.124 87.9739 507.469 86.1869C508.814 84.3999 509.479 82.1927 509.345 79.9602C509.211 77.7278 508.287 75.6159 506.738 74.0024C507.638 74.475 508.455 75.09 509.158 75.8237Z" fill="#231F20"/>
<path opacity="0.2" d="M527.937 94.2972C520.911 107.467 492.423 116.499 478.343 140.958C477.316 139.277 476.415 137.522 475.647 135.708C490.154 113.063 516.976 104.2 523.764 91.4754C529.84 80.0865 525.188 66.4273 515.336 58.512C527.942 65.5938 534.818 81.4009 527.937 94.2972Z" fill="#231F20"/>
<path d="M536.884 311.048C527.31 311.048 516.816 310.686 505.403 309.963C446.368 306.214 369.901 293.183 290.087 273.269C210.273 253.355 136.647 228.937 82.7725 204.514C56.5286 192.617 36.3867 181.355 22.9067 171.041C8.63483 160.123 2.39215 150.605 4.35127 142.754C8.16854 127.46 41.9686 124.114 69.6513 124L69.6607 126.224C31.6451 126.38 9.21779 132.442 6.50991 143.293C3.06054 157.113 31.1922 178.689 83.691 202.488C137.447 226.857 210.938 251.228 290.626 271.111C370.313 290.993 446.64 304.003 505.544 307.743C563.069 311.396 598.042 305.565 601.491 291.745C604.354 280.27 585.475 263.367 548.332 244.147L549.355 242.172C576.343 256.137 607.671 276.167 603.649 292.283C601.69 300.134 591.707 305.603 573.978 308.537C563.871 310.21 551.458 311.048 536.884 311.048Z" fill="#D4939D" stroke="#D4939D" stroke-width="7"/>
</svg>
