<svg width="810" height="603" viewBox="0 0 810 603" fill="none" xmlns="http://www.w3.org/2000/svg">
<g clip-path="url(#clip0_3_566)">
<path d="M269.233 22.8185C460.085 -33.0676 654.043 18.8503 745.819 146.644C776.406 189.237 801.284 239.414 807.819 294.573C814.353 349.719 802.558 409.883 759.739 472.476C700.648 558.856 631.959 592.817 567.007 600.032C502.028 607.251 440.729 587.708 396.442 566.963C347.122 543.861 293.153 526.894 235.854 516.794C176.668 506.361 101.912 484.789 52.7293 440.273C28.1495 418.026 9.96454 390.056 3.28958 354.878C-3.38619 319.695 1.44165 277.254 22.976 226.055C71.1452 111.529 168.346 52.3606 269.233 22.8185Z" fill="#EEBBC3" stroke="#EEBBC3"/>
<path d="M700.949 137.501C615.826 18.1045 436.006 -30.3279 259.16 21.8349C165.666 49.4118 75.521 104.666 30.8473 211.657C-49.0116 402.913 118.662 463.996 228.303 483.464C281.319 492.878 331.251 508.69 376.88 530.219C458.97 568.952 604.275 603.274 713.844 441.934C793.26 324.994 757.65 217.031 700.949 137.501Z" fill="#F2F2F2"/>
<mask id="path-3-inside-1_3_566" fill="white">
<path d="M213.226 171.68C212.969 169.645 212.449 167.653 211.679 165.752C211.581 165.393 211.409 165.058 211.174 164.769C210.939 164.479 210.647 164.242 210.316 164.072C209.873 163.957 209.408 163.952 208.963 164.057L202.019 165.12C201.437 165.147 200.881 165.363 200.434 165.736C199.53 166.688 200.42 168.221 200.393 169.534C200.362 171.011 199.051 172.209 197.629 172.606C196.177 172.899 194.68 172.881 193.237 172.551L183.527 171.041C186.386 170.128 188.932 168.428 190.873 166.136C192.15 164.621 192.83 161.793 190.983 161.076C190.435 160.925 189.863 160.879 189.297 160.94C184.897 160.975 181.436 157.299 177.317 155.751C174.681 154.824 171.82 154.755 169.142 155.554C166.465 156.353 164.108 157.978 162.409 160.198L167.582 160.447C168.069 160.421 168.551 160.549 168.96 160.815C170.094 161.747 168.684 163.537 168.844 164.997C169.051 166.893 171.567 167.298 173.464 167.489C175.361 167.681 177.767 169.223 176.854 170.898C167.322 174.183 157.622 164.475 147.611 165.671C145.077 165.973 142.685 166.969 140.211 167.595C125.1 171.421 109.477 161.213 94.04 163.375C90.6081 163.961 87.2352 164.851 83.9612 166.035C81.8602 166.725 79.6687 167.471 78.1422 169.072C76.6156 170.673 76.0346 173.411 77.4808 175.085C73.4947 175.414 69.4819 175.032 65.6291 173.958C66.671 174.537 67.5377 175.387 68.1384 176.417C68.739 177.448 69.0514 178.621 69.0427 179.813C62.8189 180.829 56.7599 182.678 51.0287 185.31C52.0983 187.09 53.3477 188.755 54.7571 190.28L46.8779 195.345C49.5399 196.016 50.9162 199.649 49.3682 201.917C52.1283 200.688 53.839 197.51 56.7905 196.865C58.7241 196.443 60.6917 197.235 62.526 197.978C64.3604 198.722 66.3765 199.443 68.2755 198.885C70.1744 198.327 71.5751 195.863 70.3684 194.293C78.485 191.923 86.8734 190.612 95.3255 190.391C95.9776 190.309 96.6389 190.435 97.2157 190.75C98.3159 191.514 98.0265 193.164 97.9672 194.503C97.9079 195.841 98.9506 197.601 100.146 196.997C98.7396 198.218 99.9421 200.516 101.292 201.799C102.641 203.083 104.268 204.854 103.442 206.524C103.226 206.96 102.86 207.308 102.653 207.748C102.04 209.046 103.013 210.559 104.16 211.421C105.307 212.283 106.712 212.885 107.508 214.079C108.305 215.273 107.943 217.362 106.519 217.528L102.469 212.383C101.086 213.819 100.137 215.618 99.7336 217.571C104.028 221.084 104.674 228.233 101.079 232.46C99.2415 234.62 96.6289 235.932 94.3486 237.617C92.0684 239.301 89.9585 241.7 89.9642 244.536C89.9741 249.436 89.574 253.989 91.4089 258.532C94.7926 266.909 98.6992 275.064 103.106 282.951C104.263 285.021 105.758 287.291 108.102 287.648C105.14 280.431 102.473 273.102 100.102 265.661C101.646 265.667 103.431 265.789 104.336 267.041C105.086 268.078 104.925 269.488 105.158 270.746C105.454 271.965 105.948 273.127 106.62 274.187L120.767 299.403C121.94 301.493 123.285 303.737 125.526 304.583C126.959 305.125 128.617 305.023 129.936 305.802C130.97 306.413 131.666 307.497 132.72 308.072C135.7 309.699 139.844 306.579 142.629 308.521C143.426 309.077 143.932 309.959 144.666 310.595C147.238 312.824 151.458 311.333 154.427 312.995C156.341 314.067 157.332 316.21 158.353 318.152C160.91 323.017 165.047 327.783 170.526 328.171C172.247 328.292 174.005 327.966 175.688 328.349C177.37 328.732 179.026 330.201 178.756 331.907C178.293 334.83 179.737 338.032 179.349 340.966C178.643 346.311 171.066 348.66 170.415 354.013C170.273 355.185 170.496 356.394 170.217 357.541C169.875 358.947 168.82 360.092 168.445 361.489C167.734 364.137 169.63 366.773 171.713 368.555C173.796 370.336 176.281 371.872 177.42 374.366C178.623 377.003 178.032 380.076 178.423 382.948C179.278 389.217 184.689 393.864 190.258 396.861C191.955 397.774 193.776 398.658 194.875 400.242C196.308 402.309 196.165 405.034 196.644 407.504C197.816 413.554 202.905 418.538 203.05 424.698C203.152 429.077 200.72 433.049 199.267 437.181C197.905 441.139 197.412 445.345 197.822 449.511C198.232 453.677 199.535 457.706 201.643 461.323C202.729 463.159 204.029 464.891 204.798 466.882C206.17 470.435 205.725 474.473 206.99 478.066C208.663 482.815 213.259 486.738 212.819 491.755C214.905 496.091 219.513 498.221 224.146 499.512L232.449 501.825C234.039 502.267 235.701 502.714 237.32 502.393C238.939 502.072 240.484 500.727 240.442 499.076C236.37 498.157 232.167 497.18 228.811 494.697C225.454 492.214 223.155 487.793 224.428 483.815C225.019 481.971 226.275 479.841 225.081 478.317C224.397 477.444 223.146 477.216 222.375 476.42C221.172 475.178 221.585 473.092 222.45 471.594C223.315 470.097 224.565 468.759 224.914 467.065C225.09 466.117 224.973 465.138 224.577 464.259C224.181 463.38 223.527 462.644 222.7 462.148C224.24 461.566 225.64 460.667 226.81 459.509C227.891 458.274 228.39 456.37 227.54 454.966C230.065 455.286 233.046 455.443 234.703 453.51C236.027 451.967 235.936 449.66 235.413 447.694C234.89 445.729 234.006 443.821 233.978 441.787C239.803 442.063 245.64 441.865 251.432 441.195C250.594 438.372 248.691 435.987 246.125 434.545C248.749 434.101 251.139 430.958 251.967 428.428C252.796 425.898 252.585 423.143 252.073 420.53C251.876 419.857 251.849 419.146 251.994 418.461C252.29 417.519 253.214 416.944 254.07 416.452L267.091 408.969C267.868 408.58 268.572 408.059 269.173 407.431C270.537 405.828 270.335 403.407 269.637 401.42C268.938 399.434 267.819 397.566 267.55 395.477C266.746 389.231 273.428 384.749 275.683 378.869C276.568 376.562 276.748 374.053 276.92 371.588C277.103 368.94 277.117 365.864 275.085 364.157C273.137 362.521 270.094 362.886 268.056 361.364C266.187 359.969 265.542 357.26 263.501 356.133C261.647 355.11 259.322 355.76 257.26 355.279C253.63 354.432 251.345 350.245 247.637 349.857C245.545 349.638 243.178 350.662 241.463 349.443C239.952 348.368 239.892 346.209 239.604 344.377C239.1 341.53 237.736 338.905 235.696 336.857C233.656 334.809 231.038 333.436 228.194 332.922C226.037 332.576 223.689 332.708 221.854 331.522C219.996 330.32 219.144 328.072 217.685 326.409C215.332 323.728 211.628 322.775 208.157 321.959L194.041 318.638C191.535 318.049 188.305 317.736 186.96 319.933C186.562 320.769 186.28 321.656 186.122 322.569C185.618 324.22 184.604 325.669 183.226 326.707C181.847 327.745 180.175 328.32 178.45 328.347C177.267 326.328 175.351 324.844 173.1 324.205C171.669 323.806 170.137 323.761 168.771 323.174C168.028 322.811 167.366 322.3 166.827 321.672C166.288 321.044 165.882 320.313 165.635 319.522C165.388 318.732 165.305 317.9 165.391 317.077C165.476 316.253 165.729 315.456 166.133 314.733C166.947 313.283 167.261 311.606 167.027 309.959C166.794 308.313 166.025 306.789 164.84 305.623C162.439 303.466 158.966 302.945 155.747 303.161C154.904 301.32 156.314 299.243 157.833 297.906C159.352 296.568 161.197 295.253 161.527 293.255C162.048 290.113 158.041 287.726 154.999 288.663C151.957 289.6 150.015 292.557 148.731 295.472C147.995 297.144 147.369 298.905 146.207 300.315C145.046 301.725 143.175 302.735 141.405 302.282C138.9 301.642 137.933 298.664 137.379 296.137C136.635 292.746 135.887 289.309 136.042 285.841C136.198 282.373 137.366 278.813 139.922 276.465C144.086 272.64 150.474 273.015 156.094 273.625C154.766 272.128 155.094 269.605 156.515 268.196C157.265 267.53 158.166 267.056 159.14 266.816C160.114 266.577 161.132 266.579 162.105 266.822C163.799 267.175 165.324 268.087 166.436 269.413C168.033 271.361 168.487 273.992 169.695 276.204C170.902 278.415 173.616 280.301 175.838 279.115C177.756 278.09 178.061 275.428 177.583 273.304C177.106 271.181 176.091 269.116 176.264 266.946C176.595 262.806 180.883 260.314 184.668 258.61C188.452 256.905 192.785 254.612 193.385 250.502C193.406 249.698 193.557 248.902 193.834 248.146C194.254 247.479 194.837 246.93 195.529 246.551C206.574 239.247 217.802 231.854 230.426 227.863C231.083 227.655 231.16 227.886 231.829 227.724C232.766 227.182 232.145 225.683 231.247 225.079C230.349 224.476 229.149 224.013 228.921 222.954C228.753 222.176 229.211 221.412 229.33 220.625C229.623 218.692 227.311 216.906 225.516 217.679C224.502 216.336 226.508 214.774 228.131 214.327C233.003 212.985 238.004 212.168 243.049 211.888C243.631 211.796 244.228 211.897 244.747 212.177C245.594 212.765 245.486 214.112 244.885 214.95C244.285 215.789 243.35 216.315 242.602 217.025C241.784 217.822 241.201 218.828 240.916 219.934C240.631 221.04 240.655 222.203 240.986 223.297C243.619 224.637 246.483 226.018 249.4 225.545C252.317 225.073 254.907 221.793 253.535 219.174C252.258 216.734 248.423 216.184 247.763 213.511C246.991 210.381 251.419 207.597 250.422 204.531C249.985 203.188 248.647 202.398 247.621 201.428C246.409 200.24 245.585 198.712 245.256 197.046C244.928 195.38 245.11 193.653 245.78 192.093C244.108 192.387 242.391 192.276 240.771 191.769C239.151 191.262 237.677 190.373 236.471 189.178C234.244 186.929 232.468 183.382 229.306 183.483C226.404 183.575 223.905 186.962 221.192 185.929C220.524 185.675 219.821 185.157 219.174 185.46C218.962 185.598 218.784 185.782 218.654 185.999C218.523 186.215 218.444 186.459 218.421 186.711C217.732 190.009 218.918 193.768 217.121 196.618C215.166 199.72 210.644 200.15 208.274 202.947C206.987 204.465 206.489 206.511 205.306 208.112C204.123 209.713 201.613 210.73 200.194 209.335C200.892 207.901 201.082 206.271 200.734 204.714C200.387 203.157 199.522 201.764 198.28 200.762C196.962 199.902 195.542 199.211 194.052 198.705C192.388 198 190.804 197.116 189.329 196.071C188.59 195.625 187.99 194.982 187.595 194.214C187.283 193.253 187.325 192.211 187.714 191.278C188.434 189.214 189.703 187.385 191.386 185.99C193.068 184.594 195.099 183.685 197.26 183.361C199.15 183.103 201.349 183.194 202.6 181.753C203.261 180.991 203.609 179.838 204.569 179.529C205.183 179.405 205.821 179.484 206.387 179.753L213.44 182.237C214.227 182.593 215.093 182.736 215.953 182.653C216.379 182.595 216.768 182.379 217.041 182.047C217.314 181.714 217.452 181.291 217.426 180.861C217.201 179.689 215.398 179.127 215.562 177.945C215.654 177.562 215.86 177.215 216.153 176.952C218.698 174.241 221.811 172.127 225.268 170.76C228.726 169.394 232.442 168.81 236.152 169.049C237.042 170.512 235.634 172.244 234.463 173.493C233.291 174.742 232.35 176.974 233.767 177.935C234.347 178.232 234.993 178.377 235.645 178.359C237.381 178.594 239.069 179.106 240.643 179.876C243.08 180.937 245.471 182.098 247.815 183.359C247.608 181.813 247.41 180.184 247.996 178.738C248.581 177.292 250.246 176.158 251.7 176.721C253.101 177.264 253.82 179.121 255.313 179.291C257.304 179.518 258.09 176.574 257.258 174.749C256.426 172.924 254.78 171.396 254.642 169.395C254.549 168.045 255.063 166.371 253.985 165.554C253.602 165.308 253.167 165.156 252.714 165.108L225.808 160.153C224.21 159.859 221.902 160.085 221.831 161.709C221.791 162.615 222.6 163.512 222.242 164.346C221.859 165.235 220.603 165.154 219.687 165.468C218.267 165.957 217.554 167.644 217.691 169.141C217.941 170.628 218.516 172.041 219.376 173.279C217.626 172.547 214.976 172.412 213.226 171.68Z"/>
</mask>
<path d="M213.226 171.68C212.969 169.645 212.449 167.653 211.679 165.752C211.581 165.393 211.409 165.058 211.174 164.769C210.939 164.479 210.647 164.242 210.316 164.072C209.873 163.957 209.408 163.952 208.963 164.057L202.019 165.12C201.437 165.147 200.881 165.363 200.434 165.736C199.53 166.688 200.42 168.221 200.393 169.534C200.362 171.011 199.051 172.209 197.629 172.606C196.177 172.899 194.68 172.881 193.237 172.551L183.527 171.041C186.386 170.128 188.932 168.428 190.873 166.136C192.15 164.621 192.83 161.793 190.983 161.076C190.435 160.925 189.863 160.879 189.297 160.94C184.897 160.975 181.436 157.299 177.317 155.751C174.681 154.824 171.82 154.755 169.142 155.554C166.465 156.353 164.108 157.978 162.409 160.198L167.582 160.447C168.069 160.421 168.551 160.549 168.96 160.815C170.094 161.747 168.684 163.537 168.844 164.997C169.051 166.893 171.567 167.298 173.464 167.489C175.361 167.681 177.767 169.223 176.854 170.898C167.322 174.183 157.622 164.475 147.611 165.671C145.077 165.973 142.685 166.969 140.211 167.595C125.1 171.421 109.477 161.213 94.04 163.375C90.6081 163.961 87.2352 164.851 83.9612 166.035C81.8602 166.725 79.6687 167.471 78.1422 169.072C76.6156 170.673 76.0346 173.411 77.4808 175.085C73.4947 175.414 69.4819 175.032 65.6291 173.958C66.671 174.537 67.5377 175.387 68.1384 176.417C68.739 177.448 69.0514 178.621 69.0427 179.813C62.8189 180.829 56.7599 182.678 51.0287 185.31C52.0983 187.09 53.3477 188.755 54.7571 190.28L46.8779 195.345C49.5399 196.016 50.9162 199.649 49.3682 201.917C52.1283 200.688 53.839 197.51 56.7905 196.865C58.7241 196.443 60.6917 197.235 62.526 197.978C64.3604 198.722 66.3765 199.443 68.2755 198.885C70.1744 198.327 71.5751 195.863 70.3684 194.293C78.485 191.923 86.8734 190.612 95.3255 190.391C95.9776 190.309 96.6389 190.435 97.2157 190.75C98.3159 191.514 98.0265 193.164 97.9672 194.503C97.9079 195.841 98.9506 197.601 100.146 196.997C98.7396 198.218 99.9421 200.516 101.292 201.799C102.641 203.083 104.268 204.854 103.442 206.524C103.226 206.96 102.86 207.308 102.653 207.748C102.04 209.046 103.013 210.559 104.16 211.421C105.307 212.283 106.712 212.885 107.508 214.079C108.305 215.273 107.943 217.362 106.519 217.528L102.469 212.383C101.086 213.819 100.137 215.618 99.7336 217.571C104.028 221.084 104.674 228.233 101.079 232.46C99.2415 234.62 96.6289 235.932 94.3486 237.617C92.0684 239.301 89.9585 241.7 89.9642 244.536C89.9741 249.436 89.574 253.989 91.4089 258.532C94.7926 266.909 98.6992 275.064 103.106 282.951C104.263 285.021 105.758 287.291 108.102 287.648C105.14 280.431 102.473 273.102 100.102 265.661C101.646 265.667 103.431 265.789 104.336 267.041C105.086 268.078 104.925 269.488 105.158 270.746C105.454 271.965 105.948 273.127 106.62 274.187L120.767 299.403C121.94 301.493 123.285 303.737 125.526 304.583C126.959 305.125 128.617 305.023 129.936 305.802C130.97 306.413 131.666 307.497 132.72 308.072C135.7 309.699 139.844 306.579 142.629 308.521C143.426 309.077 143.932 309.959 144.666 310.595C147.238 312.824 151.458 311.333 154.427 312.995C156.341 314.067 157.332 316.21 158.353 318.152C160.91 323.017 165.047 327.783 170.526 328.171C172.247 328.292 174.005 327.966 175.688 328.349C177.37 328.732 179.026 330.201 178.756 331.907C178.293 334.83 179.737 338.032 179.349 340.966C178.643 346.311 171.066 348.66 170.415 354.013C170.273 355.185 170.496 356.394 170.217 357.541C169.875 358.947 168.82 360.092 168.445 361.489C167.734 364.137 169.63 366.773 171.713 368.555C173.796 370.336 176.281 371.872 177.42 374.366C178.623 377.003 178.032 380.076 178.423 382.948C179.278 389.217 184.689 393.864 190.258 396.861C191.955 397.774 193.776 398.658 194.875 400.242C196.308 402.309 196.165 405.034 196.644 407.504C197.816 413.554 202.905 418.538 203.05 424.698C203.152 429.077 200.72 433.049 199.267 437.181C197.905 441.139 197.412 445.345 197.822 449.511C198.232 453.677 199.535 457.706 201.643 461.323C202.729 463.159 204.029 464.891 204.798 466.882C206.17 470.435 205.725 474.473 206.99 478.066C208.663 482.815 213.259 486.738 212.819 491.755C214.905 496.091 219.513 498.221 224.146 499.512L232.449 501.825C234.039 502.267 235.701 502.714 237.32 502.393C238.939 502.072 240.484 500.727 240.442 499.076C236.37 498.157 232.167 497.18 228.811 494.697C225.454 492.214 223.155 487.793 224.428 483.815C225.019 481.971 226.275 479.841 225.081 478.317C224.397 477.444 223.146 477.216 222.375 476.42C221.172 475.178 221.585 473.092 222.45 471.594C223.315 470.097 224.565 468.759 224.914 467.065C225.09 466.117 224.973 465.138 224.577 464.259C224.181 463.38 223.527 462.644 222.7 462.148C224.24 461.566 225.64 460.667 226.81 459.509C227.891 458.274 228.39 456.37 227.54 454.966C230.065 455.286 233.046 455.443 234.703 453.51C236.027 451.967 235.936 449.66 235.413 447.694C234.89 445.729 234.006 443.821 233.978 441.787C239.803 442.063 245.64 441.865 251.432 441.195C250.594 438.372 248.691 435.987 246.125 434.545C248.749 434.101 251.139 430.958 251.967 428.428C252.796 425.898 252.585 423.143 252.073 420.53C251.876 419.857 251.849 419.146 251.994 418.461C252.29 417.519 253.214 416.944 254.07 416.452L267.091 408.969C267.868 408.58 268.572 408.059 269.173 407.431C270.537 405.828 270.335 403.407 269.637 401.42C268.938 399.434 267.819 397.566 267.55 395.477C266.746 389.231 273.428 384.749 275.683 378.869C276.568 376.562 276.748 374.053 276.92 371.588C277.103 368.94 277.117 365.864 275.085 364.157C273.137 362.521 270.094 362.886 268.056 361.364C266.187 359.969 265.542 357.26 263.501 356.133C261.647 355.11 259.322 355.76 257.26 355.279C253.63 354.432 251.345 350.245 247.637 349.857C245.545 349.638 243.178 350.662 241.463 349.443C239.952 348.368 239.892 346.209 239.604 344.377C239.1 341.53 237.736 338.905 235.696 336.857C233.656 334.809 231.038 333.436 228.194 332.922C226.037 332.576 223.689 332.708 221.854 331.522C219.996 330.32 219.144 328.072 217.685 326.409C215.332 323.728 211.628 322.775 208.157 321.959L194.041 318.638C191.535 318.049 188.305 317.736 186.96 319.933C186.562 320.769 186.28 321.656 186.122 322.569C185.618 324.22 184.604 325.669 183.226 326.707C181.847 327.745 180.175 328.32 178.45 328.347C177.267 326.328 175.351 324.844 173.1 324.205C171.669 323.806 170.137 323.761 168.771 323.174C168.028 322.811 167.366 322.3 166.827 321.672C166.288 321.044 165.882 320.313 165.635 319.522C165.388 318.732 165.305 317.9 165.391 317.077C165.476 316.253 165.729 315.456 166.133 314.733C166.947 313.283 167.261 311.606 167.027 309.959C166.794 308.313 166.025 306.789 164.84 305.623C162.439 303.466 158.966 302.945 155.747 303.161C154.904 301.32 156.314 299.243 157.833 297.906C159.352 296.568 161.197 295.253 161.527 293.255C162.048 290.113 158.041 287.726 154.999 288.663C151.957 289.6 150.015 292.557 148.731 295.472C147.995 297.144 147.369 298.905 146.207 300.315C145.046 301.725 143.175 302.735 141.405 302.282C138.9 301.642 137.933 298.664 137.379 296.137C136.635 292.746 135.887 289.309 136.042 285.841C136.198 282.373 137.366 278.813 139.922 276.465C144.086 272.64 150.474 273.015 156.094 273.625C154.766 272.128 155.094 269.605 156.515 268.196C157.265 267.53 158.166 267.056 159.14 266.816C160.114 266.577 161.132 266.579 162.105 266.822C163.799 267.175 165.324 268.087 166.436 269.413C168.033 271.361 168.487 273.992 169.695 276.204C170.902 278.415 173.616 280.301 175.838 279.115C177.756 278.09 178.061 275.428 177.583 273.304C177.106 271.181 176.091 269.116 176.264 266.946C176.595 262.806 180.883 260.314 184.668 258.61C188.452 256.905 192.785 254.612 193.385 250.502C193.406 249.698 193.557 248.902 193.834 248.146C194.254 247.479 194.837 246.93 195.529 246.551C206.574 239.247 217.802 231.854 230.426 227.863C231.083 227.655 231.16 227.886 231.829 227.724C232.766 227.182 232.145 225.683 231.247 225.079C230.349 224.476 229.149 224.013 228.921 222.954C228.753 222.176 229.211 221.412 229.33 220.625C229.623 218.692 227.311 216.906 225.516 217.679C224.502 216.336 226.508 214.774 228.131 214.327C233.003 212.985 238.004 212.168 243.049 211.888C243.631 211.796 244.228 211.897 244.747 212.177C245.594 212.765 245.486 214.112 244.885 214.95C244.285 215.789 243.35 216.315 242.602 217.025C241.784 217.822 241.201 218.828 240.916 219.934C240.631 221.04 240.655 222.203 240.986 223.297C243.619 224.637 246.483 226.018 249.4 225.545C252.317 225.073 254.907 221.793 253.535 219.174C252.258 216.734 248.423 216.184 247.763 213.511C246.991 210.381 251.419 207.597 250.422 204.531C249.985 203.188 248.647 202.398 247.621 201.428C246.409 200.24 245.585 198.712 245.256 197.046C244.928 195.38 245.11 193.653 245.78 192.093C244.108 192.387 242.391 192.276 240.771 191.769C239.151 191.262 237.677 190.373 236.471 189.178C234.244 186.929 232.468 183.382 229.306 183.483C226.404 183.575 223.905 186.962 221.192 185.929C220.524 185.675 219.821 185.157 219.174 185.46C218.962 185.598 218.784 185.782 218.654 185.999C218.523 186.215 218.444 186.459 218.421 186.711C217.732 190.009 218.918 193.768 217.121 196.618C215.166 199.72 210.644 200.15 208.274 202.947C206.987 204.465 206.489 206.511 205.306 208.112C204.123 209.713 201.613 210.73 200.194 209.335C200.892 207.901 201.082 206.271 200.734 204.714C200.387 203.157 199.522 201.764 198.28 200.762C196.962 199.902 195.542 199.211 194.052 198.705C192.388 198 190.804 197.116 189.329 196.071C188.59 195.625 187.99 194.982 187.595 194.214C187.283 193.253 187.325 192.211 187.714 191.278C188.434 189.214 189.703 187.385 191.386 185.99C193.068 184.594 195.099 183.685 197.26 183.361C199.15 183.103 201.349 183.194 202.6 181.753C203.261 180.991 203.609 179.838 204.569 179.529C205.183 179.405 205.821 179.484 206.387 179.753L213.44 182.237C214.227 182.593 215.093 182.736 215.953 182.653C216.379 182.595 216.768 182.379 217.041 182.047C217.314 181.714 217.452 181.291 217.426 180.861C217.201 179.689 215.398 179.127 215.562 177.945C215.654 177.562 215.86 177.215 216.153 176.952C218.698 174.241 221.811 172.127 225.268 170.76C228.726 169.394 232.442 168.81 236.152 169.049C237.042 170.512 235.634 172.244 234.463 173.493C233.291 174.742 232.35 176.974 233.767 177.935C234.347 178.232 234.993 178.377 235.645 178.359C237.381 178.594 239.069 179.106 240.643 179.876C243.08 180.937 245.471 182.098 247.815 183.359C247.608 181.813 247.41 180.184 247.996 178.738C248.581 177.292 250.246 176.158 251.7 176.721C253.101 177.264 253.82 179.121 255.313 179.291C257.304 179.518 258.09 176.574 257.258 174.749C256.426 172.924 254.78 171.396 254.642 169.395C254.549 168.045 255.063 166.371 253.985 165.554C253.602 165.308 253.167 165.156 252.714 165.108L225.808 160.153C224.21 159.859 221.902 160.085 221.831 161.709C221.791 162.615 222.6 163.512 222.242 164.346C221.859 165.235 220.603 165.154 219.687 165.468C218.267 165.957 217.554 167.644 217.691 169.141C217.941 170.628 218.516 172.041 219.376 173.279C217.626 172.547 214.976 172.412 213.226 171.68Z" fill="#3F3D56" stroke="#EEBBC3" stroke-width="2" mask="url(#path-3-inside-1_3_566)"/>
<path d="M191.757 148.825C190.061 148.263 188.232 148.237 186.52 148.75C184.808 149.263 183.295 150.29 182.187 151.693C181.744 152.277 181.372 153.081 181.742 153.713C182.274 154.619 183.629 154.261 184.628 153.937C186.096 153.412 187.694 153.374 189.186 153.829C190.124 154.151 190.963 154.72 191.905 155.03C192.364 155.222 192.866 155.286 193.358 155.214C193.849 155.142 194.313 154.937 194.697 154.622C195.344 153.962 195.384 152.936 195.385 152.012C195.43 151.703 195.405 151.388 195.313 151.089C195.22 150.791 195.063 150.517 194.851 150.287C194.474 150.069 194.05 149.943 193.615 149.921C192.64 149.741 191.759 149.226 191.123 148.465" fill="#3F3D56"/>
<path d="M201.459 146.122C201.08 146.101 200.701 146.178 200.36 146.346C200.019 146.515 199.726 146.768 199.511 147.081C199.296 147.395 199.165 147.759 199.131 148.138C199.097 148.517 199.161 148.898 199.317 149.245C200.483 149.564 201.701 149.643 202.899 149.479C203.496 149.386 204.053 149.119 204.498 148.71C204.944 148.301 205.258 147.77 205.402 147.182C203.993 147.439 202.538 147.161 201.322 146.402" fill="#3F3D56"/>
<path d="M234.01 141.607C230.836 142.283 227.753 143.331 224.825 144.73C226.205 145.261 227.379 146.221 228.172 147.47C228.966 148.719 229.338 150.189 229.233 151.665C229.109 152.232 229.123 152.82 229.274 153.38C229.612 154.199 230.589 154.506 231.449 154.716C232.993 155.186 234.605 155.392 236.217 155.325C237.024 155.283 237.807 155.04 238.496 154.618C239.186 154.197 239.759 153.61 240.164 152.911C240.398 152.248 240.672 151.599 240.985 150.97C243.045 147.83 249.165 151.626 251.376 148.592C252.155 147.523 252.084 145.914 253.1 145.067C253.625 144.698 254.234 144.466 254.871 144.391C259.319 143.507 263.811 142.866 268.329 142.473C270.469 142.286 273.259 141.517 273.277 139.368C265.215 137.783 256.855 138.908 249.498 142.569C246.847 143.897 243.342 146.692 240.788 144.93C239.832 144.271 239.88 142.495 238.564 141.754C237.219 140.995 235.438 141.304 234.01 141.607Z" fill="#3F3D56"/>
<path d="M260.376 146.541L264.16 147.269C263.464 147.238 262.768 147.356 262.121 147.615C261.474 147.875 260.889 148.269 260.406 148.772C259.923 149.276 259.553 149.876 259.32 150.534C259.087 151.192 258.998 151.892 259.057 152.587C262.601 153.772 266.465 152.619 270.198 152.776C273.931 152.934 278.275 155.602 277.638 159.287C277.445 160.401 276.802 161.514 277.136 162.594C277.371 163.351 278.038 163.888 278.414 164.585C279.199 166.037 278.572 167.875 277.581 169.195C276.59 170.516 275.258 171.569 274.389 172.973C272.226 176.463 273.455 180.975 274.743 184.874C275.116 186.348 275.804 187.722 276.759 188.903C278.668 190.934 281.779 191.111 284.565 191.152C286.593 191.181 288.916 191.081 290.198 189.509C291.872 187.457 290.701 184.254 291.804 181.846C292.805 179.658 295.355 178.719 297.666 178.054C301.899 176.834 306.213 175.797 310.215 173.955C315.184 171.668 319.829 168.104 325.291 167.809C326.823 167.727 328.393 167.908 329.87 167.487C331.346 167.067 332.748 165.79 332.636 164.259C332.54 162.95 331.434 161.989 330.57 161.003C329.705 160.016 329.026 158.499 329.821 157.456L344.137 154.78C343.123 152.012 342.332 148.367 344.664 146.566C345.505 145.916 346.632 145.656 347.348 144.871C348.569 143.531 347.955 141.224 346.546 140.085C345.136 138.946 343.231 138.682 341.425 138.532C335.148 138.01 328.834 138.355 322.544 138.7C310.249 139.374 297.954 140.049 285.659 140.723C283.184 140.859 280.326 140.652 278.056 141.496C276.134 142.212 274.768 143.525 272.57 143.986C268.513 144.838 264.047 144.262 260.376 146.541Z" fill="#3F3D56"/>
<path d="M328.175 176.475C327.789 176.414 327.395 176.503 327.073 176.725C326.86 176.959 326.734 177.259 326.714 177.575C326.47 178.969 326.761 180.404 327.529 181.593C327.921 182.176 328.461 182.643 329.094 182.947C329.726 183.251 330.429 183.379 331.128 183.319C332.832 183.102 334.088 181.647 335.655 180.937C338.069 179.844 348.324 178.14 341.23 174.305C338.786 172.984 337.206 174.15 335.28 175.021C333.087 176.143 330.631 176.646 328.175 176.475V176.475Z" fill="#3F3D56"/>
<path d="M390.304 144.376C389.476 144.715 388.783 145.318 388.334 146.093C388.127 146.486 388.079 146.944 388.2 147.371C388.32 147.799 388.601 148.164 388.983 148.39C389.292 148.502 389.62 148.554 389.949 148.543L393.317 148.644C394.748 148.687 396.535 148.992 396.919 150.372C397.205 151.396 396.566 152.712 397.337 153.444C397.668 153.701 398.066 153.856 398.482 153.892C399.592 154.177 400.75 154.214 401.876 154.001C404.326 153.344 403.039 151.847 403.811 150.514C404.991 148.475 404.787 149.71 406.868 148.541C408.404 147.678 410.39 146.113 409.107 143.913C406.877 140.088 393.596 142.733 390.304 144.376Z" fill="#3F3D56"/>
<path d="M456.777 142.453L454.822 142.714C450.412 143.303 445.977 143.898 441.729 145.223C443.568 145.95 445.497 146.424 447.463 146.631C448.546 146.684 449.621 146.837 450.675 147.088C452.551 147.646 454.441 149.089 456.254 148.35C457.378 147.892 457.744 146.721 458.675 146.1C459.318 145.672 461.756 144.978 462.029 144.546C464.232 141.05 458.471 142.227 456.777 142.453Z" fill="#3F3D56"/>
<path d="M465.365 151.347C462.753 152.809 460.329 154.585 458.148 156.636C457.229 157.5 456.291 158.575 456.374 159.834C456.485 161.508 458.266 162.479 459.81 163.133L466.062 165.781C466.82 164.712 466.126 163.235 465.342 162.184C464.558 161.133 463.627 159.917 463.973 158.652C464.368 157.208 466.127 156.716 467.602 156.468C470.005 156.062 476.488 156.095 475.709 152.219C474.791 147.653 467.777 149.998 465.365 151.347Z" fill="#3F3D56"/>
<path d="M464.108 409.763C463.513 411.487 463.456 413.518 464.486 415.024C465.641 416.713 467.953 417.343 469.953 416.914C471.945 416.384 473.72 415.242 475.029 413.648C476.226 412.314 477.211 410.802 477.949 409.168C478.979 406.621 479.705 403.962 480.113 401.244L482.054 391.046C482.488 388.767 482.471 381.779 478.285 384.056C477.141 384.678 474.493 389.589 473.294 390.981C471.134 393.491 470.849 395.926 469.711 398.966C468.287 402.775 465.424 405.949 464.108 409.763Z" fill="#3F3D56"/>
<path d="M685.216 461.951C683.846 461.416 682.517 460.782 681.238 460.056C679.956 463.583 679.274 467.3 679.221 471.053L688.595 465.746C690.005 464.947 691.603 463.838 691.573 462.217C691.586 462.017 691.544 461.817 691.453 461.638C691.362 461.46 691.224 461.309 691.055 461.202C690.846 461.118 690.619 461.092 690.397 461.125C689.008 461.241 687.74 461.925 686.429 462.401C685.118 462.877 683.585 463.128 682.382 462.422" fill="#3F3D56"/>
<path d="M734.663 465.102C733.634 465.382 732.629 465.743 731.657 466.181C729.506 467.276 728.043 469.357 726.107 470.799C724.255 472.179 722.025 472.937 719.836 473.674C719.192 474.244 719.488 475.391 720.187 475.891C720.938 476.319 721.8 476.513 722.663 476.448C724.937 476.498 727.333 476.52 729.325 475.421C730.447 474.692 731.497 473.858 732.461 472.93C734.79 470.985 737.587 469.702 740.356 468.463C741.363 468.082 742.295 467.524 743.107 466.816C744.847 465.101 744.969 462.455 742.461 461.872C740.434 461.4 736.593 464.477 734.663 465.102Z" fill="#3F3D56"/>
<path d="M756.511 450.821C756.624 449.641 756.467 448.45 756.052 447.34C755.638 446.229 754.977 445.227 754.119 444.41C754.093 446.771 754.021 449.287 752.694 451.239C751.749 452.63 750.266 453.57 749.23 454.895C748.194 456.22 747.734 458.321 748.949 459.484C749.726 460.075 750.672 460.401 751.648 460.414C754.067 460.699 756.867 460.858 758.563 459.109C759.489 458.154 759.94 456.741 761.069 456.039C761.49 455.862 761.866 455.593 762.169 455.252C762.635 454.51 761.894 453.532 761.06 453.265C760.226 452.998 759.307 453.123 758.469 452.87C757.63 452.616 756.861 451.672 757.291 450.909" fill="#3F3D56"/>
<path d="M717.681 364.249C716.411 364.558 715.097 364.636 713.801 364.478C711.647 364.082 709.971 362.458 708.232 361.126C704.1 357.977 699.075 356.221 693.882 356.109C689.158 356.02 684.389 357.301 679.749 356.407C680.052 358.094 681.495 359.36 683.035 360.112C684.574 360.864 686.273 361.242 687.82 361.979C690.297 363.171 692.262 365.217 693.354 367.741C693.853 368.904 694.166 370.171 694.921 371.187C696.463 373.264 699.387 373.72 701.967 373.55C705.331 373.328 708.845 372.36 711.975 373.614C714.369 374.574 716.082 376.671 718.082 378.301C720.081 379.932 722.896 381.142 725.192 379.965C722.808 379.193 720.732 377.678 719.269 375.642C717.806 373.606 717.032 371.155 717.059 368.647C719.31 368.855 725.795 368.774 725.446 364.946C725.15 361.702 719.614 363.899 717.681 364.249Z" fill="#3F3D56"/>
<path d="M688.228 390.645C688.627 388.451 690.814 386.514 690.133 384.39C689.662 382.922 687.96 382.197 686.419 382.16C684.879 382.124 683.365 382.584 681.824 382.627C680.821 382.573 679.816 382.588 678.815 382.67C675.757 383.173 673.872 386.38 670.99 387.521C669.237 388.214 667.269 388.082 665.446 388.561C661.309 389.649 658.691 393.562 655.799 396.716C651.126 401.789 645.038 405.342 638.324 406.914C635.971 407.459 633.442 407.807 631.573 409.336C629.096 411.361 628.487 414.831 627.936 417.983C626.414 426.688 624.088 435.232 620.988 443.507L630.812 444.762C632.68 445 634.615 445.234 636.415 444.68C637.723 444.187 638.961 443.526 640.1 442.716C644.475 439.998 649.372 438.229 654.474 437.524C657.047 437.171 659.744 437.106 662.158 438.063C664.572 439.02 666.644 441.19 666.846 443.78C667.89 443.455 669.003 443.42 670.065 443.679C671.127 443.937 672.1 444.48 672.878 445.248C674.416 446.817 675.424 448.829 675.758 451.001C676.017 452.346 676.275 453.957 677.523 454.522C678.54 454.982 679.707 454.486 680.82 454.397C684.597 454.095 687.732 458.502 691.444 457.743C695.426 456.929 696.403 450.962 700.287 449.767C702.518 449.08 705.647 449.915 706.716 447.839C707.657 446.008 705.779 443.896 705.972 441.847C706.211 439.323 709.186 438.252 711.479 437.176C719.385 433.464 723.136 422.816 719.305 414.963C717.035 410.31 712.569 406.648 711.744 401.536C711.11 397.604 712.659 393.018 710.153 389.922C708.879 388.348 706.72 387.479 705.962 385.6C705.484 384.417 705.676 383.075 705.419 381.826C705.162 380.576 704.073 379.269 702.84 379.593C699.261 380.533 698.119 391.597 696.203 394.285C693.29 398.371 687.31 395.679 688.228 390.645Z" fill="#3F3D56"/>
<path d="M622.074 368.429C620.851 368.086 619.516 367.748 618.344 368.239C617.172 368.729 616.488 370.451 617.428 371.305C624.786 371.018 632.19 370.733 639.485 371.733C647.891 372.885 656.21 375.739 664.652 374.9C659.83 373.476 654.928 372.338 649.971 371.491L641.706 369.911C639.489 369.446 637.248 369.1 634.995 368.873C630.279 368.483 626.71 369.73 622.074 368.429Z" fill="#3F3D56"/>
<path d="M629.441 342.785C628.83 342.734 628.073 342.69 627.757 343.216C627.455 343.718 627.801 344.382 627.639 344.945C627.417 345.714 626.41 345.91 625.617 345.806C624.823 345.701 623.966 345.45 623.263 345.833C622.906 346.076 622.639 346.429 622.499 346.838C622.36 347.247 622.358 347.69 622.491 348.101C622.779 348.916 623.243 349.657 623.852 350.271C624.891 351.581 626.076 352.77 627.382 353.814C629.911 355.682 633.337 356.582 634.93 359.294C635.155 359.819 635.5 360.284 635.938 360.651C636.703 361.136 637.7 360.767 638.523 360.391L641.409 359.071C641.929 358.884 642.393 358.568 642.758 358.153C643.417 357.258 643.012 355.985 642.459 355.021C641.906 354.057 641.197 353.059 641.316 351.953C641.528 349.982 644.061 349.227 645.102 347.541C646.152 345.841 645.469 343.65 645.59 341.655C645.731 339.322 647.196 336.287 644.839 334.544C642.836 333.063 640.921 334.431 639.483 336.067C636.45 339.516 635.016 343.251 629.441 342.785Z" fill="#3F3D56"/>
<path d="M646.958 307.926C647.943 309.814 649.997 310.94 651.072 312.779C652.236 314.771 652.103 317.346 653.367 319.277C654.663 321.259 657.271 322.311 657.998 324.565C658.792 327.025 656.991 330.016 658.427 332.166C658.694 332.518 659.032 332.809 659.418 333.024C659.805 333.238 660.231 333.369 660.671 333.409C661.111 333.45 661.554 333.398 661.973 333.258C662.392 333.118 662.777 332.893 663.104 332.596C663.709 331.937 664.033 331.067 664.007 330.172C663.98 329.277 663.605 328.428 662.962 327.806C662.113 327.031 660.892 326.696 660.183 325.79C659.813 325.267 659.567 324.668 659.463 324.036C659.076 322.214 659.138 320.325 659.643 318.532C659.833 318.077 659.881 317.576 659.782 317.093C659.462 316.164 658.205 316.098 657.323 315.667C655.319 314.688 655.367 311.858 655.717 309.654C655.484 311.121 650.261 308.625 649.714 307.794C648.627 306.143 649.219 302.958 649.004 301.134C646.658 302.265 645.753 305.618 646.958 307.926Z" fill="#3F3D56"/>
<path d="M594.337 336.971C593.373 335.891 591.921 334.761 590.629 335.412C589.643 335.909 589.371 337.274 589.758 338.309C590.229 339.314 590.954 340.179 591.861 340.818C594.554 343.041 597.455 345.047 599.805 347.631C604.01 352.255 606.237 358.495 610.81 362.755C611.73 363.743 612.947 364.402 614.276 364.632C615.608 364.756 617.105 363.902 617.258 362.572C617.384 361.476 616.621 360.496 615.874 359.684C614.098 357.75 612.153 355.97 610.476 353.95C609.701 353.174 609.215 352.156 609.096 351.066C609.088 349.978 610.079 348.839 611.132 349.109C609.851 348.781 608.901 346.645 607.021 346.244C605.45 345.909 605.07 346.882 603.2 346.079C599.633 344.549 596.835 339.768 594.337 336.971Z" fill="#3F3D56"/>
<path d="M678.14 231.816C677.117 231.512 676.111 231.152 675.127 230.739C672.479 229.944 668.975 231.891 669.328 234.635C669.563 236.458 671.258 237.688 672.195 239.269C673.584 241.614 673.213 244.589 672.484 247.215C672.304 248.028 671.964 248.797 671.482 249.476C670.808 250.193 670.002 250.773 669.109 251.184C665.533 253.191 662.379 255.872 659.822 259.079C659.544 259.375 659.35 259.74 659.261 260.137C659.135 261.063 660.065 261.738 660.592 262.511C661.76 264.227 660.916 266.537 661.031 268.611C661.013 268.904 661.071 269.197 661.198 269.462C661.325 269.727 661.518 269.955 661.757 270.124C662.462 270.482 663.297 269.874 663.678 269.182C664.946 266.884 663.991 263.197 666.368 262.09C666.818 261.88 667.363 261.792 667.663 261.396C668.139 260.769 667.68 259.841 667.921 259.092C668.283 257.966 669.821 257.916 671.001 257.966C673.035 258.051 675.067 257.78 677.007 257.166C677.768 256.984 678.46 256.584 678.995 256.014C679.706 255.126 679.643 253.864 679.501 252.736C678.79 247.111 677.009 241.675 674.256 236.72C676.344 236.987 678.615 237.218 680.417 236.129C681.426 235.519 682.636 233.696 682.136 232.455C681.344 230.492 679.915 232.144 678.14 231.816Z" fill="#3F3D56"/>
<path d="M410.448 262.751C410.698 264.092 410.944 265.504 410.505 266.796C410.066 268.087 408.684 269.166 407.379 268.771C406.367 268.464 405.782 267.445 405.063 266.668C401.064 262.349 392.043 264.849 389.573 259.506C388.565 257.325 389.25 254.712 388.563 252.409C388.129 251.079 387.266 249.93 386.109 249.143C384.952 248.357 383.566 247.977 382.17 248.064C380.897 248.248 379.658 248.618 378.492 249.163C370.682 252.293 362.484 254.345 354.121 255.262C352.532 255.359 350.96 255.645 349.438 256.115C346.005 257.361 343.658 260.546 341.989 263.797C340.319 267.047 339.086 270.566 336.848 273.454C334.495 276.489 331.199 278.615 328.124 280.914C326.939 281.677 325.953 282.712 325.246 283.932C324.579 285.302 324.616 286.895 324.668 288.417L325.297 306.909C325.378 309.288 325.479 311.751 326.543 313.88C327.871 316.538 330.496 318.279 332.316 320.627C334.174 323.04 335.142 326.021 335.056 329.066C335.017 330.29 334.896 331.738 335.848 332.507C336.428 332.883 337.106 333.078 337.797 333.067L362.795 335.115C367.192 335.475 372.065 336.067 374.936 339.419C376.291 341.001 377.379 343.277 379.455 343.446C380.345 343.519 381.211 343.154 382.101 343.083C384.348 342.905 386.321 344.611 387.567 346.49C389.451 349.354 390.307 352.775 389.993 356.19C389.789 358.334 389.125 360.418 388.981 362.566C388.436 370.742 395.362 377.844 395.497 386.037C395.576 390.856 393.29 395.358 391.061 399.631C394.658 405.084 391.712 412.345 393.144 418.72C394.503 424.768 399.543 429.503 400.798 435.573C401.373 438.352 401.407 441.772 403.855 443.203C404.93 443.728 406.121 443.966 407.315 443.896C414.513 443.982 421.629 442.361 428.081 439.166C431.109 437.662 434.247 435.417 434.776 432.076C435.202 429.382 433.837 426.368 435.227 424.021C436.864 421.255 441.06 421.475 443.47 419.348C447.379 415.898 444.331 409.318 445.914 404.349C447.338 399.882 452.239 397.509 454.669 393.5C455.625 391.776 456.311 389.915 456.703 387.983C457.816 383.365 458.509 378.655 458.773 373.912C458.837 371.03 459.05 368.153 459.409 365.293C462.028 349.01 478.115 338.106 483.339 322.463C483.837 320.969 484.072 318.979 482.743 318.134C481.956 317.758 481.063 317.664 480.214 317.869L468.691 319.323C467.259 319.503 465.742 319.672 464.428 319.077C463.113 318.482 462.171 316.818 462.869 315.554C464.826 312.007 460.8 307.524 459.011 303.889C454.194 294.099 448.458 284.79 441.88 276.088C441.459 275.64 441.195 275.067 441.129 274.456L444.399 274.565C443.296 270.601 441.474 266.263 437.625 264.813C435.456 263.996 433.055 264.278 430.741 264.405C424.113 264.767 417.008 263.766 410.448 262.751Z" fill="#3F3D56"/>
<path d="M430.746 173.421C432.48 175.264 434.424 177.218 436.933 177.539C441.365 178.106 444.552 173.52 446.581 169.536C446.656 170.552 447.124 171.498 447.885 172.174C448.647 172.849 449.642 173.201 450.658 173.154C451.752 172.97 452.796 172.561 453.725 171.954C462.506 167.152 472.342 164.608 482.349 164.55C482.253 163.791 482.441 163.024 482.877 162.396C483.313 161.768 483.966 161.324 484.709 161.149C486.744 160.745 488.577 162.506 489.558 164.334C490.54 166.163 491.152 168.282 492.711 169.651C494.27 171.019 497.289 170.96 497.905 168.978C498.497 167.075 496.516 165.452 494.87 164.33C493.224 163.209 491.489 161.132 492.598 159.477C501.006 157.615 509.466 155.745 518.069 155.375C519.534 155.426 520.993 155.174 522.357 154.636C523.669 153.992 524.712 152.529 524.359 151.11C522.481 151.551 520.515 151.424 518.71 150.742C516.906 150.061 515.345 148.858 514.227 147.286C526.164 146.3 538.862 145.459 549.441 151.08C550.711 153.808 544.24 156.077 545.972 158.537C546.524 159.321 547.63 159.413 548.589 159.431C555.941 159.568 563.335 159.702 570.604 158.591C573.261 158.185 575.944 157.612 578.611 157.941C583.053 158.489 586.852 161.455 591.223 162.422C593.001 162.816 594.996 162.829 596.495 161.794C597.995 160.759 598.639 158.401 597.41 157.055C601.525 153.02 608.355 154.02 613.783 155.952C619.211 157.884 624.354 161 630.099 161.43C634.219 161.739 638.397 160.63 642.468 161.335C645.026 161.778 647.407 162.917 649.907 163.617C654.636 164.94 659.639 164.661 664.549 164.724C677.077 164.893 689.468 167.357 701.108 171.994C702.622 172.487 704.01 173.307 705.172 174.397C706.255 175.557 706.808 177.361 706.08 178.772L694.051 177.013C695.185 179.246 698.117 179.626 700.498 180.396C702.879 181.166 705.347 183.798 703.916 185.852C701.337 185.03 698.999 187.611 697.696 189.986C696.392 192.361 694.804 195.205 692.1 195.349C689.679 195.479 686.751 193.416 685.173 195.258C687.353 198.01 689.22 200.997 690.74 204.163C692.299 207.413 693.409 211.508 691.302 214.433C690.97 214.955 690.467 215.345 689.88 215.536C688.159 215.972 687.04 213.865 685.806 212.588C684.251 210.979 681.899 210.524 679.793 209.769C677.687 209.014 675.468 207.53 675.303 205.297C675.201 203.908 675.934 202.617 676.474 201.333C677.381 199.17 677.778 196.826 677.633 194.484C677.515 192.599 676.987 190.639 675.635 189.323C674.282 188.006 671.948 187.589 670.496 188.794C669.818 189.357 669.276 190.257 668.396 190.291C666.842 190.35 665.648 187.638 664.398 188.564C664.544 189.55 664.34 190.557 663.82 191.408C660.089 194.655 654.356 193.281 649.545 194.429C647.257 195.084 645.067 196.041 643.032 197.275C642.271 197.601 641.623 198.145 641.17 198.838C640.57 200.006 641.232 201.502 642.29 202.278C643.413 202.967 644.674 203.398 645.984 203.54C651.849 204.651 657.799 206.372 662.43 210.141C667.06 213.911 670.096 220.142 668.631 225.933L657.065 214.874C657.504 219.517 657.754 224.173 657.813 228.842C657.888 229.754 657.763 230.671 657.446 231.529C656.622 233.352 654.387 233.965 652.429 234.367C651.884 234.471 651.368 234.688 650.913 235.006C650.458 235.324 650.076 235.734 649.791 236.21C649.506 236.686 649.325 237.216 649.259 237.767C649.194 238.318 649.246 238.877 649.412 239.406C650.107 241.676 651.842 243.445 653.431 245.208C655.019 246.971 656.582 248.975 656.79 251.339C656.998 253.704 655.215 256.369 652.849 256.205C651.055 256.08 649.724 254.473 648.959 252.845C648.194 251.216 647.738 249.402 646.589 248.018C643.109 243.83 635.292 245.625 632.175 241.16C631.38 242.062 630.829 243.152 630.574 244.327C630.319 245.502 630.368 246.723 630.717 247.874C632.167 246.965 634.153 247.809 635.242 249.129C636.332 250.449 636.846 252.142 637.702 253.625C638.856 255.625 640.694 257.399 640.855 259.704C640.813 260.575 640.827 261.449 640.899 262.318C641.186 263.715 642.365 264.717 643.183 265.885C645.086 268.601 644.992 272.332 643.765 275.414C642.539 278.495 640.335 281.07 638.153 283.567C634.34 287.927 630.45 292.262 625.931 295.884C624.641 296.917 623.265 297.933 622.461 299.378C621.658 300.822 621.617 302.85 622.851 303.949C621.968 303.993 620.384 304.428 619.501 304.472C619.191 300.927 619.123 297.365 619.299 293.81C615.814 292.136 612.061 296.62 612.511 300.463C612.961 304.305 615.738 307.389 617.716 310.713C619.162 313.144 620.236 315.979 619.753 318.766C619.271 321.554 616.784 324.125 613.968 323.88C609.487 323.488 607.614 317.053 603.177 316.316C602.786 316.224 602.375 316.265 602.01 316.432C601.351 316.794 601.237 317.676 601.2 318.426C601.018 322.111 600.861 325.943 602.299 329.34C604.401 334.31 609.834 338.485 608.695 343.76C602.555 340.904 599.363 334.015 597.914 327.398C596.465 320.78 596.223 313.833 593.625 307.577C591.653 310.107 587.506 308.016 585.704 305.361C583.995 302.845 582.943 299.934 581.285 297.384C579.628 294.834 577.088 292.55 574.051 292.41C570.867 292.263 568.105 294.449 565.676 296.515C563.679 298.214 561.629 299.98 560.462 302.329C558.763 305.746 559.207 309.775 559.125 313.591C559.037 317.716 558.163 322.069 555.353 325.089C552.543 328.109 547.357 329.161 544.258 326.439C542.64 325.018 541.856 322.895 541.158 320.857C537.795 311.033 534.993 301.026 532.768 290.883C532.247 293.198 530.216 296.182 528.275 294.818C527.84 294.452 527.487 293.997 527.24 293.484C523.62 287.345 516.916 283.662 510.143 281.454C503.37 279.246 496.243 278.216 489.545 275.79C485.792 274.429 482.207 272.642 478.86 270.464C478.007 271.718 477.509 273.179 477.419 274.694C477.328 276.208 477.649 277.719 478.347 279.065C479.832 281.698 483.195 283.221 486.073 282.301C487.56 281.825 488.816 280.792 490.292 280.282C491.768 279.772 493.748 280.022 494.394 281.445C495.011 282.807 494.078 284.454 494.541 285.876C495.246 288.042 498.51 288.209 499.652 290.179C500.501 291.645 499.802 293.593 498.59 294.776C497.377 295.959 495.759 296.608 494.279 297.431C489.477 300.104 486.061 304.666 481.864 308.215C477.667 311.764 471.745 314.355 466.743 312.079C467.936 306.037 460.744 301.602 459.421 295.587C458.985 293.608 459.211 291.505 458.589 289.576C457.689 286.783 455.213 284.863 453.181 282.746C450.717 280.151 448.798 277.088 447.536 273.739C446.274 270.389 445.695 266.821 445.834 263.244C445.944 260.758 446.4 258.232 445.834 255.81C445.268 253.387 443.264 251.042 440.78 251.152C435.106 251.402 427.959 251.825 424.983 246.985C423.92 245.258 423.458 242.728 424.994 241.405C426.078 240.471 427.677 240.559 429.1 240.699L441.883 241.958C444.872 242.252 448.104 242.495 450.67 240.931C453.235 239.367 454.347 235.215 451.971 233.375C450.236 232.031 447.126 232.104 446.621 229.966C446.201 228.186 448.17 226.166 447.107 224.678C446.344 223.611 444.629 223.907 443.591 224.707C442.552 225.506 441.798 226.676 440.635 227.282C438.595 228.344 436.158 227.333 433.964 226.646C431.769 225.959 428.827 225.9 427.763 227.94C426.572 230.221 428.819 233.21 427.637 235.495C426.075 238.517 420.786 236.797 418.592 239.396C416.075 242.379 420.305 246.827 419.456 250.637C418.372 251.174 417.168 251.421 415.96 251.353C414.753 251.285 413.583 250.905 412.567 250.25C411.566 249.569 410.769 248.63 410.26 247.532C409.751 246.434 409.549 245.219 409.675 244.015C409.885 242.301 410.778 240.551 410.18 238.931C409.696 237.622 408.382 236.842 407.16 236.167L394.738 229.298C393.585 231.439 395.043 234.093 396.867 235.701C398.69 237.309 400.974 238.52 402.172 240.636C402.93 242.102 403.1 243.803 402.647 245.39C402.194 246.977 401.153 248.332 399.736 249.177C399.558 249.299 399.356 249.382 399.144 249.419C398.931 249.456 398.713 249.447 398.505 249.392C398.306 249.275 398.134 249.12 397.996 248.935C397.859 248.751 397.761 248.54 397.706 248.317C395.514 242.704 392.224 237.171 386.963 234.239C381.702 231.307 374.142 231.91 370.692 236.849C369.873 238.022 369.323 239.359 368.609 240.599C364.816 247.188 356.686 250.309 349.09 250.105C348.347 250.146 347.607 249.972 346.96 249.604C345.733 248.756 345.788 246.955 345.976 245.474L346.773 239.189C346.933 237.927 347.165 236.532 348.164 235.744C349.571 234.633 351.601 235.334 353.393 235.308C354.751 235.244 356.056 234.765 357.132 233.934C358.208 233.103 359.003 231.961 359.408 230.663C359.771 229.352 359.768 227.967 359.402 226.657C359.035 225.347 358.319 224.162 357.329 223.23C356.508 222.458 355.405 221.488 355.839 220.448C356.012 220.16 356.246 219.913 356.525 219.726C356.803 219.538 357.119 219.414 357.451 219.361C360.67 218.426 364.072 218.181 367.237 217.077C370.403 215.973 373.472 213.715 374.222 210.446C374.452 209.444 374.556 208.23 375.456 207.733C375.907 207.543 376.392 207.444 376.881 207.442C378.598 207.198 380.16 206.319 381.261 204.98C382.363 203.64 382.923 201.937 382.832 200.205C384.349 199.144 386.475 199.924 387.942 201.053C389.41 202.181 390.706 203.671 392.491 204.158C395.819 205.064 399.035 202.115 402.484 202.102C403.935 202.096 405.436 202.609 406.801 202.117C408.184 201.618 409.01 200.24 410.072 199.223C411.133 198.205 412.996 197.584 413.976 198.68L413.142 192.493C414.823 192.918 416.575 192.978 418.282 192.669C419.988 192.361 421.609 191.69 423.035 190.703L412.246 187.055C411.87 186.961 411.523 186.776 411.237 186.515C410.452 185.67 411.231 184.353 411.869 183.392C413.395 181.094 413.651 177.308 411.142 176.164C409.429 175.383 407.463 176.32 405.82 177.238L397.945 181.631C397.695 183.129 399.525 183.978 400.659 184.987C401.346 185.597 401.831 186.401 402.053 187.293C402.274 188.184 402.221 189.122 401.9 189.983C401.579 190.844 401.005 191.587 400.254 192.116C399.503 192.644 398.61 192.933 397.692 192.944C398.21 193.619 398.57 194.402 398.746 195.235C398.921 196.067 398.907 196.929 398.704 197.756L393.406 198.137C392.811 198.257 392.194 198.136 391.688 197.801C391.121 197.298 391.198 196.415 391.067 195.668C390.75 193.865 388.985 192.602 387.185 192.278C385.385 191.954 383.543 192.369 381.76 192.779C381.003 193.052 380.172 193.033 379.428 192.725C379.002 192.448 378.678 192.039 378.506 191.56C377.724 189.664 378.455 187.435 379.71 185.813C380.965 184.192 382.684 183.006 384.227 181.656C387.918 178.416 390.629 174.207 392.055 169.506C394.972 168.283 397.992 166.622 400.908 165.399C405.405 163.121 410.448 162.143 415.469 162.576L425.347 162.765C428.271 162.82 431.275 162.892 433.979 164.008C436.683 165.123 439.059 167.536 439.246 170.457C439.302 170.788 439.274 171.127 439.163 171.444C439.052 171.761 438.863 172.044 438.612 172.267C438.231 172.476 437.798 172.573 437.364 172.549C434.636 172.645 433.473 173.325 430.746 173.421Z" fill="#3F3D56"/>
<path d="M352.016 204.398C352.402 204.032 352.68 203.567 352.819 203.054C352.958 202.541 352.953 201.999 352.804 201.489C351.865 201.126 350.844 201.033 349.855 201.22C348.866 201.407 347.948 201.866 347.206 202.547C346.621 203.139 346.117 203.806 345.706 204.531C344.408 206.65 343.26 209.181 344.013 211.549C344.074 211.808 344.186 212.051 344.343 212.265C344.499 212.48 344.697 212.661 344.925 212.797C345.262 212.933 345.625 212.99 345.987 212.964C347.417 212.962 348.846 212.874 350.265 212.701C351.137 212.594 352.149 212.348 352.486 211.536C352.929 210.469 351.857 209.262 352.169 208.15C352.375 207.653 352.686 207.207 353.082 206.842C353.278 206.659 353.429 206.432 353.523 206.18C353.616 205.928 353.65 205.658 353.62 205.391C353.494 204.869 352.696 204.573 352.409 205.026" fill="#3F3D56"/>
<path d="M359.43 194.779C358.16 194.487 356.851 194.404 355.554 194.535C355.267 194.526 354.983 194.591 354.728 194.723C354.481 194.905 354.302 195.165 354.219 195.46C353.945 196.34 354.013 197.291 354.408 198.123C354.803 198.955 355.497 199.608 356.351 199.951C356.817 200.058 357.263 200.237 357.673 200.483C358.77 201.334 358.071 203.074 358.278 204.446C358.511 205.988 360.003 207.282 359.729 208.817C359.514 210.026 358.223 210.984 358.431 212.195C358.648 213.463 360.256 213.844 361.538 213.945C362.281 214.075 363.045 213.988 363.74 213.693C364.435 213.217 364.93 212.5 365.129 211.68C365.653 210.117 365.874 208.468 365.778 206.822C365.772 206.073 365.585 205.337 365.231 204.678C364.845 204.155 364.417 203.665 363.951 203.212C361.496 200.354 364.081 196.09 359.43 194.779Z" fill="#3F3D56"/>
</g>
<defs>
<clipPath id="clip0_3_566">
<rect width="810" height="602.062" fill="white"/>
</clipPath>
</defs>
</svg>
