<?xml version="1.0" standalone="no"?>
<!DOCTYPE svg PUBLIC "-//W3C//DTD SVG 20010904//EN"
 "http://www.w3.org/TR/2001/REC-SVG-20010904/DTD/svg10.dtd">
<svg version="1.0" xmlns="http://www.w3.org/2000/svg"
 width="808.000000pt" height="808.000000pt" viewBox="0 0 808.000000 808.000000"
 preserveAspectRatio="xMidYMid meet">
<metadata>
Created by potrace 1.14, written by Peter Selinger 2001-2017
</metadata>
<g transform="translate(0.000000,808.000000) scale(0.100000,-0.100000)"
fill="#000000" stroke="none">
<path d="M330 7306 c-71 -20 -143 -61 -191 -109 -59 -59 -79 -84 -79 -102 0
-8 -4 -15 -9 -15 -4 0 -17 -26 -27 -57 -18 -56 -19 -134 -19 -2503 0 -2035 2
-2451 14 -2480 20 -53 44 -102 61 -124 64 -85 165 -152 265 -175 36 -8 424
-12 1400 -14 1509 -4 1397 2 1550 -75 125 -62 208 -141 263 -249 28 -56 31
-71 47 -236 3 -32 9 -66 14 -75 5 -9 19 -39 31 -66 41 -94 159 -187 284 -226
41 -13 139 -16 195 -6 109 21 237 116 299 225 34 58 46 115 57 250 2 35 10 70
16 77 6 8 9 14 5 14 -11 0 35 84 73 130 86 108 210 182 366 220 64 15 185 17
1400 18 732 1 1341 4 1355 7 14 3 38 8 53 10 34 7 131 54 135 66 2 5 9 9 16 9
6 0 27 17 46 39 53 58 70 81 63 81 -3 0 1 8 9 18 8 9 23 40 34 67 19 49 19
108 19 2490 0 1342 -3 2453 -7 2469 -11 44 -42 116 -50 116 -5 0 -8 6 -8 14 0
28 -141 155 -180 161 -3 0 -15 6 -26 12 -12 7 -36 16 -55 20 -45 10 -2426 10
-2504 0 -97 -13 -109 -15 -140 -21 -59 -12 -71 -14 -135 -31 -36 -9 -69 -18
-75 -19 -28 -6 -151 -50 -160 -57 -5 -5 -15 -9 -22 -9 -23 0 -235 -107 -318
-161 -65 -42 -202 -145 -225 -168 -3 -4 -33 -33 -67 -65 l-62 -59 -53 51 c-29
28 -66 62 -83 76 -16 15 -37 32 -45 39 -8 8 -33 27 -55 43 -22 16 -44 33 -50
37 -40 31 -158 100 -255 148 -116 57 -348 142 -412 150 -2 0 -21 4 -43 10 -82
20 -99 23 -250 39 -143 15 -2409 11 -2465 -4z"/>
</g>
</svg>
